<svg width="80" height="80" viewBox="0 0 80 80" fill="none" xmlns="http://www.w3.org/2000/svg">
<path d="M62.3667 65.0001C59.6 69.1334 56.6667 73.1668 52.2 73.2334C47.7333 73.3334 46.3 70.6001 41.2333 70.6001C36.1333 70.6001 34.5667 73.1668 30.3333 73.3334C25.9667 73.5001 22.6666 68.9334 19.8666 64.9001C14.1666 56.6668 9.79998 41.5001 15.6666 31.3001C18.5666 26.2334 23.7666 23.0334 29.4 22.9334C33.6666 22.8668 37.7333 25.8334 40.3667 25.8334C42.9667 25.8334 47.9 22.2668 53.0667 22.8001C55.2333 22.9001 61.3 23.6667 65.2 29.4001C64.9 29.6001 57.9667 33.6668 58.0333 42.1001C58.1333 52.1668 66.8667 55.5334 66.9667 55.5668C66.8667 55.8001 65.5667 60.3668 62.3667 65.0001ZM43.3333 11.6667C45.7667 8.90008 49.8 6.80008 53.1333 6.66675C53.5667 10.5667 52 14.5001 49.6667 17.3001C47.3667 20.1334 43.5667 22.3334 39.8333 22.0334C39.3333 18.2001 41.2 14.2001 43.3333 11.6667V11.6667Z" fill="white"/>
</svg>
