<svg width="68" height="66" viewBox="0 0 68 66" fill="none" xmlns="http://www.w3.org/2000/svg">
<path d="M67.1 48.1998C66.6333 46.9332 65.6666 46.3332 64.7333 45.6998C64.5666 45.5998 64.3666 45.4998 64.2333 45.4332C64 45.2665 63.6333 45.1332 63.3333 44.9665C60.2 43.2998 57.7333 41.1998 56.0333 38.7332C55.5774 38.0258 55.1655 37.2911 54.8 36.5332C54.6666 36.0998 54.6666 35.8665 54.7666 35.6665C54.8666 35.4998 55 35.3332 55.1666 35.2332C55.6666 34.8665 56.2666 34.5332 56.6333 34.2665C57.3333 33.8332 57.8333 33.4998 58.1666 33.2665C59.4666 32.3665 60.3666 31.3332 60.9333 30.3332C61.7333 28.8332 61.8333 27.0665 61.2 25.4998C60.3666 23.2665 58.2333 21.8665 55.6666 21.8665C55.1333 21.8665 54.6 21.9332 54 22.0332C54 22.0665 53.8 22.0998 53.6666 22.1332C53.6666 20.5998 53.6333 18.9998 53.5 17.3998C53.0333 11.7998 51.0666 8.8665 49 6.53317C47.7 5.0665 46.1666 3.79984 44.4666 2.83317C41.3666 1.0665 37.8333 0.166504 34 0.166504C30.1666 0.166504 26.6666 1.0665 23.5666 2.83317C21.8333 3.79984 20.3 5.0665 19 6.53317C16.9333 8.8665 15 11.7998 14.5 17.3998C14.3666 18.9998 14.3333 20.5998 14.3666 22.1332C14.2 22.0998 14 22.0665 14 22.0332C13.4 21.9332 12.8666 21.8665 12.3333 21.8665C9.76664 21.8665 7.6333 23.2665 6.79997 25.4998C6.16664 27.0665 6.26664 28.8332 7.06664 30.3332C7.6333 31.3332 8.5333 32.3665 9.8333 33.2665C10.1666 33.4998 10.6666 33.8332 11.3666 34.2998L12.7666 35.1998C12.9666 35.3332 13.1 35.4998 13.2333 35.6665C13.3333 35.8998 13.3333 36.1332 13.1666 36.5665C12.8333 37.3332 12.4333 37.9998 11.9666 38.7332C10.3 41.1665 7.9333 43.2332 4.89997 44.8665C3.26664 45.7332 1.59997 46.3332 0.899971 48.1998C0.366638 49.6665 0.666638 51.3332 2.06664 52.6998C2.56664 53.1998 3.1333 53.6332 3.76664 53.9665C5.09997 54.6665 6.49997 55.2665 7.9333 55.6332C8.2333 55.7332 8.5333 55.8332 8.76664 56.0332C9.26664 56.4332 9.19997 57.0998 9.86664 57.9998C10.2 58.5332 10.6666 58.9665 11.1 59.2998C12.4666 60.2665 14 60.2998 15.6666 60.3665C17.1333 60.4332 18.8 60.4998 20.6666 61.1332C21.5333 61.3332 22.3333 61.8998 23.3 62.4998C25.6666 63.8998 28.7333 65.8332 34 65.8332C39.2333 65.8332 42.3333 63.8998 44.7333 62.4665C45.6666 61.8998 46.5 61.3332 47.3333 61.1332C49.1666 60.4998 50.8666 60.4332 52.3333 60.3665C54 60.3332 55.5333 60.2665 56.9 59.2998C57.4666 58.8998 57.9333 58.3665 58.3 57.7665C58.7666 56.9665 58.7666 56.3332 59.2 56.0332C59.4333 55.8665 59.7 55.7332 60 55.6665C61.4666 55.2665 62.8666 54.6665 64.2 53.9665C64.9 53.5998 65.5 53.1332 66 52.5665H66.0333C67.3333 51.1998 67.6 49.6665 67.1 48.1998V48.1998ZM62.4333 50.6998C59.5666 52.2665 57.6666 52.0998 56.2 52.9998C55.6666 53.3998 55.5 53.9332 55.4 54.4665L55.3 55.1332C55.2333 55.5998 55.1333 55.9998 54.8 56.2332C53.6666 56.9998 50.3666 56.1665 46.1 57.5665C42.5666 58.7332 40.3333 62.0998 34 62.0998C27.6666 62.0998 25.5 58.7665 21.9 57.5665C17.6666 56.1665 14.3333 56.9998 13.2333 56.2332C12.3333 55.5998 13.0666 53.8665 11.8 52.9998C10.3333 52.0998 8.4333 52.2665 5.66664 50.6998C4.6333 50.1665 4.46664 49.6665 4.59997 49.4332C4.7333 49.1332 5.1333 48.8998 5.39997 48.7665C10.9 46.1332 14 42.6998 15.5666 39.9998C17.0333 37.5998 17.3333 35.7665 17.4333 35.4998C17.5333 34.7998 17.6333 34.2665 16.8666 33.5665C16.1333 32.8665 12.8666 30.8665 11.9666 30.2332C10.4333 29.1665 9.79997 28.1332 10.2666 26.8332C10.6666 25.9332 11.4333 25.5998 12.3333 25.5998C12.6 25.5998 12.8666 25.6332 13.1333 25.6998C14.8 26.0332 16.4 26.8665 17.3333 27.0998C17.4333 27.1332 17.5333 27.1332 17.6666 27.1332C17.9666 27.1332 18.1333 27.0332 18.2333 26.8332C18.2666 26.6998 18.3 26.5332 18.3 26.3332C18.1666 24.5332 17.9333 21.0332 18.2 17.7332C18.3333 16.3332 18.5666 15.1332 18.8666 14.0998C19.5333 11.8332 20.6666 10.3332 21.8 8.9665C22.6333 7.99984 26.5 3.89984 34 3.89984C40.1666 3.89984 43.8666 6.69984 45.4666 8.19984C45.8 8.53317 46.0666 8.79984 46.2 8.9665C47.4666 10.4332 48.6 12.0332 49.2666 14.5665C49.5 15.4665 49.7 16.5332 49.8 17.7332C50.0666 20.9998 49.8333 24.5332 49.7 26.3332C49.7 26.4665 49.7 26.5998 49.7333 26.6998C49.7666 26.9998 49.9666 27.1332 50.3333 27.1332C50.4666 27.1332 50.5666 27.1332 50.6666 27.0998C51.6 26.8665 53.2 26.0332 54.8666 25.6665C55.1333 25.6332 55.4 25.5998 55.6666 25.5998C56.5 25.5998 57.3333 25.8998 57.6666 26.6665L57.7 26.7998H57.7333V26.8332C58.2333 28.0998 57.5666 29.1665 56.0666 30.1998C55.1666 30.8332 51.8666 32.8665 51.1333 33.5332C50.3666 34.2665 50.4666 34.7998 50.5666 35.4998C50.6666 35.8332 51.2666 38.9998 54.2666 42.5332C56.1 44.6665 58.7333 46.8998 62.6 48.7665C62.8333 48.8665 63.1333 49.0332 63.3 49.2332C63.4 49.3998 63.4666 49.5332 63.4333 49.6665C63.4 49.9998 63.1 50.3332 62.4333 50.6998V50.6998Z" fill="white"/>
</svg>
