<svg width="80" height="80" viewBox="0 0 80 80" fill="none" xmlns="http://www.w3.org/2000/svg">
<path d="M3.86662 54.8865C4.02995 54.8865 4.16662 54.7565 4.19329 54.5765L5.09329 47.8365L4.19329 40.9399C4.16995 40.7599 4.02662 40.6299 3.86329 40.6299C3.69662 40.6299 3.54995 40.7632 3.52995 40.9399L2.74329 47.8365L3.52995 54.5732C3.54995 54.7565 3.69662 54.8865 3.86329 54.8865H3.86662Z" fill="white"/>
<path d="M0.906667 52.3231C1.06667 52.3231 1.2 52.2031 1.22333 52.0231L1.92 47.8364L1.22333 43.5698C1.2 43.3931 1.06667 43.2698 0.906667 43.2698C0.736667 43.2698 0.606667 43.3931 0.58 43.5698L0 47.8364L0.58 52.0231C0.606667 52.1998 0.736667 52.3231 0.906667 52.3231V52.3231Z" fill="white"/>
<path d="M7.3999 39.6566C7.39321 39.5546 7.34833 39.4588 7.2742 39.3884C7.20007 39.318 7.10214 39.2781 6.9999 39.2766C6.89777 39.2773 6.79978 39.3171 6.72603 39.3878C6.65227 39.4584 6.60834 39.5546 6.60323 39.6566L5.85657 47.8366L6.60323 55.7166C6.61001 55.818 6.65512 55.913 6.72942 55.9824C6.80371 56.0517 6.90161 56.0902 7.00323 56.0899C7.10517 56.0893 7.20308 56.0501 7.27729 55.9802C7.3515 55.9104 7.3965 55.815 7.40323 55.7133L8.2499 47.8366L7.40323 39.6566H7.3999Z" fill="white"/>
<path d="M10.1732 56.4067C10.2918 56.4045 10.4054 56.3583 10.4917 56.2769C10.5779 56.1955 10.6308 56.0849 10.6399 55.9667L11.4432 47.8367L10.6432 39.43C10.6341 39.3112 10.5808 39.2001 10.4938 39.1187C10.4068 39.0372 10.2924 38.9913 10.1732 38.99C10.0534 38.9898 9.93812 39.0358 9.85125 39.1183C9.76437 39.2009 9.71257 39.3136 9.70658 39.4333L8.99658 47.8367L9.70325 55.9667C9.70927 56.0869 9.76153 56.2002 9.84912 56.2828C9.93671 56.3654 10.0528 56.411 10.1732 56.41V56.4067Z" fill="white"/>
<path d="M13.3667 56.5401C13.5044 56.5404 13.6369 56.4881 13.7373 56.3939C13.8376 56.2998 13.8983 56.1708 13.9067 56.0335L14.6601 47.8368L13.9067 40.0368C13.8974 39.9 13.8365 39.7719 13.7362 39.6784C13.6359 39.585 13.5038 39.5331 13.3667 39.5334C13.2298 39.5333 13.098 39.5858 12.9987 39.6801C12.8995 39.7744 12.8403 39.9033 12.8334 40.0401L12.1667 47.8401L12.8334 56.0335C12.8403 56.1702 12.8995 56.2991 12.9987 56.3935C13.098 56.4878 13.2298 56.5403 13.3667 56.5401V56.5401Z" fill="white"/>
<path d="M17.8999 47.8401L17.1933 35.1567C17.184 35.0017 17.1162 34.8559 17.0036 34.7488C16.891 34.6418 16.742 34.5815 16.5866 34.5801C16.431 34.5807 16.2815 34.6407 16.1688 34.7479C16.056 34.8551 15.9884 35.0014 15.9799 35.1567L15.3533 47.8401L15.9799 56.0334C15.9957 56.1833 16.0664 56.3221 16.1784 56.423C16.2904 56.5239 16.4358 56.5797 16.5866 56.5797C16.7374 56.5797 16.8828 56.5239 16.9948 56.423C17.1068 56.3221 17.1775 56.1833 17.1933 56.0334L17.8999 47.8401V47.8401Z" fill="white"/>
<path d="M19.8367 56.6233C20.0093 56.6235 20.1753 56.557 20.3001 56.4378C20.4249 56.3186 20.4989 56.1558 20.5067 55.9833V55.99L21.17 47.8433L20.5067 32.2566C20.4946 32.0858 20.4183 31.9259 20.2931 31.8091C20.1678 31.6924 20.0029 31.6274 19.8317 31.6274C19.6604 31.6274 19.4955 31.6924 19.3703 31.8091C19.245 31.9259 19.1687 32.0858 19.1567 32.2566L18.5767 47.8433L19.16 55.9866C19.1694 56.1591 19.2451 56.3212 19.3712 56.4392C19.4972 56.5572 19.664 56.622 19.8367 56.62V56.6233Z" fill="white"/>
<path d="M23.1034 30.2532C22.9122 30.2522 22.728 30.3252 22.5895 30.4569C22.4509 30.5887 22.3687 30.7689 22.3601 30.9599L21.8201 47.8432L22.3601 55.9032C22.3687 56.0939 22.451 56.2739 22.5897 56.4051C22.7283 56.5363 22.9125 56.6085 23.1034 56.6066C23.2945 56.6093 23.4792 56.5374 23.618 56.406C23.7569 56.2746 23.8389 56.0942 23.8467 55.9032L24.4634 47.8432L23.8467 30.9599C23.8398 30.7683 23.7581 30.5871 23.6192 30.455C23.4802 30.3229 23.2951 30.2505 23.1034 30.2532V30.2532Z" fill="white"/>
<path d="M26.4 56.6234C26.61 56.627 26.8129 56.5479 26.9651 56.4033C27.1172 56.2586 27.2064 56.0599 27.2134 55.85V55.8567L27.78 47.8434L27.2134 30.3934C27.2064 30.1841 27.1177 29.9859 26.9663 29.8414C26.8148 29.6968 26.6127 29.6173 26.4034 29.6201C26.1935 29.6156 25.9904 29.6945 25.8386 29.8394C25.6868 29.9843 25.5986 30.1836 25.5934 30.3934L25.0834 47.8434L25.5934 55.8567C25.6 56.2867 25.96 56.6234 26.4034 56.6234H26.4Z" fill="white"/>
<path d="M29.7266 56.6166C29.9536 56.6193 30.1727 56.5329 30.3366 56.3758C30.5005 56.2187 30.5963 56.0036 30.6033 55.7766V55.7833L31.1266 47.8466L30.6033 30.8366C30.5946 30.6109 30.4981 30.3974 30.3343 30.2417C30.1706 30.0861 29.9525 30.0005 29.7266 30.0033C29.5001 29.9996 29.2812 30.0848 29.1167 30.2406C28.9522 30.3963 28.8553 30.6103 28.8466 30.8366L28.3866 47.8466L28.8499 55.7799C28.8599 56.2466 29.2466 56.6133 29.7266 56.6133V56.6166Z" fill="white"/>
<path d="M34.4966 47.8468L34.0232 31.4568C34.0146 31.2128 33.9106 30.9819 33.7336 30.8136C33.5566 30.6453 33.3207 30.5532 33.0766 30.5568C32.8313 30.5523 32.5941 30.6445 32.4163 30.8136C32.2385 30.9827 32.1344 31.2149 32.1266 31.4601L31.7032 47.8468L32.1266 55.7335C32.1353 55.9781 32.2397 56.2095 32.4174 56.3778C32.5951 56.5462 32.8318 56.638 33.0766 56.6335C33.3224 56.6371 33.5598 56.5435 33.737 56.3731C33.9143 56.2027 34.0171 55.9693 34.0232 55.7235V55.7335L34.4966 47.8468V47.8468Z" fill="white"/>
<path d="M36.45 56.6464C37 56.6464 37.4534 56.213 37.4634 55.6797L37.8934 47.8497L37.4634 28.3497C37.4547 28.0877 37.3438 27.8395 37.1544 27.6582C36.965 27.4769 36.7122 27.3769 36.45 27.3797C36.1878 27.3778 35.9351 27.4779 35.7454 27.6589C35.5556 27.8399 35.4438 28.0877 35.4334 28.3497L35.05 47.843L35.4334 55.683C35.4434 56.2097 35.9 56.6464 36.45 56.6464V56.6464Z" fill="white"/>
<path d="M39.8134 25.5468C39.5326 25.5422 39.2613 25.6479 39.0575 25.841C38.8537 26.0342 38.7338 26.2995 38.7234 26.5801L38.28 47.8534L38.7267 55.5701C38.7371 55.8489 38.8564 56.1125 39.0589 56.3045C39.2614 56.4964 39.5311 56.6013 39.81 56.5968C40.0901 56.6004 40.3604 56.4937 40.5624 56.2997C40.7645 56.1058 40.8822 55.8401 40.89 55.5601V55.5701L41.3767 47.8534L40.89 26.5834C40.8822 26.304 40.765 26.0389 40.5636 25.845C40.3623 25.6511 40.0929 25.544 39.8134 25.5468V25.5468Z" fill="white"/>
<path d="M42.8867 56.6533L70.1567 56.6666C75.5934 56.6666 80.0001 52.4399 80.0001 47.2233C80.0001 42.0099 75.5934 37.7833 70.1567 37.7833C68.8101 37.7833 67.5234 38.0466 66.3501 38.5166C65.5734 30.0099 58.1334 23.3333 49.0601 23.3333C46.8434 23.3333 44.6801 23.7533 42.7701 24.4633C42.0267 24.7399 41.8267 25.0233 41.8201 25.5733V55.5366C41.8305 55.821 41.9448 56.0917 42.1414 56.2974C42.338 56.5032 42.6031 56.6298 42.8867 56.6533V56.6533Z" fill="white"/>
</svg>
