<svg width="256" height="145" viewBox="0 0 256 145" fill="none" xmlns="http://www.w3.org/2000/svg">
<path d="M109.97 81.4821L108.476 26.9951C108.476 25.3011 107.082 24.0061 105.488 24.0061C103.795 24.0061 102.5 25.3011 102.5 26.9951L101.105 81.4821L102.5 107.679C102.5 109.373 103.894 110.668 105.488 110.668C107.181 110.668 108.476 109.373 108.476 107.679L109.97 81.4821Z" fill="url(#paint0_linear)"/>
<path d="M99.212 81.482L97.519 24.902C97.5195 24.5357 97.4478 24.1728 97.3078 23.8342C97.1678 23.4957 96.9624 23.1881 96.7033 22.9291C96.4442 22.6701 96.1365 22.4647 95.7979 22.3249C95.4593 22.185 95.0964 22.1134 94.73 22.114C94.3635 22.1132 94.0004 22.1848 93.6616 22.3247C93.3228 22.4646 93.015 22.6699 92.7558 22.9291C92.4966 23.1882 92.2911 23.496 92.1511 23.8347C92.0111 24.1734 91.9394 24.5365 91.94 24.903L90.447 81.383L91.941 107.779C91.9402 108.146 92.0118 108.509 92.1517 108.847C92.2916 109.186 92.497 109.494 92.7561 109.753C93.0152 110.012 93.323 110.218 93.6617 110.358C94.0004 110.498 94.3635 110.57 94.73 110.569C95.0966 110.57 95.4598 110.498 95.7986 110.358C96.1375 110.218 96.4454 110.013 96.7046 109.754C96.9638 109.494 97.1693 109.186 97.3093 108.848C97.4492 108.509 97.5208 108.146 97.52 107.779L99.212 81.482Z" fill="url(#paint1_linear)"/>
<path d="M76.003 25.3009C75.903 24.0059 74.907 22.9109 73.613 22.9109C72.318 22.9109 71.321 23.9069 71.222 25.3009L69.528 81.3819L71.222 108.177C71.222 109.472 72.318 110.468 73.612 110.468C74.907 110.468 75.904 109.472 76.003 108.078L77.995 81.2819L76.003 25.3019V25.3009Z" fill="url(#paint2_linear)"/>
<path d="M86.761 23.4089C86.761 22.0139 85.566 20.8189 84.171 20.8189C83.8302 20.8165 83.4924 20.8819 83.1771 21.0112C82.8617 21.1405 82.5753 21.3312 82.3343 21.5722C82.0933 21.8132 81.9026 22.0996 81.7733 22.4149C81.644 22.7303 81.5786 23.0681 81.581 23.4089L79.988 81.3819L81.581 107.978C81.581 109.373 82.777 110.568 84.171 110.568C85.566 110.568 86.661 109.472 86.761 107.978L88.554 81.3819L86.761 23.4089V23.4089Z" fill="url(#paint3_linear)"/>
<path d="M32.473 109.87C33.27 109.87 33.868 109.273 33.967 108.377L36.557 81.3821L33.967 53.4921C33.867 52.6941 33.27 51.9971 32.473 51.9971C31.676 51.9971 31.079 52.5951 30.979 53.4911L28.688 81.3821L30.979 108.377C30.979 109.273 31.676 109.871 32.473 109.871V109.87Z" fill="url(#paint4_linear)"/>
<path d="M120.828 81.482L119.433 16.735C119.433 15.639 118.836 14.643 117.939 14.045C117.441 13.746 116.844 13.447 116.146 13.447C115.549 13.447 114.951 13.647 114.353 13.946C113.457 14.543 112.859 15.539 112.859 16.635V17.233L111.664 81.383L112.859 107.381V107.481C112.859 108.177 113.158 108.875 113.656 109.373C114.254 110.07 115.15 110.568 116.146 110.568C117.043 110.568 117.84 110.17 118.437 109.672C119.035 109.074 119.433 108.277 119.433 107.381L119.533 104.791L120.828 81.481V81.482Z" fill="url(#paint5_linear)"/>
<path d="M44.327 55.483C44.227 54.487 43.53 53.79 42.633 53.79C41.737 53.79 40.94 54.487 40.94 55.483L38.848 81.383L40.94 108.576C41.04 109.572 41.737 110.269 42.633 110.269C43.53 110.269 44.327 109.572 44.327 108.576L46.717 81.382L44.327 55.483V55.483Z" fill="url(#paint6_linear)"/>
<path d="M52.893 37.354C51.897 37.354 51.001 38.151 51.001 39.247L49.009 81.382L51 108.576C51.1 109.672 51.896 110.468 52.892 110.468C53.888 110.468 54.785 109.672 54.785 108.576L57.076 81.382L54.785 39.247C54.785 38.251 53.888 37.354 52.892 37.354H52.893Z" fill="url(#paint7_linear)"/>
<path d="M65.245 108.576L67.337 81.482L65.245 29.684C65.145 28.489 64.249 27.592 63.054 27.592C61.858 27.592 60.962 28.489 60.862 29.684L58.97 81.482L60.862 108.576C60.862 109.771 61.858 110.668 63.054 110.668C64.249 110.768 65.146 109.771 65.245 108.576Z" fill="url(#paint8_linear)"/>
<path d="M128.697 7.8701C128.156 7.54218 127.536 7.36953 126.904 7.3711C126.107 7.3711 125.311 7.6701 124.713 8.1681C123.916 8.7661 123.418 9.7621 123.418 10.8581V11.2561L122.023 81.5811L122.721 94.5311L123.418 107.181C123.418 109.074 125.012 110.568 126.904 110.568C128.797 110.568 130.291 108.974 130.391 107.082L131.885 81.4821L130.391 10.8581C130.291 9.5631 129.693 8.4671 128.697 7.8691V7.8701Z" fill="url(#paint9_linear)"/>
<path d="M2.889 96.324C3.387 96.324 3.785 95.925 3.885 95.328L6.076 81.382L3.885 67.237C3.785 66.64 3.387 66.241 2.889 66.241C2.62501 66.2415 2.37198 66.3466 2.18531 66.5333C1.99863 66.7199 1.89353 66.973 1.893 67.237L0 81.382L1.893 95.328C1.893 95.925 2.391 96.324 2.889 96.324V96.324Z" fill="url(#paint10_linear)"/>
<path d="M12.352 104.79C12.85 104.79 13.348 104.392 13.447 103.795L16.337 81.3821L13.447 58.4721C13.347 57.8741 12.949 57.4751 12.352 57.4751C11.854 57.4751 11.356 57.8741 11.256 58.4721L8.76599 81.3821L11.256 103.795C11.356 104.392 11.754 104.791 12.352 104.791V104.79Z" fill="url(#paint11_linear)"/>
<path d="M22.3131 108.875C23.0101 108.875 23.5081 108.377 23.6081 107.58L26.2981 81.3821L23.6081 54.1881C23.5081 53.4911 23.0101 52.8931 22.3131 52.8931C21.6161 52.8931 21.1181 53.3911 21.0181 54.1881L18.6281 81.3821L21.0181 107.58C21.1181 108.277 21.6161 108.875 22.3131 108.875V108.875Z" fill="url(#paint12_linear)"/>
<path d="M223.626 48.012C219.343 48.012 215.259 48.909 211.474 50.403C208.984 22.213 185.276 0 156.389 0C149.538 0.00519802 142.747 1.28883 136.367 3.785C133.977 4.682 133.379 5.678 133.379 7.471V106.982C133.379 108.875 134.873 110.369 136.766 110.568H223.726C241.058 110.568 255.104 96.722 255.104 79.39C255.004 62.058 240.959 48.012 223.626 48.012V48.012Z" fill="url(#paint13_linear)"/>
<path d="M25.002 129.494C21.317 128.598 20.321 128.199 20.321 126.705C20.321 125.709 21.118 124.613 23.608 124.613C25.7 124.613 27.393 125.51 28.888 127.003L32.274 123.717C30.082 121.426 27.393 120.031 23.807 120.031C19.225 120.031 15.539 122.621 15.539 126.805C15.539 131.387 18.528 132.781 22.811 133.678C27.194 134.674 27.991 135.371 27.991 136.865C27.991 138.658 26.696 139.355 23.907 139.355C21.715 139.355 19.623 138.559 17.93 136.666L14.543 139.654C16.336 142.244 19.723 143.838 23.508 143.838C29.883 143.838 32.573 140.85 32.573 136.467C32.772 131.586 28.688 130.291 25.003 129.494H25.002ZM46.419 120.131C40.044 120.131 36.358 125.011 36.358 132.084C36.358 139.156 40.143 144.037 46.418 144.037C52.694 144.037 56.479 139.157 56.479 132.084C56.479 125.012 52.694 120.131 46.419 120.131ZM46.419 139.356C42.633 139.356 41.139 136.168 41.139 131.984C41.139 127.801 42.733 124.614 46.419 124.614C50.204 124.614 51.699 127.801 51.699 131.984C51.699 136.168 50.104 139.356 46.419 139.356ZM75.206 133.479C75.206 137.164 73.413 139.455 70.425 139.455C67.437 139.455 65.644 137.065 65.644 133.379V120.429H60.962V133.479C60.962 140.252 64.747 144.037 70.325 144.037C76.202 144.037 79.689 140.153 79.689 133.479V120.529H75.007V133.479H75.207H75.206ZM99.81 130.291C99.81 131.586 99.91 134.475 99.91 135.371C99.61 134.774 98.814 133.578 98.316 132.781L90.048 120.529H85.566V143.739H90.148V133.479C90.148 132.184 90.048 129.295 90.048 128.399C90.348 128.996 91.144 130.191 91.642 130.989L100.109 143.639H104.293V120.429H99.71V130.291H99.81ZM117.64 120.43H110.369V143.639H117.242C123.219 143.639 129.096 140.153 129.096 132.084C129.096 123.518 124.215 120.43 117.64 120.43V120.43ZM117.242 139.156H114.951V125.012H117.441C122.322 125.012 124.414 127.402 124.414 132.084C124.414 136.268 122.123 139.156 117.242 139.156ZM143.44 124.713C145.532 124.713 146.826 125.609 147.723 127.203L152.006 125.211C150.512 122.223 147.922 120.031 143.539 120.031C137.463 120.031 133.279 124.912 133.279 131.984C133.279 139.256 137.363 143.938 143.439 143.938C147.623 143.938 150.412 141.946 152.006 138.658L148.121 136.368C146.926 138.459 145.631 139.356 143.539 139.356C140.053 139.356 138.061 136.168 138.061 131.984C138.061 127.701 140.053 124.713 143.44 124.713V124.713ZM160.672 120.43H155.991V143.639H169.936V139.057H160.672V120.43V120.43ZM182.188 120.13C175.813 120.13 172.128 125.012 172.128 132.084C172.128 139.156 175.913 144.037 182.188 144.037C188.563 144.037 192.249 139.157 192.249 132.084C192.249 125.012 188.563 120.131 182.189 120.131L182.188 120.13ZM182.188 139.356C178.403 139.356 176.908 136.168 176.908 131.984C176.908 127.801 178.503 124.614 182.188 124.614C185.974 124.614 187.468 127.801 187.468 131.984C187.468 136.168 185.974 139.356 182.188 139.356ZM210.976 133.479C210.976 137.164 209.183 139.455 206.195 139.455C203.206 139.455 201.413 137.065 201.413 133.379V120.429H196.732V133.479C196.732 140.252 200.517 144.037 206.095 144.037C211.972 144.037 215.458 140.153 215.458 133.479V120.529H210.777V133.479H210.976V133.479ZM228.706 120.429H221.435V143.639H228.308C234.285 143.639 240.162 140.153 240.162 132.084C240.162 123.518 235.281 120.43 228.707 120.43L228.706 120.429ZM228.308 139.156H226.117V125.012H228.607C233.487 125.012 235.48 127.402 235.48 132.084C235.48 136.268 233.19 139.156 228.308 139.156Z" fill="white"/>
<defs>
<linearGradient id="paint0_linear" x1="105.513" y1="-0.000138649" x2="105.513" y2="110.741" gradientUnits="userSpaceOnUse">
<stop stop-color="#F6871F"/>
<stop offset="0.2393" stop-color="#F57E20"/>
<stop offset="0.6262" stop-color="#F36621"/>
<stop offset="1" stop-color="#F04923"/>
</linearGradient>
<linearGradient id="paint1_linear" x1="94.8478" y1="0.000261307" x2="94.8478" y2="110.742" gradientUnits="userSpaceOnUse">
<stop stop-color="#F6871F"/>
<stop offset="0.2393" stop-color="#F57E20"/>
<stop offset="0.6262" stop-color="#F36621"/>
<stop offset="1" stop-color="#F04923"/>
</linearGradient>
<linearGradient id="paint2_linear" x1="73.7641" y1="0.000722493" x2="73.7641" y2="110.74" gradientUnits="userSpaceOnUse">
<stop stop-color="#F6871F"/>
<stop offset="0.2393" stop-color="#F57E20"/>
<stop offset="0.6262" stop-color="#F36621"/>
<stop offset="1" stop-color="#F04923"/>
</linearGradient>
<linearGradient id="paint3_linear" x1="84.2656" y1="0.000654813" x2="84.2656" y2="110.741" gradientUnits="userSpaceOnUse">
<stop stop-color="#F6871F"/>
<stop offset="0.2393" stop-color="#F57E20"/>
<stop offset="0.6262" stop-color="#F36621"/>
<stop offset="1" stop-color="#F04923"/>
</linearGradient>
<linearGradient id="paint4_linear" x1="32.5851" y1="0.000175271" x2="32.5851" y2="110.741" gradientUnits="userSpaceOnUse">
<stop stop-color="#F6871F"/>
<stop offset="0.2393" stop-color="#F57E20"/>
<stop offset="0.6262" stop-color="#F36621"/>
<stop offset="1" stop-color="#F04923"/>
</linearGradient>
<linearGradient id="paint5_linear" x1="116.26" y1="-0.000352834" x2="116.26" y2="110.742" gradientUnits="userSpaceOnUse">
<stop stop-color="#F6871F"/>
<stop offset="0.2393" stop-color="#F57E20"/>
<stop offset="0.6262" stop-color="#F36621"/>
<stop offset="1" stop-color="#F04923"/>
</linearGradient>
<linearGradient id="paint6_linear" x1="42.7557" y1="0.000575533" x2="42.7557" y2="110.741" gradientUnits="userSpaceOnUse">
<stop stop-color="#F6871F"/>
<stop offset="0.2393" stop-color="#F57E20"/>
<stop offset="0.6262" stop-color="#F36621"/>
<stop offset="1" stop-color="#F04923"/>
</linearGradient>
<linearGradient id="paint7_linear" x1="53.0099" y1="6.11104e-05" x2="53.0099" y2="110.741" gradientUnits="userSpaceOnUse">
<stop stop-color="#F6871F"/>
<stop offset="0.2393" stop-color="#F57E20"/>
<stop offset="0.6262" stop-color="#F36621"/>
<stop offset="1" stop-color="#F04923"/>
</linearGradient>
<linearGradient id="paint8_linear" x1="63.1881" y1="-0.000630383" x2="63.1881" y2="110.741" gradientUnits="userSpaceOnUse">
<stop stop-color="#F6871F"/>
<stop offset="0.2393" stop-color="#F57E20"/>
<stop offset="0.6262" stop-color="#F36621"/>
<stop offset="1" stop-color="#F04923"/>
</linearGradient>
<linearGradient id="paint9_linear" x1="126.957" y1="-0.000268745" x2="126.957" y2="110.741" gradientUnits="userSpaceOnUse">
<stop stop-color="#F6871F"/>
<stop offset="0.2393" stop-color="#F57E20"/>
<stop offset="0.6262" stop-color="#F36621"/>
<stop offset="1" stop-color="#F04923"/>
</linearGradient>
<linearGradient id="paint10_linear" x1="3.05775" y1="-0.00150236" x2="3.05775" y2="110.742" gradientUnits="userSpaceOnUse">
<stop stop-color="#F6871F"/>
<stop offset="0.2393" stop-color="#F57E20"/>
<stop offset="0.6262" stop-color="#F36621"/>
<stop offset="1" stop-color="#F04923"/>
</linearGradient>
<linearGradient id="paint11_linear" x1="12.4878" y1="-0.00154018" x2="12.4878" y2="110.742" gradientUnits="userSpaceOnUse">
<stop stop-color="#F6871F"/>
<stop offset="0.2393" stop-color="#F57E20"/>
<stop offset="0.6262" stop-color="#F36621"/>
<stop offset="1" stop-color="#F04923"/>
</linearGradient>
<linearGradient id="paint12_linear" x1="22.4954" y1="-0.000965115" x2="22.4954" y2="110.742" gradientUnits="userSpaceOnUse">
<stop stop-color="#F6871F"/>
<stop offset="0.2393" stop-color="#F57E20"/>
<stop offset="0.6262" stop-color="#F36621"/>
<stop offset="1" stop-color="#F04923"/>
</linearGradient>
<linearGradient id="paint13_linear" x1="194.158" y1="0" x2="194.158" y2="110.587" gradientUnits="userSpaceOnUse">
<stop stop-color="#F6871F"/>
<stop offset="0.2402" stop-color="#F57E20"/>
<stop offset="0.6306" stop-color="#F36621"/>
<stop offset="1" stop-color="#F04923"/>
</linearGradient>
</defs>
</svg>
