<svg width="67" height="67" viewBox="0 0 67 67" fill="none" xmlns="http://www.w3.org/2000/svg">
<path d="M33.3067 0C14.9133 0 0 14.9133 0 33.3067C0 51.7 14.9133 66.6133 33.3067 66.6133C51.7 66.6133 66.6133 51.7 66.6133 33.3067C66.6133 14.9133 51.7 0 33.3067 0ZM47.8 52.2767C47.3767 53.3733 46.6167 53.9833 45.8333 53.9833C45.4061 53.974 44.9976 53.8065 44.6867 53.5133C38.7 48.22 31.7867 47.37 27.04 47.5867C21.78 47.83 17.9233 49.4 17.8833 49.4167C16.6733 49.9167 15.4167 48.8367 15.0867 47.0033C14.7533 45.17 15.4667 43.2733 16.6767 42.77C16.85 42.6967 21 40.99 26.7733 40.7033C30.0511 40.5208 33.3364 40.8812 36.4967 41.77C40.3821 42.8894 43.9661 44.8682 46.9833 47.56C48.07 48.5233 48.4367 50.6333 47.8 52.2767V52.2767ZM52.0333 42.0667C51.5333 43.1633 50.6333 43.7733 49.7033 43.7733C49.212 43.7685 48.7357 43.6035 48.3467 43.3033C41.2567 38.01 33.0667 37.16 27.4433 37.3767C21.21 37.62 16.6433 39.19 16.6 39.2067C15.1633 39.7067 13.68 38.6267 13.2833 36.7933C12.89 34.96 13.7333 33.0633 15.17 32.56C15.3733 32.4867 20.29 30.78 27.1267 30.4933C31.1533 30.3233 35.0267 30.6833 38.6467 31.56C43.1367 32.6271 47.3625 34.5971 51.0667 37.35C52.3533 38.31 52.7867 40.4233 52.0333 42.0667V42.0667ZM54.64 32.08C54.0514 32.0788 53.4747 31.915 52.9733 31.6067C36.1167 21.3467 14.2533 27.4467 14.0333 27.5067C12.2733 28.0167 10.45 26.94 9.96667 25.1033C9.48 23.2667 10.5167 21.37 12.2767 20.8633C12.53 20.79 18.56 19.0833 26.9433 18.7967C31.6797 18.6117 36.4217 18.9696 41.0767 19.8633C46.6967 20.9733 51.82 22.92 56.31 25.6567C57.89 26.6167 58.42 28.7267 57.5 30.37C57.2192 30.8843 56.806 31.3141 56.3031 31.6148C55.8001 31.9155 55.2259 32.0761 54.64 32.08V32.08Z" fill="white"/>
</svg>
