<svg width="70" height="80" viewBox="0 0 70 80" fill="none" xmlns="http://www.w3.org/2000/svg">
<path d="M36.507 0.0675C40.8695 0 45.207 0.04 49.5395 0C49.802 5.1025 51.637 10.3 55.372 13.9075C59.0995 17.605 64.372 19.2975 69.502 19.87V33.2925C64.6945 33.135 59.8645 32.135 55.502 30.065C53.602 29.205 51.832 28.0975 50.0995 26.965C50.077 36.705 50.1395 46.4325 50.037 56.1325C49.777 60.7925 48.2395 65.43 45.5295 69.27C41.1695 75.6625 33.602 79.83 25.8295 79.96C21.062 80.2325 16.2995 78.9325 12.237 76.5375C5.5045 72.5675 0.767002 65.3 0.0770025 57.5C-0.00991043 55.8481 -0.023257 54.1931 0.0370024 52.54C0.637002 46.1975 3.7745 40.13 8.6445 36.0025C14.1645 31.195 21.897 28.905 29.137 30.26C29.2045 35.1975 29.007 40.13 29.007 45.0675C25.6995 43.9975 21.8345 44.2975 18.9445 46.305C16.8301 47.6979 15.2323 49.7473 14.397 52.1375C13.707 53.8275 13.9045 55.705 13.9445 57.5C14.737 62.97 19.997 67.5675 25.612 67.07C29.3345 67.03 32.902 64.87 34.842 61.7075C35.4695 60.6 36.172 59.4675 36.2095 58.165C36.537 52.2025 36.407 46.265 36.447 40.3025C36.4745 26.865 36.407 13.465 36.5095 0.07L36.507 0.0675Z" fill="white"/>
</svg>
