<svg width="80" height="80" viewBox="0 0 80 80" fill="none" xmlns="http://www.w3.org/2000/svg">
<path d="M62.9667 23.3733C65.66 21.72 67.4434 19.4633 68.3167 16.5933C65.8569 17.9237 63.2172 18.8904 60.48 19.4633C58.1367 16.9433 55.17 15.6633 51.6134 15.6633C48.1367 15.6633 45.2 16.8833 42.8034 19.2567C41.646 20.3837 40.7309 21.7351 40.1141 23.2283C39.4974 24.7214 39.192 26.3247 39.2167 27.94C39.2167 28.97 39.3467 29.89 39.6067 30.67C29.3534 30.32 20.8667 26.0667 14.18 17.88C13.0467 19.8833 12.48 21.9233 12.48 24.0333C12.48 28.37 14.31 31.8067 17.9634 34.33C15.88 34.1533 14.0434 33.6267 12.48 32.7633C12.48 35.86 13.39 38.4467 15.2134 40.7233C16.9846 42.9418 19.4806 44.4654 22.2634 45.0267C21.2234 45.2933 20.1267 45.42 19 45.42C17.96 45.42 17.2234 45.3333 16.7867 45.1433C17.5534 47.6667 19 49.7133 21.09 51.28C23.1562 52.8488 25.6694 53.7166 28.2634 53.7567C23.8234 57.24 18.7467 58.9633 13.0034 58.9633C11.5967 58.9633 10.6 58.9433 9.9967 58.8367C15.6534 62.51 21.95 64.3333 28.9167 64.3333C36.0467 64.3333 42.3467 62.5267 47.83 58.9133C53.3134 55.32 57.36 50.8867 59.96 45.6667C62.5312 40.6157 63.87 35.0277 63.8667 29.36V27.8C66.2632 26.0331 68.3379 23.867 70 21.3967C67.7554 22.3695 65.3895 23.0344 62.9667 23.3733V23.3733Z" fill="white"/>
</svg>
