<svg width="80" height="100" viewBox="0 0 80 100" fill="none" xmlns="http://www.w3.org/2000/svg">
<path d="M75 49.7261C75 49.5112 75 49.2671 74.9922 48.9839C74.9844 48.1929 74.9688 47.3042 74.9531 46.3569C74.8906 43.6323 74.7813 40.9175 74.6094 38.3589C74.375 34.8335 74.0312 31.894 73.5625 29.687C73.0678 27.3838 72.0982 25.2832 70.7506 23.5952C69.4029 21.9072 67.7244 20.6909 65.8828 20.0679C63.6719 19.3257 59.3437 18.8667 53.25 18.5835C50.3516 18.4468 47.25 18.3589 44.1484 18.3101C43.0625 18.2905 42.0547 18.2808 41.1484 18.271H38.8516C37.9453 18.2808 36.9375 18.2905 35.8516 18.3101C32.75 18.3589 29.6484 18.4468 26.75 18.5835C20.6562 18.8765 16.3203 19.3354 14.1172 20.0679C12.275 20.6893 10.5959 21.9051 9.248 23.5934C7.90015 25.2816 6.93094 27.383 6.4375 29.687C5.96094 31.894 5.625 34.8335 5.39062 38.3589C5.21875 40.9175 5.10937 43.6323 5.04687 46.3569C5.02344 47.3042 5.01562 48.1929 5.00781 48.9839C5.00781 49.2671 5 49.5112 5 49.7261V50.2729C5 50.4878 5 50.7319 5.00781 51.0151C5.01562 51.8062 5.03125 52.6948 5.04687 53.6421C5.10937 56.3667 5.21875 59.0815 5.39062 61.6401C5.625 65.1655 5.96875 68.105 6.4375 70.312C7.4375 74.9897 10.375 78.6812 14.1172 79.9312C16.3203 80.6733 20.6562 81.1323 26.75 81.4155C29.6484 81.5522 32.75 81.6401 35.8516 81.689C36.9375 81.7085 37.9453 81.7183 38.8516 81.728H41.1484C42.0547 81.7183 43.0625 81.7085 44.1484 81.689C47.25 81.6401 50.3516 81.5522 53.25 81.4155C59.3437 81.1226 63.6797 80.6636 65.8828 79.9312C69.625 78.6812 72.5625 74.9995 73.5625 70.312C74.0391 68.105 74.375 65.1655 74.6094 61.6401C74.7813 59.0815 74.8906 56.3667 74.9531 53.6421C74.9766 52.6948 74.9844 51.8062 74.9922 51.0151C74.9922 50.7319 75 50.4878 75 50.2729V49.7261V49.7261ZM69.375 50.2339C69.375 50.439 69.375 50.6636 69.3672 50.9272C69.3594 51.689 69.3438 52.5288 69.3281 53.437C69.2734 56.0347 69.1641 58.6323 69 61.0444C68.7891 64.189 68.4922 66.7671 68.125 68.4956C67.6406 70.7515 66.2187 72.5386 64.4219 73.1343C62.7812 73.6812 58.6484 74.1206 53.0312 74.3843C50.1875 74.521 47.125 74.6089 44.0703 74.6577C43 74.6772 42.0078 74.687 41.1172 74.687H38.8828L35.9297 74.6577C32.875 74.6089 29.8203 74.521 26.9688 74.3843C21.3516 74.1108 17.2109 73.6812 15.5781 73.1343C13.7812 72.5288 12.3594 70.7515 11.875 68.4956C11.5078 66.7671 11.2109 64.189 11 61.0444C10.8359 58.6323 10.7344 56.0347 10.6719 53.437C10.6484 52.5288 10.6406 51.6792 10.6328 50.9272C10.6328 50.6636 10.625 50.4292 10.625 50.2339V49.7651C10.625 49.5601 10.625 49.3354 10.6328 49.0718C10.6406 48.3101 10.6563 47.4702 10.6719 46.562C10.7266 43.9644 10.8359 41.3667 11 38.9546C11.2109 35.8101 11.5078 33.2319 11.875 31.5034C12.3594 29.2476 13.7812 27.4604 15.5781 26.8647C17.2187 26.3179 21.3516 25.8784 26.9688 25.6147C29.8125 25.478 32.875 25.3901 35.9297 25.3413C37 25.3218 37.9922 25.312 38.8828 25.312H41.1172L44.0703 25.3413C47.125 25.3901 50.1797 25.478 53.0312 25.6147C58.6484 25.8882 62.7891 26.3179 64.4219 26.8647C66.2187 27.4702 67.6406 29.2476 68.125 31.5034C68.4922 33.2319 68.7891 35.8101 69 38.9546C69.1641 41.3667 69.2656 43.9644 69.3281 46.562C69.3516 47.4702 69.3594 48.3198 69.3672 49.0718C69.3672 49.3354 69.375 49.5698 69.375 49.7651V50.2339ZM33.0469 63.0854L51.1719 49.9019L33.0469 36.9136V63.0854Z" fill="white"/>
</svg>
