<svg width="80" height="80" viewBox="0 0 80 80" fill="none" xmlns="http://www.w3.org/2000/svg">
<path d="M75 39.7808C75 39.6089 75 39.4136 74.9922 39.187C74.9844 38.5542 74.9688 37.8433 74.9531 37.0854C74.8906 34.9058 74.7813 32.7339 74.6094 30.687C74.375 27.8667 74.0312 25.5151 73.5625 23.7495C73.0678 21.9069 72.0982 20.2265 70.7506 18.876C69.4029 17.5256 67.7244 16.5526 65.8828 16.0542C63.6719 15.4604 59.3437 15.0933 53.25 14.8667C50.3516 14.7573 47.25 14.687 44.1484 14.6479C43.0625 14.6323 42.0547 14.6245 41.1484 14.6167H38.8516C37.9453 14.6245 36.9375 14.6323 35.8516 14.6479C32.75 14.687 29.6484 14.7573 26.75 14.8667C20.6562 15.1011 16.3203 15.4683 14.1172 16.0542C12.275 16.5514 10.5959 17.524 9.248 18.8746C7.90015 20.2252 6.93094 21.9063 6.4375 23.7495C5.96094 25.5151 5.625 27.8667 5.39062 30.687C5.21875 32.7339 5.10937 34.9058 5.04687 37.0854C5.02344 37.8433 5.01562 38.5542 5.00781 39.187C5.00781 39.4136 5 39.6089 5 39.7808V40.2183C5 40.3901 5 40.5854 5.00781 40.812C5.01562 41.4448 5.03125 42.1558 5.04687 42.9136C5.10937 45.0933 5.21875 47.2651 5.39062 49.312C5.625 52.1323 5.96875 54.4839 6.4375 56.2495C7.4375 59.9917 10.375 62.9448 14.1172 63.9448C16.3203 64.5386 20.6562 64.9058 26.75 65.1323C29.6484 65.2417 32.75 65.312 35.8516 65.3511C36.9375 65.3667 37.9453 65.3745 38.8516 65.3823H41.1484C42.0547 65.3745 43.0625 65.3667 44.1484 65.3511C47.25 65.312 50.3516 65.2417 53.25 65.1323C59.3437 64.8979 63.6797 64.5308 65.8828 63.9448C69.625 62.9448 72.5625 59.9995 73.5625 56.2495C74.0391 54.4839 74.375 52.1323 74.6094 49.312C74.7813 47.2651 74.8906 45.0933 74.9531 42.9136C74.9766 42.1558 74.9844 41.4448 74.9922 40.812C74.9922 40.5854 75 40.3901 75 40.2183V39.7808V39.7808ZM69.375 40.187C69.375 40.3511 69.375 40.5308 69.3672 40.7417C69.3594 41.3511 69.3438 42.0229 69.3281 42.7495C69.2734 44.8276 69.1641 46.9058 69 48.8354C68.7891 51.3511 68.4922 53.4136 68.125 54.7964C67.6406 56.6011 66.2187 58.0308 64.4219 58.5073C62.7812 58.9448 58.6484 59.2964 53.0312 59.5073C50.1875 59.6167 47.125 59.687 44.0703 59.7261C43 59.7417 42.0078 59.7495 41.1172 59.7495H38.8828L35.9297 59.7261C32.875 59.687 29.8203 59.6167 26.9688 59.5073C21.3516 59.2886 17.2109 58.9448 15.5781 58.5073C13.7812 58.0229 12.3594 56.6011 11.875 54.7964C11.5078 53.4136 11.2109 51.3511 11 48.8354C10.8359 46.9058 10.7344 44.8276 10.6719 42.7495C10.6484 42.0229 10.6406 41.3433 10.6328 40.7417C10.6328 40.5308 10.625 40.3433 10.625 40.187V39.812C10.625 39.6479 10.625 39.4683 10.6328 39.2573C10.6406 38.6479 10.6563 37.9761 10.6719 37.2495C10.7266 35.1714 10.8359 33.0933 11 31.1636C11.2109 28.6479 11.5078 26.5854 11.875 25.2026C12.3594 23.3979 13.7812 21.9683 15.5781 21.4917C17.2187 21.0542 21.3516 20.7026 26.9688 20.4917C29.8125 20.3823 32.875 20.312 35.9297 20.2729C37 20.2573 37.9922 20.2495 38.8828 20.2495H41.1172L44.0703 20.2729C47.125 20.312 50.1797 20.3823 53.0312 20.4917C58.6484 20.7104 62.7891 21.0542 64.4219 21.4917C66.2187 21.9761 67.6406 23.3979 68.125 25.2026C68.4922 26.5854 68.7891 28.6479 69 31.1636C69.1641 33.0933 69.2656 35.1714 69.3281 37.2495C69.3516 37.9761 69.3594 38.6558 69.3672 39.2573C69.3672 39.4683 69.375 39.6558 69.375 39.812V40.187ZM33.0469 50.4683L51.1719 39.9214L33.0469 29.5308V50.4683Z" fill="white"/>
</svg>
