<svg width="1264" height="82" viewBox="0 0 1264 82" fill="none" xmlns="http://www.w3.org/2000/svg">
<path d="M8.4471 8.08H14.2071V58.864H68.4471V64.72H8.4471V8.08ZM3.1671 70.096H73.7271V53.488H19.5831V2.704H3.1671V70.096ZM0.767098 0.303999H21.9831L31.2951 10.192V51.088H76.1271L85.4391 60.976V81.808H10.6551L0.767098 72.496V0.303999ZM114.67 8.08H120.43V64.72H114.67V8.08ZM125.71 2.704H109.39V70.096H125.71V2.704ZM106.99 72.496V0.303999H128.11L137.422 10.192V81.808H116.878L106.99 72.496ZM224.081 33.52V39.28H175.217V64.72H169.265V8.08H233.969V13.936H175.217V33.52H224.081ZM239.345 19.312V2.704H163.889V70.096H180.497V44.56H229.361V28.24H180.497V19.312H239.345ZM161.489 72.496V0.303999H241.745L251.057 10.192V31.024H236.369L241.073 35.728V56.272H192.209V81.808H171.377L161.489 72.496ZM334.159 33.52V39.28H285.295V58.864H344.143V64.72H279.343V8.08H344.047V13.936H285.295V33.52H334.159ZM349.423 19.312V2.704H273.967V70.096H349.519V53.488H290.575V44.56H339.439V28.24H290.575V19.312H349.423ZM271.567 72.496V0.303999H351.823L361.135 10.192V31.024H346.447L351.151 35.728V51.088L361.231 60.976V81.808H281.455L271.567 72.496Z" fill="#161413"/>
<path d="M456.167 8.08H461.927V64.72H456.167V8.08ZM467.207 2.704H450.887V70.096H467.207V2.704ZM448.487 72.496V0.303999H469.607L478.919 10.192V81.808H458.375L448.487 72.496ZM512.49 51.568C514.538 53.552 516.81 55.056 519.306 56.08C521.802 57.104 524.394 57.84 527.082 58.288C529.77 58.672 532.522 58.896 535.338 58.96C538.154 58.96 540.874 58.96 543.498 58.96C544.458 58.96 545.738 58.928 547.338 58.864C549.002 58.8 550.762 58.672 552.618 58.48C554.538 58.224 556.458 57.904 558.378 57.52C560.298 57.072 562.026 56.496 563.562 55.792C565.162 55.088 566.442 54.256 567.402 53.296C568.426 52.272 568.938 51.056 568.938 49.648C568.938 48.24 568.394 47.024 567.306 46C566.282 44.912 564.938 43.984 563.274 43.216C561.61 42.448 559.722 41.808 557.61 41.296C555.562 40.72 553.514 40.304 551.466 40.048C549.418 39.728 547.498 39.504 545.706 39.376C543.978 39.248 542.57 39.184 541.482 39.184H541.578C540.042 39.12 538.154 38.96 535.914 38.704C533.674 38.448 531.338 38.064 528.906 37.552C526.474 37.04 524.042 36.4 521.61 35.632C519.178 34.8 517.002 33.808 515.082 32.656C513.162 31.504 511.594 30.16 510.378 28.624C509.162 27.024 508.554 25.2 508.554 23.152C508.554 20.912 509.13 18.992 510.282 17.392C511.498 15.792 513.034 14.448 514.89 13.36C516.81 12.208 518.954 11.312 521.322 10.672C523.69 9.968 526.09 9.424 528.522 9.04C530.954 8.656 533.258 8.4 535.434 8.272C537.674 8.144 539.562 8.08 541.098 8.08C543.594 8.08 546.122 8.208 548.682 8.464C551.306 8.656 553.866 9.04 556.362 9.616C558.858 10.192 561.29 10.992 563.658 12.016C566.026 12.976 568.202 14.224 570.186 15.76L565.098 19.408C563.242 18.128 561.29 17.136 559.242 16.432C557.194 15.664 555.082 15.088 552.906 14.704C550.73 14.32 548.522 14.096 546.282 14.032C544.042 13.904 541.866 13.84 539.754 13.84C538.282 13.84 536.266 13.936 533.706 14.128C531.21 14.32 528.714 14.736 526.218 15.376C523.786 15.952 521.674 16.88 519.882 18.16C518.09 19.376 517.194 21.04 517.194 23.152C517.194 25.2 518.058 26.864 519.786 28.144C521.514 29.36 523.786 30.352 526.602 31.12C529.418 31.824 532.618 32.4 536.202 32.848C539.85 33.232 543.562 33.648 547.338 34.096C551.114 34.544 554.794 35.088 558.378 35.728C562.026 36.304 565.258 37.168 568.074 38.32C570.89 39.408 573.162 40.88 574.89 42.736C576.618 44.528 577.482 46.832 577.482 49.648C577.482 51.632 576.874 53.392 575.658 54.928C574.506 56.464 572.97 57.808 571.05 58.96C569.13 60.048 566.954 60.976 564.522 61.744C562.154 62.448 559.754 63.024 557.322 63.472C554.954 63.92 552.682 64.24 550.506 64.432C548.33 64.624 546.538 64.72 545.13 64.72H537.93C535.306 64.72 532.554 64.624 529.674 64.432C526.794 64.24 523.978 63.824 521.226 63.184C518.474 62.48 515.85 61.52 513.354 60.304C510.858 59.088 508.65 57.424 506.73 55.312L512.49 51.568ZM498.762 53.296C501.322 57.456 504.362 60.688 507.882 62.992C511.402 65.232 515.21 66.896 519.306 67.984C523.402 69.008 527.626 69.616 531.978 69.808C536.394 70 540.778 70.096 545.13 70.096C547.05 70.096 549.322 69.968 551.946 69.712C554.57 69.392 557.29 68.912 560.106 68.272C562.922 67.632 565.674 66.8 568.362 65.776C571.114 64.688 573.546 63.408 575.658 61.936C577.834 60.4 579.562 58.64 580.842 56.656C582.186 54.608 582.858 52.272 582.858 49.648C582.858 46.512 582.154 43.856 580.746 41.68C579.402 39.44 577.61 37.584 575.37 36.112C573.194 34.576 570.666 33.36 567.786 32.464C564.97 31.504 562.058 30.768 559.05 30.256C556.042 29.744 553.098 29.36 550.218 29.104C547.338 28.848 544.778 28.624 542.538 28.432C541.77 28.368 540.298 28.24 538.122 28.048C535.946 27.792 533.706 27.472 531.402 27.088C529.098 26.64 527.05 26.096 525.258 25.456C523.466 24.816 522.57 24.048 522.57 23.152C522.57 22.128 523.402 21.36 525.066 20.848C526.73 20.336 528.618 19.952 530.73 19.696C532.906 19.44 534.986 19.312 536.97 19.312C539.018 19.248 540.394 19.216 541.098 19.216C543.146 19.216 545.226 19.312 547.338 19.504C549.45 19.632 551.498 19.952 553.482 20.464C555.53 20.976 557.45 21.712 559.242 22.672C561.098 23.632 562.794 24.88 564.33 26.416L578.346 17.008C575.914 13.68 573.162 11.088 570.09 9.232C567.018 7.312 563.754 5.872 560.298 4.912C556.842 3.952 553.226 3.344 549.45 3.088C545.738 2.832 541.994 2.704 538.218 2.704C536.234 2.704 533.962 2.864 531.402 3.184C528.906 3.44 526.346 3.888 523.722 4.528C521.162 5.168 518.634 6 516.138 7.024C513.706 8.048 511.53 9.328 509.61 10.864C507.69 12.4 506.154 14.192 505.002 16.24C503.85 18.224 503.274 20.528 503.274 23.152C503.274 26.16 504.01 28.752 505.482 30.928C506.954 33.104 508.906 34.96 511.338 36.496C513.77 38.032 516.522 39.28 519.594 40.24C522.666 41.2 525.77 42 528.906 42.64C532.106 43.216 535.178 43.696 538.122 44.08C541.13 44.4 543.754 44.688 545.994 44.944C546.634 45.008 547.882 45.136 549.738 45.328C551.658 45.52 553.642 45.808 555.69 46.192C557.738 46.512 559.562 46.96 561.162 47.536C562.762 48.112 563.562 48.816 563.562 49.648C563.562 50.352 563.05 50.96 562.026 51.472C561.002 51.92 559.69 52.304 558.09 52.624C556.49 52.88 554.73 53.072 552.81 53.2C550.89 53.328 549.002 53.424 547.146 53.488C545.354 53.552 543.722 53.584 542.25 53.584C540.842 53.584 539.85 53.584 539.274 53.584C536.842 53.584 534.442 53.488 532.074 53.296C529.706 53.04 527.402 52.592 525.162 51.952C522.922 51.248 520.81 50.288 518.826 49.072C516.842 47.856 515.05 46.224 513.45 44.176L498.762 53.296ZM512.682 41.776L508.074 37.072C505.834 35.408 504.074 33.456 502.794 31.216C501.514 28.912 500.874 26.224 500.874 23.152C500.874 20.208 501.482 17.616 502.698 15.376C503.978 13.072 505.642 11.088 507.69 9.424C509.738 7.76 512.074 6.352 514.698 5.2C517.322 3.984 520.01 3.024 522.762 2.32C525.514 1.616 528.234 1.104 530.922 0.783998C533.61 0.463999 536.042 0.303999 538.218 0.303999C541.994 0.303999 545.802 0.431997 549.642 0.687994C553.482 0.879995 557.226 1.456 560.874 2.41599C564.586 3.376 568.138 4.848 571.53 6.832C574.922 8.816 578.09 11.6 581.034 15.184C583.018 17.168 584.586 18.832 585.738 20.176C586.89 21.456 587.786 22.544 588.426 23.44C589.13 24.336 589.642 25.072 589.962 25.648C590.282 26.16 590.602 26.64 590.922 27.088L578.634 35.344C578.954 35.664 579.306 35.952 579.69 36.208C580.138 36.4 580.746 36.816 581.514 37.456C582.282 38.096 583.274 39.024 584.49 40.24C585.77 41.392 587.466 43.056 589.578 45.232C591.114 46.832 592.33 48.88 593.226 51.376C594.122 53.872 594.57 56.496 594.57 59.248C594.57 62.128 593.866 64.688 592.458 66.928C591.05 69.168 589.226 71.12 586.986 72.784C584.746 74.448 582.186 75.856 579.306 77.008C576.426 78.16 573.514 79.088 570.57 79.792C567.626 80.496 564.746 81.008 561.93 81.328C559.178 81.648 556.778 81.808 554.73 81.808C550.954 81.808 547.114 81.808 543.21 81.808C539.306 81.808 535.466 81.488 531.69 80.848C527.978 80.208 524.362 79.152 520.842 77.68C517.322 76.208 514.09 73.968 511.146 70.96C508.65 68.656 506.538 66.64 504.81 64.912C503.146 63.12 501.706 61.52 500.49 60.112C499.338 58.64 498.346 57.296 497.514 56.08C496.746 54.864 496.01 53.68 495.306 52.528L512.682 41.776Z" fill="#D84D4D"/>
<path d="M721.015 13.936C717.239 13.936 713.719 14.352 710.455 15.184C707.255 15.952 704.471 17.232 702.103 19.024C699.735 20.752 697.847 23.056 696.439 25.936C695.095 28.816 694.423 32.304 694.423 36.4C694.423 40.56 695.095 44.08 696.439 46.96C697.847 49.776 699.735 52.08 702.103 53.872C704.471 55.664 707.255 56.944 710.455 57.712C713.719 58.48 717.239 58.864 721.015 58.864H731.479C735.959 58.864 740.311 58.192 744.535 56.848C748.823 55.44 752.503 53.008 755.575 49.552L761.719 53.392C759.927 55.888 757.879 57.904 755.575 59.44C753.271 60.912 750.807 62.032 748.183 62.8C745.559 63.568 742.807 64.08 739.927 64.336C737.111 64.592 734.295 64.72 731.479 64.72H721.015C716.343 64.72 711.991 64.24 707.959 63.28C703.991 62.256 700.535 60.624 697.591 58.384C694.711 56.08 692.439 53.136 690.775 49.552C689.175 45.968 688.375 41.584 688.375 36.4C688.375 31.216 689.175 26.832 690.775 23.248C692.439 19.664 694.711 16.752 697.591 14.512C700.535 12.208 703.991 10.576 707.959 9.616C711.991 8.592 716.343 8.08 721.015 8.08H731.479C734.295 8.08 737.111 8.208 739.927 8.464C742.807 8.72 745.559 9.232 748.183 10C750.807 10.768 753.271 11.92 755.575 13.456C757.879 14.928 759.927 16.912 761.719 19.408L755.575 23.248C752.503 19.792 748.823 17.392 744.535 16.048C740.311 14.64 735.959 13.936 731.479 13.936H721.015ZM731.479 19.312C736.087 19.312 740.311 20.176 744.151 21.904C747.991 23.568 751.255 26.32 753.943 30.16L769.207 21.136C767.031 17.424 764.599 14.384 761.911 12.016C759.223 9.584 756.279 7.696 753.079 6.352C749.943 4.94399 746.551 3.984 742.903 3.472C739.319 2.96 735.511 2.704 731.479 2.704H721.015C715.447 2.704 710.327 3.344 705.655 4.62399C701.047 5.83999 697.047 7.792 693.655 10.48C690.327 13.168 687.703 16.656 685.783 20.944C683.927 25.168 682.999 30.32 682.999 36.4C682.999 42.48 683.927 47.664 685.783 51.952C687.703 56.176 690.327 59.632 693.655 62.32C697.047 65.008 701.047 66.992 705.655 68.272C710.327 69.488 715.447 70.096 721.015 70.096H731.479C735.511 70.096 739.319 69.84 742.903 69.328C746.551 68.816 749.943 67.888 753.079 66.544C756.279 65.136 759.223 63.248 761.911 60.88C764.599 58.512 767.031 55.44 769.207 51.664L753.943 42.64C751.255 46.48 747.991 49.264 744.151 50.992C740.311 52.656 736.087 53.488 731.479 53.488H721.015C718.135 53.488 715.415 53.2 712.855 52.624C710.295 52.048 708.055 51.12 706.135 49.84C704.215 48.496 702.679 46.736 701.527 44.56C700.375 42.384 699.799 39.664 699.799 36.4C699.799 33.2 700.375 30.512 701.527 28.336C702.679 26.16 704.215 24.4 706.135 23.056C708.119 21.712 710.391 20.752 712.951 20.176C715.511 19.6 718.199 19.312 721.015 19.312H731.479ZM697.399 71.344C693.751 68.144 690.839 65.168 688.663 62.416C686.487 59.6 684.791 56.848 683.575 54.16C682.359 51.408 681.559 48.592 681.175 45.712C680.791 42.832 680.599 39.728 680.599 36.4C680.599 29.872 681.591 24.336 683.575 19.792C685.559 15.184 688.343 11.44 691.927 8.56C695.511 5.67999 699.767 3.59999 704.695 2.32C709.687 0.975998 715.127 0.303999 721.015 0.303999H731.479C735.127 0.303999 738.615 0.463999 741.943 0.783998C745.335 1.04 748.695 1.808 752.023 3.088C755.351 4.368 758.743 6.288 762.199 8.848C765.655 11.408 769.367 14.96 773.335 19.504C773.975 20.208 774.679 21.04 775.447 22C776.215 22.96 776.951 23.984 777.655 25.072C778.359 26.16 779.063 27.28 779.767 28.432C780.471 29.52 781.111 30.544 781.687 31.504L762.967 42.544L755.671 35.248C753.431 33.776 751.095 32.72 748.663 32.08C746.231 31.376 743.703 31.024 741.079 31.024H730.615C728.055 31.024 725.623 31.28 723.319 31.792C721.015 32.304 718.967 33.136 717.175 34.288C715.447 35.44 714.071 36.976 713.047 38.896C712.023 40.816 711.511 43.184 711.511 46C711.511 47.536 711.639 48.816 711.895 49.84C713.239 50.288 714.679 50.608 716.215 50.8C717.751 50.992 719.351 51.088 721.015 51.088H731.479C735.703 51.088 739.671 50.192 743.383 48.4C747.159 46.608 750.487 43.632 753.367 39.472L772.567 50.8L781.687 60.496C779.127 64.848 776.343 68.4 773.335 71.152C770.391 73.904 767.223 76.048 763.831 77.584C760.439 79.184 756.855 80.272 753.079 80.848C749.303 81.488 745.303 81.808 741.079 81.808H730.615C727.351 81.808 724.119 81.584 720.919 81.136C717.783 80.752 714.743 80.112 711.799 79.216C708.919 78.384 706.231 77.296 703.735 75.952C701.303 74.672 699.191 73.136 697.399 71.344ZM857.395 19.312C858.163 19.312 858.963 19.376 859.795 19.504C860.627 19.632 861.395 19.856 862.099 20.176C862.803 20.496 863.379 20.944 863.827 21.52C864.339 22.096 864.595 22.864 864.595 23.824C864.595 24.72 864.339 25.456 863.827 26.032C863.315 26.608 862.675 27.056 861.907 27.376C861.203 27.696 860.403 27.92 859.507 28.048C858.675 28.176 857.939 28.24 857.299 28.24H821.779V19.312H857.395ZM857.299 33.52C858.835 33.52 860.339 33.36 861.811 33.04C863.347 32.656 864.723 32.08 865.939 31.312C867.155 30.544 868.115 29.552 868.819 28.336C869.587 27.056 869.971 25.552 869.971 23.824C869.971 22.032 869.619 20.496 868.915 19.216C868.211 17.936 867.251 16.912 866.035 16.144C864.883 15.376 863.539 14.832 862.003 14.512C860.531 14.128 858.995 13.936 857.395 13.936H816.499V33.52H857.299ZM866.035 37.84C865.139 38.352 864.147 38.736 863.059 38.992C861.971 39.248 860.947 39.504 859.987 39.76C863.571 43.984 867.155 48.144 870.739 52.24C874.387 56.336 878.035 60.496 881.683 64.72H873.907L851.731 39.28H816.499V64.72H810.547V8.08H857.395C860.019 8.08 862.451 8.368 864.691 8.944C866.995 9.52 868.947 10.448 870.547 11.728C872.211 13.008 873.491 14.64 874.387 16.624C875.347 18.608 875.827 21.008 875.827 23.824C875.827 27.344 875.027 30.256 873.427 32.56C871.827 34.8 869.395 36.56 866.131 37.84H866.035ZM881.203 23.824C881.203 20.176 880.627 17.04 879.475 14.416C878.323 11.728 876.691 9.52 874.579 7.792C872.467 6.064 869.939 4.784 866.995 3.952C864.115 3.12 860.915 2.704 857.395 2.704H805.363V70.096H821.779V44.56H849.235L871.315 70.096H893.395L869.203 42.352C877.203 38.832 881.203 32.656 881.203 23.824ZM802.963 72.496V0.303999H857.395C859.891 0.303999 862.291 0.495998 864.595 0.879997C866.899 1.2 869.203 1.904 871.507 2.992C873.875 4.08 876.307 5.64799 878.803 7.696C881.363 9.744 884.083 12.464 886.963 15.856C888.819 17.712 890.259 20.208 891.283 23.344C892.371 26.416 892.915 29.776 892.915 33.424C892.915 37.648 891.987 41.392 890.131 44.656C888.339 47.92 885.715 50.576 882.259 52.624C884.243 54.928 886.323 57.328 888.499 59.824C890.675 62.32 892.851 64.848 895.027 67.408C897.203 69.904 899.347 72.368 901.459 74.8C903.635 77.296 905.683 79.632 907.603 81.808H879.955L870.259 72.496L856.243 56.272H833.491V81.808H812.851L802.963 72.496ZM990.976 43.888L970.72 15.184L949.984 43.888H990.976ZM980.608 38.704H960.256L970.528 24.304L980.608 38.704ZM1005.28 64.72L994.912 49.84H945.856C944.064 52.272 942.304 54.768 940.576 57.328C938.912 59.824 937.184 62.288 935.392 64.72H927.712C934.496 55.184 941.248 45.744 947.968 36.4C954.752 27.056 961.504 17.616 968.224 8.08H972.832L1012.48 64.72H1005.28ZM965.632 2.704L917.632 70.096H937.984L948.544 55.216H991.936L1002.4 70.096H1022.75L975.712 2.704H965.632ZM986.464 10.192L1036.38 81.808H1010.85L1001.15 72.496L997.216 66.928H959.296C958.528 68.08 957.664 69.296 956.704 70.576C955.808 71.856 954.88 73.136 953.92 74.416C953.024 75.76 952.128 77.04 951.232 78.256C950.336 79.536 949.504 80.72 948.736 81.808H923.104L912.928 72.496L964.384 0.303999H976.96L986.464 10.192ZM1114.01 8.08V12.88L1064.57 58.864H1117.09V64.72H1054.4V59.92L1104.03 13.936H1057.37V8.08H1114.01ZM1090.69 19.312L1049.12 57.616V70.096H1122.37V53.488H1078.01L1119.39 15.28V2.704H1052V19.312H1090.69ZM1049.6 0.303999H1121.79L1131.1 10.192V25.84L1103.65 51.088H1124.77L1134.08 60.976V81.808H1056.61L1046.72 72.496V56.56L1074.37 31.024H1059.49L1049.6 21.712V0.303999ZM1164.33 8.08H1172.78L1200.62 35.44L1227.98 8.08H1236.33L1203.5 40.816V64.72H1197.55V40.912L1164.33 8.08ZM1208.88 70.096V43.024L1249.1 2.704H1225.87L1200.52 28.24L1174.8 2.704H1151.37L1192.27 43.216V70.096H1208.88ZM1189.87 44.176C1186.41 40.784 1182.8 37.232 1179.02 33.52C1175.31 29.808 1171.53 26.064 1167.69 22.288C1163.85 18.448 1160.04 14.672 1156.27 10.96C1152.49 7.248 1148.91 3.696 1145.52 0.303999H1175.76L1200.43 24.88L1224.81 0.303999H1254.96L1263.88 10.192L1220.59 53.488V81.808H1199.76L1189.87 72.496V44.176Z" fill="#444444"/>
</svg>
