<svg width="1194" height="147" viewBox="0 0 1194 147" fill="none" xmlns="http://www.w3.org/2000/svg">
<path d="M74.182 28.4C59.6487 28.4 49.1154 32.4667 42.582 40.6C36.182 48.6 32.982 59.6 32.982 73.6C32.982 80.4 33.782 86.6 35.382 92.2C36.982 97.6667 39.382 102.4 42.582 106.4C45.782 110.4 49.782 113.533 54.582 115.8C59.382 117.933 64.982 119 71.382 119C74.8487 119 77.782 118.933 80.182 118.8C82.7154 118.667 84.9154 118.4 86.782 118V69.8H117.982V138.4C114.249 139.867 108.249 141.4 99.982 143C91.7154 144.733 81.5154 145.6 69.382 145.6C58.982 145.6 49.5154 144 40.982 140.8C32.582 137.6 25.382 132.933 19.382 126.8C13.382 120.667 8.71537 113.133 5.38203 104.2C2.18203 95.2667 0.582031 85.0667 0.582031 73.6C0.582031 62 2.38203 51.7333 5.98203 42.8C9.58203 33.8667 14.5154 26.3333 20.782 20.2C27.0487 13.9333 34.382 9.19999 42.782 5.99999C51.3154 2.79999 60.382 1.19999 69.982 1.19999C76.5154 1.19999 82.382 1.66666 87.582 2.6C92.9154 3.39999 97.4487 4.39999 101.182 5.59999C105.049 6.66666 108.182 7.8 110.582 9C113.115 10.2 114.915 11.1333 115.982 11.8L106.982 36.8C102.715 34.5333 97.782 32.6 92.182 31C86.7154 29.2667 80.7154 28.4 74.182 28.4ZM175.012 143V4.4H268.612V30.6H206.212V57.8H261.612V83.4H206.212V116.8H273.212V143H175.012ZM427.101 4.4V31H385.301V143H354.101V31H312.301V4.4H427.101ZM643.999 143C642.533 138.2 640.866 133.267 638.999 128.2C637.266 123.133 635.533 118.067 633.799 113H579.799C578.066 118.067 576.266 123.133 574.399 128.2C572.666 133.267 571.066 138.2 569.599 143H537.199C542.399 128.067 547.333 114.267 551.999 101.6C556.666 88.9333 561.199 77 565.599 65.8C570.133 54.6 574.533 44 578.799 34C583.199 23.8667 587.733 14 592.399 4.4H622.199C626.733 14 631.199 23.8667 635.599 34C639.999 44 644.399 54.6 648.799 65.8C653.333 77 657.933 88.9333 662.599 101.6C667.266 114.267 672.199 128.067 677.399 143H643.999ZM606.599 35.8C605.933 37.8 604.933 40.5333 603.599 44C602.266 47.4667 600.733 51.4667 598.999 56C597.266 60.5333 595.333 65.5333 593.199 71C591.199 76.4667 589.133 82.2 586.999 88.2H626.399C624.266 82.2 622.199 76.4667 620.199 71C618.199 65.5333 616.266 60.5333 614.399 56C612.666 51.4667 611.133 47.4667 609.799 44C608.466 40.5333 607.399 37.8 606.599 35.8ZM808.332 19.2C809.932 24.6667 811.665 30.8667 813.532 37.8C815.532 44.6 817.599 51.6667 819.732 59C821.999 66.3333 824.265 73.6667 826.532 81C828.799 88.3333 830.999 95.1333 833.132 101.4C834.865 94.6 836.599 87.2 838.332 79.2C840.199 71.2 841.932 62.9333 843.532 54.4C845.132 45.8667 846.665 37.4 848.132 29C849.732 20.4667 851.199 12.2667 852.532 4.4H884.932C880.265 27.6 874.865 51.1333 868.732 75C862.732 98.8667 856.199 121.533 849.132 143H820.532C815.865 130.2 811.332 116.8 806.932 102.8C802.532 88.6667 798.199 74.5333 793.932 60.4C789.665 74.5333 785.399 88.6667 781.132 102.8C776.865 116.8 772.399 130.2 767.732 143H739.132C732.065 121.533 725.465 98.8667 719.332 75C713.332 51.1333 707.999 27.6 703.332 4.4H737.132C738.465 12.2667 739.932 20.4667 741.532 29C743.132 37.4 744.799 45.8667 746.532 54.4C748.265 62.9333 749.999 71.2 751.732 79.2C753.599 87.2 755.465 94.6 757.332 101.4C759.732 94.8667 762.065 87.9333 764.332 80.6C766.599 73.2667 768.799 65.9333 770.932 58.6C773.065 51.2667 774.999 44.2 776.732 37.4C778.599 30.6 780.265 24.5333 781.732 19.2H808.332ZM1017.77 143C1016.31 138.2 1014.64 133.267 1012.77 128.2C1011.04 123.133 1009.31 118.067 1007.57 113H953.573C951.839 118.067 950.039 123.133 948.173 128.2C946.439 133.267 944.839 138.2 943.373 143H910.973C916.173 128.067 921.106 114.267 925.773 101.6C930.439 88.9333 934.973 77 939.373 65.8C943.906 54.6 948.306 44 952.573 34C956.973 23.8667 961.506 14 966.173 4.4H995.973C1000.51 14 1004.97 23.8667 1009.37 34C1013.77 44 1018.17 54.6 1022.57 65.8C1027.11 77 1031.71 88.9333 1036.37 101.6C1041.04 114.267 1045.97 128.067 1051.17 143H1017.77ZM980.373 35.8C979.706 37.8 978.706 40.5333 977.373 44C976.039 47.4667 974.506 51.4667 972.773 56C971.039 60.5333 969.106 65.5333 966.973 71C964.973 76.4667 962.906 82.2 960.773 88.2H1000.17C998.039 82.2 995.973 76.4667 993.973 71C991.973 65.5333 990.039 60.5333 988.173 56C986.439 51.4667 984.906 47.4667 983.573 44C982.239 40.5333 981.173 37.8 980.373 35.8ZM1127.99 61.4C1133.59 51.9333 1138.92 42.4667 1143.99 33C1149.06 23.5333 1153.72 14 1157.99 4.4H1192.39C1184.79 19.3333 1176.92 33.8 1168.79 47.8C1160.66 61.8 1152.06 75.8667 1142.99 90V143H1111.79V90.4C1102.72 76.2667 1094.06 62.1333 1085.79 48C1077.66 33.8667 1069.79 19.3333 1062.19 4.4H1098.39C1102.66 14 1107.26 23.5333 1112.19 33C1117.12 42.4667 1122.39 51.9333 1127.99 61.4Z" fill="white"/>
<path d="M42.582 40.6L42.1922 40.2869L42.1916 40.2876L42.582 40.6ZM35.382 92.2L34.9013 92.3374L34.9022 92.3404L35.382 92.2ZM42.582 106.4L42.9725 106.088L42.9725 106.088L42.582 106.4ZM54.582 115.8L54.3685 116.252L54.379 116.257L54.582 115.8ZM80.182 118.8L80.1558 118.301L80.1543 118.301L80.182 118.8ZM86.782 118L86.8868 118.489L87.282 118.404V118H86.782ZM86.782 69.8V69.3H86.282V69.8H86.782ZM117.982 69.8H118.482V69.3H117.982V69.8ZM117.982 138.4L118.165 138.865L118.482 138.741V138.4H117.982ZM99.982 143L99.887 142.509L99.8794 142.511L99.982 143ZM40.982 140.8L40.804 141.267L40.8065 141.268L40.982 140.8ZM19.382 126.8L19.0246 127.15L19.0246 127.15L19.382 126.8ZM5.38203 104.2L4.91128 104.369L4.91358 104.375L5.38203 104.2ZM5.98203 42.8L5.51827 42.6131L5.51827 42.6131L5.98203 42.8ZM20.782 20.2L21.1318 20.5574L21.1356 20.5535L20.782 20.2ZM42.782 5.99999L42.6065 5.53182L42.604 5.53274L42.782 5.99999ZM87.582 2.6L87.4937 3.09213L87.5008 3.0934L87.5079 3.09446L87.582 2.6ZM101.182 5.59999L101.029 6.07601L101.039 6.07921L101.049 6.08199L101.182 5.59999ZM110.582 9L110.358 9.44731L110.368 9.45187L110.582 9ZM115.982 11.8L116.452 11.9694L116.589 11.5898L116.247 11.376L115.982 11.8ZM106.982 36.8L106.747 37.2416L107.257 37.5123L107.452 36.9694L106.982 36.8ZM92.182 31L92.0309 31.4766L92.0378 31.4788L92.0447 31.4808L92.182 31ZM74.182 27.9C59.56 27.9 48.8538 31.9939 42.1922 40.2869L42.9718 40.9131C49.3769 32.9395 59.7374 28.9 74.182 28.9V27.9ZM42.1916 40.2876C35.6986 48.4039 32.482 59.5278 32.482 73.6H33.482C33.482 59.6722 36.6655 48.7961 42.9725 40.9123L42.1916 40.2876ZM32.482 73.6C32.482 80.4389 33.2866 86.686 34.9013 92.3374L35.8628 92.0626C34.2775 86.514 33.482 80.3611 33.482 73.6H32.482ZM34.9022 92.3404C36.5184 97.8627 38.9465 102.656 42.1916 106.712L42.9725 106.088C39.8175 102.144 37.4456 97.4706 35.8619 92.0595L34.9022 92.3404ZM42.1916 106.712C45.4409 110.774 49.5023 113.954 54.3685 116.252L54.7955 115.348C50.0618 113.113 46.1232 110.026 42.9725 106.088L42.1916 106.712ZM54.379 116.257C59.2553 118.424 64.927 119.5 71.382 119.5V118.5C65.0371 118.5 59.5088 117.443 54.7851 115.343L54.379 116.257ZM71.382 119.5C74.8543 119.5 77.7975 119.433 80.2098 119.299L80.1543 118.301C77.7666 118.433 74.8431 118.5 71.382 118.5V119.5ZM80.2083 119.299C82.76 119.165 84.9875 118.896 86.8868 118.489L86.6773 117.511C84.8433 117.904 82.6707 118.168 80.1558 118.301L80.2083 119.299ZM87.282 118V69.8H86.282V118H87.282ZM86.782 70.3H117.982V69.3H86.782V70.3ZM117.482 69.8V138.4H118.482V69.8H117.482ZM117.799 137.935C114.111 139.384 108.149 140.91 99.887 142.509L100.077 143.491C108.349 141.89 114.386 140.35 118.165 138.865L117.799 137.935ZM99.8794 142.511C91.6576 144.235 81.4945 145.1 69.382 145.1V146.1C81.5363 146.1 91.7731 145.232 100.085 143.489L99.8794 142.511ZM69.382 145.1C59.0336 145.1 49.6275 143.508 41.1576 140.332L40.8065 141.268C49.4033 144.492 58.9304 146.1 69.382 146.1V145.1ZM41.16 140.333C32.8243 137.157 25.6864 132.53 19.7394 126.45L19.0246 127.15C25.0776 133.337 32.3397 138.043 40.804 141.267L41.16 140.333ZM19.7395 126.45C13.7934 120.372 9.16214 112.9 5.85048 104.025L4.91358 104.375C8.26859 113.366 12.9706 120.961 19.0246 127.15L19.7395 126.45ZM5.85274 104.031C2.67569 95.1621 1.08203 85.0208 1.08203 73.6H0.0820314C0.0820314 85.1125 1.68838 95.3712 4.91132 104.369L5.85274 104.031ZM1.08203 73.6C1.08203 62.0513 2.87408 51.85 6.44579 42.9869L5.51827 42.6131C1.88998 51.6166 0.0820314 61.9487 0.0820314 73.6H1.08203ZM6.44579 42.9869C10.0225 34.1113 14.9191 26.6378 21.1318 20.5573L20.4323 19.8427C14.1116 26.0289 9.14154 33.622 5.51827 42.6131L6.44579 42.9869ZM21.1356 20.5535C27.3517 14.3375 34.6249 9.64251 42.96 6.46723L42.604 5.53274C34.1391 8.75748 26.7457 13.5292 20.4285 19.8464L21.1356 20.5535ZM42.9576 6.46815C51.4318 3.29031 60.4388 1.69999 69.982 1.69999V0.69999C60.3253 0.69999 51.1989 2.30967 42.6065 5.53182L42.9576 6.46815ZM69.982 1.69999C76.4924 1.69999 82.3287 2.16508 87.4937 3.09213L87.6704 2.10786C82.4353 1.16824 76.5383 0.69999 69.982 0.69999V1.69999ZM87.5079 3.09446C92.8236 3.89183 97.329 4.8867 101.029 6.07601L101.335 5.12398C97.5684 3.91329 93.0071 2.90816 87.6562 2.10553L87.5079 3.09446ZM101.049 6.08199C104.898 7.14382 107.998 8.26694 110.358 9.44721L110.806 8.55278C108.366 7.33306 105.199 6.1895 101.315 5.118L101.049 6.08199ZM110.368 9.45187C112.9 10.6511 114.677 11.5739 115.717 12.224L116.247 11.376C115.154 10.6927 113.331 9.74889 110.796 8.54813L110.368 9.45187ZM115.512 11.6306L106.512 36.6306L107.452 36.9694L116.452 11.9694L115.512 11.6306ZM107.217 36.3584C102.913 34.0724 97.9465 32.127 92.3194 30.5192L92.0447 31.4808C97.6176 33.073 102.517 34.9943 106.747 37.2416L107.217 36.3584ZM92.3332 30.5234C86.8113 28.7726 80.7596 27.9 74.182 27.9V28.9C80.6711 28.9 86.6194 29.7608 92.0309 31.4766L92.3332 30.5234ZM175.012 143H174.512V143.5H175.012V143ZM175.012 4.4V3.9H174.512V4.4H175.012ZM268.612 4.4H269.112V3.9H268.612V4.4ZM268.612 30.6V31.1H269.112V30.6H268.612ZM206.212 30.6V30.1H205.712V30.6H206.212ZM206.212 57.8H205.712V58.3H206.212V57.8ZM261.612 57.8H262.112V57.3H261.612V57.8ZM261.612 83.4V83.9H262.112V83.4H261.612ZM206.212 83.4V82.9H205.712V83.4H206.212ZM206.212 116.8H205.712V117.3H206.212V116.8ZM273.212 116.8H273.712V116.3H273.212V116.8ZM273.212 143V143.5H273.712V143H273.212ZM175.512 143V4.4H174.512V143H175.512ZM175.012 4.9H268.612V3.9H175.012V4.9ZM268.112 4.4V30.6H269.112V4.4H268.112ZM268.612 30.1H206.212V31.1H268.612V30.1ZM205.712 30.6V57.8H206.712V30.6H205.712ZM206.212 58.3H261.612V57.3H206.212V58.3ZM261.112 57.8V83.4H262.112V57.8H261.112ZM261.612 82.9H206.212V83.9H261.612V82.9ZM205.712 83.4V116.8H206.712V83.4H205.712ZM206.212 117.3H273.212V116.3H206.212V117.3ZM272.712 116.8V143H273.712V116.8H272.712ZM273.212 142.5H175.012V143.5H273.212V142.5ZM427.101 4.4H427.601V3.9H427.101V4.4ZM427.101 31V31.5H427.601V31H427.101ZM385.301 31V30.5H384.801V31H385.301ZM385.301 143V143.5H385.801V143H385.301ZM354.101 143H353.601V143.5H354.101V143ZM354.101 31H354.601V30.5H354.101V31ZM312.301 31H311.801V31.5H312.301V31ZM312.301 4.4V3.9H311.801V4.4H312.301ZM426.601 4.4V31H427.601V4.4H426.601ZM427.101 30.5H385.301V31.5H427.101V30.5ZM384.801 31V143H385.801V31H384.801ZM385.301 142.5H354.101V143.5H385.301V142.5ZM354.601 143V31H353.601V143H354.601ZM354.101 30.5H312.301V31.5H354.101V30.5ZM312.801 31V4.4H311.801V31H312.801ZM312.301 4.9H427.101V3.9H312.301V4.9ZM643.999 143L643.521 143.146L643.629 143.5H643.999V143ZM638.999 128.2L638.526 128.362L638.53 128.373L638.999 128.2ZM633.799 113L634.272 112.838L634.157 112.5H633.799V113ZM579.799 113V112.5H579.442L579.326 112.838L579.799 113ZM574.399 128.2L573.93 128.027L573.926 128.038L574.399 128.2ZM569.599 143V143.5H569.969L570.077 143.146L569.599 143ZM537.199 143L536.727 142.836L536.496 143.5H537.199V143ZM551.999 101.6L552.468 101.773L552.468 101.773L551.999 101.6ZM565.599 65.8L565.136 65.6124L565.134 65.6172L565.599 65.8ZM578.799 34L578.341 33.8009L578.339 33.8038L578.799 34ZM592.399 4.4V3.9H592.086L591.95 4.1814L592.399 4.4ZM622.199 4.4L622.651 4.18649L622.516 3.9H622.199V4.4ZM635.599 34L635.141 34.1991L635.142 34.2014L635.599 34ZM648.799 65.8L648.334 65.9828L648.336 65.9876L648.799 65.8ZM662.599 101.6L662.13 101.773L662.13 101.773L662.599 101.6ZM677.399 143V143.5H678.103L677.871 142.836L677.399 143ZM606.599 35.8L607.063 35.6143L606.557 34.347L606.125 35.6419L606.599 35.8ZM603.599 44L603.133 43.8205L603.133 43.8205L603.599 44ZM598.999 56L598.532 55.8214L598.532 55.8214L598.999 56ZM593.199 71L592.733 70.8182L592.73 70.8282L593.199 71ZM586.999 88.2L586.528 88.0325L586.291 88.7H586.999V88.2ZM626.399 88.2V88.7H627.108L626.87 88.0325L626.399 88.2ZM620.199 71L619.73 71.1718L619.73 71.1718L620.199 71ZM614.399 56L613.932 56.1786L613.937 56.1904L614.399 56ZM609.799 44L610.266 43.8205L610.266 43.8205L609.799 44ZM644.477 142.854C643.008 138.044 641.338 133.102 639.468 128.027L638.53 128.373C640.394 133.431 642.057 138.356 643.521 143.146L644.477 142.854ZM639.472 128.038C639.353 127.688 639.267 127.438 639.147 127.088C639.109 126.976 639.104 126.962 639.066 126.851C639.063 126.841 639.059 126.831 639.056 126.821C639.053 126.811 639.049 126.801 639.046 126.791C639.042 126.781 639.039 126.771 639.036 126.762C639.032 126.752 639.029 126.742 639.025 126.732C639.022 126.722 639.019 126.712 639.015 126.702C639.012 126.692 639.009 126.682 639.005 126.673C639.002 126.663 638.998 126.653 638.995 126.643C638.992 126.633 638.988 126.623 638.985 126.613C638.946 126.501 638.942 126.488 638.904 126.376C638.865 126.263 638.861 126.251 638.822 126.138C638.705 125.795 638.615 125.532 638.497 125.188C638.38 124.845 638.29 124.582 638.172 124.238C638.055 123.895 637.965 123.632 637.847 123.288C637.73 122.945 637.64 122.682 637.522 122.338C637.405 121.995 637.315 121.732 637.197 121.388C637.08 121.045 636.99 120.782 636.872 120.438C636.852 120.379 636.852 120.379 636.832 120.319C636.811 120.26 636.811 120.26 636.791 120.201C636.771 120.141 636.771 120.142 636.75 120.082C636.73 120.022 636.73 120.023 636.71 119.963C636.689 119.904 636.69 119.904 636.669 119.844C636.649 119.785 636.649 119.785 636.629 119.726C636.608 119.666 636.608 119.667 636.588 119.607C636.568 119.547 636.568 119.548 636.547 119.488C636.527 119.429 636.527 119.429 636.507 119.369C636.486 119.31 636.486 119.31 636.466 119.251C636.446 119.191 636.446 119.192 636.425 119.132C636.405 119.072 636.405 119.073 636.385 119.013C636.364 118.954 636.365 118.954 636.344 118.894C636.324 118.835 636.324 118.835 636.304 118.776C636.283 118.716 636.283 118.717 636.263 118.657C636.243 118.597 636.243 118.598 636.222 118.538C636.202 118.479 636.202 118.479 636.182 118.419C636.161 118.36 636.161 118.36 636.141 118.301C636.121 118.241 636.121 118.242 636.1 118.182C636.08 118.122 636.08 118.123 636.06 118.063C636.039 118.004 636.04 118.004 636.019 117.944C635.999 117.885 635.999 117.885 635.979 117.826C635.958 117.766 635.958 117.767 635.938 117.707C635.918 117.647 635.918 117.648 635.897 117.588C635.877 117.529 635.877 117.529 635.857 117.469C635.836 117.41 635.836 117.41 635.816 117.351C635.796 117.291 635.796 117.292 635.775 117.232C635.755 117.172 635.755 117.173 635.735 117.113C635.714 117.054 635.715 117.054 635.694 116.994C635.674 116.935 635.674 116.935 635.654 116.876C635.633 116.816 635.633 116.817 635.613 116.757C635.593 116.697 635.593 116.698 635.572 116.638C635.552 116.579 635.552 116.579 635.532 116.519C635.511 116.46 635.511 116.46 635.491 116.401C635.471 116.341 635.471 116.342 635.45 116.282C635.43 116.222 635.43 116.223 635.41 116.163C635.389 116.104 635.39 116.104 635.369 116.044C635.349 115.985 635.349 115.985 635.329 115.926C635.308 115.866 635.308 115.867 635.288 115.807C635.268 115.747 635.268 115.748 635.247 115.688C635.227 115.629 635.227 115.629 635.207 115.569C635.186 115.51 635.186 115.51 635.166 115.451C635.146 115.391 635.146 115.392 635.125 115.332C635.105 115.272 635.105 115.273 635.085 115.213C635.064 115.154 635.065 115.154 635.044 115.094C635.024 115.035 635.024 115.035 635.004 114.976C634.983 114.916 634.983 114.917 634.963 114.857C634.943 114.797 634.943 114.798 634.922 114.738C634.902 114.679 634.902 114.679 634.882 114.619C634.861 114.56 634.861 114.56 634.841 114.501C634.821 114.441 634.821 114.442 634.8 114.382C634.78 114.322 634.78 114.323 634.76 114.263C634.739 114.204 634.74 114.204 634.719 114.144C634.699 114.085 634.699 114.085 634.679 114.026C634.658 113.966 634.658 113.967 634.638 113.907C634.618 113.847 634.618 113.848 634.597 113.788C634.577 113.729 634.577 113.729 634.557 113.669C634.536 113.61 634.536 113.61 634.516 113.551C634.496 113.491 634.496 113.492 634.475 113.432C634.455 113.372 634.455 113.373 634.435 113.313C634.414 113.254 634.415 113.254 634.394 113.194C634.374 113.135 634.374 113.135 634.354 113.076C634.333 113.016 634.333 113.017 634.313 112.957C634.293 112.897 634.293 112.898 634.272 112.838L633.326 113.162C633.444 113.505 633.534 113.768 633.651 114.112C633.769 114.455 633.859 114.718 633.976 115.062C634.094 115.405 634.184 115.668 634.301 116.012C634.419 116.355 634.509 116.618 634.626 116.962C634.744 117.305 634.834 117.568 634.951 117.912C635.069 118.255 635.159 118.518 635.276 118.862C635.394 119.205 635.484 119.468 635.601 119.812C635.719 120.155 635.809 120.418 635.926 120.762C635.947 120.821 635.946 120.821 635.967 120.881C635.987 120.94 635.987 120.94 636.007 120.999C636.028 121.059 636.028 121.058 636.048 121.118C636.068 121.178 636.068 121.177 636.089 121.237C636.109 121.296 636.109 121.296 636.129 121.356C636.15 121.415 636.149 121.415 636.17 121.474C636.19 121.534 636.19 121.533 636.211 121.593C636.231 121.653 636.231 121.652 636.251 121.712C636.272 121.771 636.271 121.771 636.292 121.831C636.312 121.89 636.312 121.89 636.332 121.949C636.353 122.009 636.353 122.008 636.373 122.068C636.393 122.128 636.393 122.127 636.414 122.187C636.434 122.246 636.434 122.246 636.454 122.306C636.475 122.365 636.474 122.365 636.495 122.424C636.515 122.484 636.515 122.483 636.536 122.543C636.556 122.603 636.556 122.602 636.576 122.662C636.597 122.721 636.596 122.721 636.617 122.781C636.637 122.84 636.637 122.84 636.657 122.899C636.678 122.959 636.678 122.958 636.698 123.018C636.718 123.078 636.718 123.077 636.739 123.137C636.759 123.196 636.759 123.196 636.779 123.256C636.8 123.315 636.8 123.315 636.82 123.374C636.84 123.434 636.84 123.433 636.861 123.493C636.881 123.553 636.881 123.552 636.901 123.612C636.922 123.671 636.921 123.671 636.942 123.731C636.962 123.79 636.962 123.79 636.982 123.849C637.003 123.909 637.003 123.908 637.023 123.968C637.043 124.028 637.043 124.027 637.064 124.087C637.084 124.146 637.084 124.146 637.104 124.206C637.125 124.265 637.125 124.265 637.145 124.324C637.165 124.384 637.165 124.383 637.186 124.443C637.206 124.503 637.206 124.502 637.226 124.562C637.247 124.621 637.246 124.621 637.267 124.681C637.287 124.74 637.287 124.74 637.307 124.799C637.328 124.859 637.328 124.858 637.348 124.918C637.368 124.978 637.368 124.977 637.389 125.037C637.409 125.096 637.409 125.096 637.429 125.156C637.45 125.215 637.45 125.215 637.47 125.274C637.49 125.334 637.49 125.333 637.511 125.393C637.531 125.453 637.531 125.452 637.551 125.512C637.572 125.571 637.571 125.571 637.592 125.631C637.612 125.69 637.612 125.69 637.632 125.749C637.653 125.809 637.653 125.808 637.673 125.868C637.693 125.928 637.693 125.927 637.714 125.987C637.734 126.046 637.734 126.046 637.754 126.106C637.775 126.165 637.775 126.165 637.795 126.224C637.815 126.284 637.815 126.283 637.836 126.343C637.856 126.403 637.856 126.402 637.876 126.462C637.897 126.521 637.896 126.521 637.917 126.581C637.937 126.64 637.937 126.64 637.957 126.699C637.978 126.759 637.978 126.758 637.998 126.818C638.018 126.878 638.018 126.877 638.039 126.937C638.059 126.996 638.059 126.996 638.079 127.056C638.098 127.11 638.101 127.12 638.12 127.174C638.122 127.181 638.158 127.287 638.161 127.293C638.163 127.299 638.199 127.406 638.201 127.412C638.203 127.418 638.24 127.524 638.242 127.531C638.244 127.537 638.28 127.643 638.282 127.649C638.285 127.658 638.32 127.759 638.323 127.768C638.328 127.784 638.358 127.871 638.364 127.887C638.369 127.903 638.399 127.99 638.404 128.006C638.41 128.022 638.439 128.108 638.445 128.124C638.45 128.14 638.48 128.227 638.486 128.243C638.491 128.259 638.521 128.346 638.526 128.362L639.472 128.038ZM633.799 112.5H579.799V113.5H633.799V112.5ZM579.326 112.838C577.594 117.901 575.795 122.964 573.93 128.027L574.868 128.373C576.736 123.303 578.538 118.232 580.272 113.162L579.326 112.838ZM573.926 128.038C572.191 133.11 570.589 138.048 569.121 142.854L570.077 143.146C571.542 138.352 573.141 133.424 574.872 128.362L573.926 128.038ZM569.599 142.5H537.199V143.5H569.599V142.5ZM537.671 143.164C542.871 128.233 547.803 114.436 552.468 101.773L551.53 101.427C546.862 114.097 541.928 127.9 536.727 142.836L537.671 143.164ZM552.468 101.773C557.134 89.1091 561.666 77.1791 566.065 65.9828L565.134 65.6172C560.732 76.8209 556.198 88.7575 551.53 101.427L552.468 101.773ZM566.063 65.9876C570.595 54.7902 574.994 44.1931 579.259 34.1962L578.339 33.8038C574.071 43.8069 569.67 54.4098 565.136 65.6124L566.063 65.9876ZM579.258 34.1991C583.655 24.0721 588.185 14.2119 592.849 4.61859L591.95 4.1814C587.28 13.788 582.743 23.6612 578.341 33.8009L579.258 34.1991ZM592.399 4.9H622.199V3.9H592.399V4.9ZM621.747 4.6135C626.278 14.2086 630.743 24.0704 635.141 34.1991L636.058 33.8009C631.656 23.6629 627.187 13.7914 622.651 4.18649L621.747 4.6135ZM635.142 34.2014C639.539 44.1947 643.936 54.7884 648.334 65.9828L649.265 65.6172C644.862 54.4116 640.46 43.8053 636.057 33.7986L635.142 34.2014ZM648.336 65.9876C652.867 77.1822 657.465 89.1106 662.13 101.773L663.068 101.427C658.4 88.7561 653.798 76.8178 649.263 65.6124L648.336 65.9876ZM662.13 101.773C666.796 114.436 671.728 128.233 676.927 143.164L677.871 142.836C672.671 127.9 667.736 114.097 663.068 101.427L662.13 101.773ZM677.399 142.5H643.999V143.5H677.399V142.5ZM606.125 35.6419C605.462 37.6313 604.465 40.3565 603.133 43.8205L604.066 44.1795C605.4 40.7102 606.403 37.9687 607.074 35.9581L606.125 35.6419ZM603.133 43.8205C601.799 47.2876 600.266 51.2879 598.532 55.8214L599.466 56.1786C601.199 51.6455 602.733 47.6458 604.066 44.1795L603.133 43.8205ZM598.532 55.8214C596.799 60.3535 594.866 65.3524 592.733 70.8182L593.665 71.1818C595.799 65.7142 597.732 60.7132 599.466 56.1786L598.532 55.8214ZM592.73 70.8282C590.729 76.2964 588.662 82.0312 586.528 88.0325L587.47 88.3675C589.603 82.3688 591.669 76.6369 593.669 71.1718L592.73 70.8282ZM586.999 88.7H626.399V87.7H586.999V88.7ZM626.87 88.0325C624.737 82.0312 622.669 76.2964 620.669 70.8282L619.73 71.1718C621.729 76.6369 623.795 82.3688 625.928 88.3675L626.87 88.0325ZM620.669 70.8282C618.667 65.3564 616.731 60.3501 614.862 55.8096L613.937 56.1904C615.801 60.7165 617.732 65.7102 619.73 71.1718L620.669 70.8282ZM614.866 55.8214C613.133 51.2879 611.599 47.2876 610.266 43.8205L609.333 44.1795C610.666 47.6458 612.199 51.6455 613.932 56.1786L614.866 55.8214ZM610.266 43.8205C608.932 40.353 607.865 37.6173 607.063 35.6143L606.135 35.9857C606.934 37.9827 608 40.7136 609.333 44.1795L610.266 43.8205ZM808.332 19.2L808.812 19.0595L808.707 18.7H808.332V19.2ZM813.532 37.8L813.049 37.93L813.052 37.9411L813.532 37.8ZM819.732 59L819.252 59.1397L819.254 59.1476L819.732 59ZM826.532 81L826.054 81.1477L826.054 81.1477L826.532 81ZM833.132 101.4L832.659 101.561L833.201 103.154L833.617 101.524L833.132 101.4ZM838.332 79.2L837.845 79.0864L837.843 79.0941L838.332 79.2ZM843.532 54.4L843.041 54.3079L843.041 54.3079L843.532 54.4ZM848.132 29L847.641 28.9078L847.639 28.914L848.132 29ZM852.532 4.4V3.9H852.11L852.039 4.31644L852.532 4.4ZM884.932 4.4L885.422 4.4986L885.543 3.9H884.932V4.4ZM868.732 75L868.248 74.8755L868.247 74.8781L868.732 75ZM849.132 143V143.5H849.494L849.607 143.156L849.132 143ZM820.532 143L820.062 143.171L820.182 143.5H820.532V143ZM806.932 102.8L806.455 102.949L806.455 102.95L806.932 102.8ZM793.932 60.4L794.411 60.2555L793.932 58.6699L793.453 60.2555L793.932 60.4ZM781.132 102.8L781.61 102.946L781.611 102.945L781.132 102.8ZM767.732 143V143.5H768.082L768.202 143.171L767.732 143ZM739.132 143L738.657 143.156L738.77 143.5H739.132V143ZM719.332 75L718.847 75.1219L718.848 75.1244L719.332 75ZM703.332 4.4V3.9H702.721L702.842 4.4986L703.332 4.4ZM737.132 4.4L737.625 4.31644L737.554 3.9H737.132V4.4ZM741.532 29L741.041 29.0921L741.041 29.0935L741.532 29ZM746.532 54.4L747.022 54.3005L747.022 54.3005L746.532 54.4ZM751.732 79.2L751.243 79.3059L751.245 79.3136L751.732 79.2ZM757.332 101.4L756.85 101.532L757.263 103.038L757.801 101.572L757.332 101.4ZM764.332 80.6L763.854 80.4523L764.332 80.6ZM776.732 37.4L776.25 37.2676L776.248 37.2765L776.732 37.4ZM781.732 19.2V18.7H781.351L781.25 19.0674L781.732 19.2ZM807.852 19.3404C809.451 24.8029 811.183 30.9993 813.049 37.93L814.015 37.67C812.147 30.734 810.413 24.5304 808.812 19.0595L807.852 19.3404ZM813.052 37.9411C815.052 44.7406 817.119 51.8068 819.252 59.1397L820.212 58.8603C818.079 51.5266 816.012 44.4594 814.012 37.6589L813.052 37.9411ZM819.254 59.1476C821.521 66.481 823.788 73.8143 826.054 81.1477L827.01 80.8523C824.743 73.519 822.476 66.1857 820.21 58.8523L819.254 59.1476ZM826.054 81.1477C828.322 88.4848 830.524 95.2894 832.659 101.561L833.605 101.239C831.474 94.9773 829.275 88.1819 827.01 80.8523L826.054 81.1477ZM833.617 101.524C835.352 94.7168 837.086 87.3108 838.821 79.3059L837.843 79.0941C836.111 87.0892 834.379 94.4832 832.648 101.276L833.617 101.524ZM838.819 79.3136C840.687 71.3061 842.422 63.0323 844.023 54.4921L843.041 54.3079C841.442 62.8344 839.71 71.0939 837.845 79.0864L838.819 79.3136ZM844.023 54.4921C845.624 45.9568 847.158 37.4881 848.625 29.086L847.639 28.914C846.173 37.3119 844.64 45.7765 843.041 54.3079L844.023 54.4921ZM848.623 29.0921C850.224 20.5562 851.691 12.3533 853.025 4.48355L852.039 4.31644C850.706 12.18 849.24 20.3771 847.641 28.9078L848.623 29.0921ZM852.532 4.9H884.932V3.9H852.532V4.9ZM884.442 4.3014C879.777 27.4924 874.379 51.0171 868.248 74.8756L869.216 75.1244C875.352 51.2496 880.754 27.7076 885.422 4.4986L884.442 4.3014ZM868.247 74.8781C862.25 98.7342 855.72 121.389 848.657 142.844L849.607 143.156C856.678 121.677 863.214 98.9992 869.217 75.1219L868.247 74.8781ZM849.132 142.5H820.532V143.5H849.132V142.5ZM821.002 142.829C816.338 130.036 811.807 116.643 807.409 102.65L806.455 102.95C810.857 116.957 815.393 130.364 820.062 143.171L821.002 142.829ZM807.409 102.651C803.01 88.5194 798.677 74.3874 794.411 60.2555L793.453 60.5445C797.72 74.6792 802.054 88.8139 806.455 102.949L807.409 102.651ZM793.453 60.2555C793.445 60.2831 793.437 60.3107 793.428 60.3383C793.42 60.3659 793.412 60.3935 793.403 60.4211C793.395 60.4487 793.387 60.4763 793.378 60.5039C793.37 60.5315 793.362 60.5591 793.353 60.5867C793.345 60.6143 793.337 60.642 793.328 60.6696C793.32 60.6972 793.312 60.7248 793.303 60.7524C793.295 60.78 793.287 60.8076 793.278 60.8352C793.27 60.8628 793.262 60.8904 793.253 60.918C793.245 60.9456 793.237 60.9732 793.228 61.0008C793.22 61.0284 793.212 61.056 793.203 61.0836C793.195 61.1112 793.187 61.1388 793.178 61.1664C793.17 61.194 793.162 61.2216 793.153 61.2492C793.145 61.2768 793.137 61.3045 793.128 61.3321C793.12 61.3597 793.112 61.3873 793.103 61.4149C793.095 61.4425 793.087 61.4701 793.078 61.4977C793.07 61.5253 793.062 61.5529 793.053 61.5805C793.045 61.6081 793.037 61.6357 793.028 61.6633C793.02 61.6909 793.012 61.7185 793.003 61.7461C792.995 61.7737 792.987 61.8013 792.978 61.8289C792.97 61.8565 792.962 61.8841 792.953 61.9117C792.945 61.9393 792.937 61.967 792.928 61.9946C792.92 62.0222 792.912 62.0498 792.903 62.0774C792.895 62.105 792.887 62.1326 792.878 62.1602C792.87 62.1878 792.862 62.2154 792.853 62.243C792.845 62.2706 792.837 62.2982 792.828 62.3258C792.82 62.3534 792.812 62.381 792.803 62.4086C792.795 62.4362 792.787 62.4638 792.778 62.4914C792.77 62.519 792.762 62.5466 792.753 62.5742C792.745 62.6018 792.737 62.6295 792.728 62.6571C792.72 62.6847 792.712 62.7123 792.703 62.7399C792.695 62.7675 792.687 62.7951 792.678 62.8227C792.67 62.8503 792.662 62.8779 792.653 62.9055C792.645 62.9331 792.637 62.9607 792.628 62.9883C792.62 63.0159 792.612 63.0435 792.603 63.0711C792.595 63.0987 792.587 63.1263 792.578 63.1539C792.57 63.1815 792.562 63.2091 792.553 63.2367C792.545 63.2643 792.537 63.292 792.528 63.3196C792.52 63.3472 792.512 63.3748 792.503 63.4024C792.495 63.43 792.487 63.4576 792.478 63.4852C792.47 63.5128 792.462 63.5404 792.453 63.568C792.445 63.5956 792.437 63.6232 792.428 63.6508C792.42 63.6784 792.412 63.706 792.403 63.7336C792.395 63.7612 792.387 63.7888 792.378 63.8164C792.37 63.844 792.362 63.8716 792.353 63.8992C792.345 63.9268 792.337 63.9545 792.328 63.9821C792.32 64.0097 792.312 64.0373 792.303 64.0649C792.295 64.0925 792.287 64.1201 792.278 64.1477C792.27 64.1753 792.262 64.2029 792.253 64.2305C792.245 64.2581 792.237 64.2857 792.228 64.3133C792.22 64.3409 792.212 64.3685 792.203 64.3961C792.195 64.4237 792.187 64.4513 792.178 64.4789C792.17 64.5065 792.162 64.5341 792.153 64.5617C792.145 64.5893 792.137 64.617 792.128 64.6446C792.12 64.6722 792.112 64.6998 792.103 64.7274C792.095 64.755 792.087 64.7826 792.078 64.8102C792.07 64.8378 792.062 64.8654 792.053 64.893C792.045 64.9206 792.037 64.9482 792.028 64.9758C792.02 65.0034 792.012 65.031 792.003 65.0586C791.995 65.0862 791.987 65.1138 791.978 65.1414C791.97 65.169 791.962 65.1966 791.953 65.2242C791.945 65.2518 791.937 65.2795 791.928 65.3071C791.92 65.3347 791.912 65.3623 791.903 65.3899C791.895 65.4175 791.887 65.4451 791.878 65.4727C791.87 65.5003 791.862 65.5279 791.853 65.5555C791.845 65.5831 791.837 65.6107 791.828 65.6383C791.82 65.6659 791.812 65.6935 791.803 65.7211C791.795 65.7487 791.787 65.7763 791.778 65.8039C791.77 65.8315 791.762 65.8591 791.753 65.8867C791.745 65.9143 791.737 65.942 791.728 65.9696C791.72 65.9972 791.712 66.0248 791.703 66.0524C791.695 66.08 791.687 66.1076 791.678 66.1352C791.67 66.1628 791.662 66.1904 791.653 66.218C791.645 66.2456 791.637 66.2732 791.628 66.3008C791.62 66.3284 791.612 66.356 791.603 66.3836C791.595 66.4112 791.587 66.4388 791.578 66.4664C791.57 66.494 791.562 66.5216 791.553 66.5492C791.545 66.5768 791.537 66.6045 791.528 66.6321C791.52 66.6597 791.512 66.6873 791.503 66.7149C791.495 66.7425 791.487 66.7701 791.478 66.7977C791.47 66.8253 791.462 66.8529 791.453 66.8805C791.445 66.9081 791.437 66.9357 791.428 66.9633C791.42 66.9909 791.412 67.0185 791.403 67.0461C791.395 67.0737 791.387 67.1013 791.378 67.1289C791.37 67.1565 791.362 67.1841 791.353 67.2117C791.345 67.2393 791.337 67.267 791.328 67.2946C791.32 67.3222 791.312 67.3498 791.303 67.3774C791.295 67.405 791.287 67.4326 791.278 67.4602C791.27 67.4878 791.262 67.5154 791.253 67.543C791.245 67.5706 791.237 67.5982 791.228 67.6258C791.22 67.6534 791.212 67.681 791.203 67.7086C791.195 67.7362 791.187 67.7638 791.178 67.7914C791.17 67.819 791.162 67.8466 791.153 67.8742C791.145 67.9018 791.137 67.9295 791.128 67.9571C791.12 67.9847 791.112 68.0123 791.103 68.0399C791.095 68.0675 791.087 68.0951 791.078 68.1227C791.07 68.1503 791.062 68.1779 791.053 68.2055C791.045 68.2331 791.037 68.2607 791.028 68.2883C791.02 68.3159 791.012 68.3435 791.003 68.3711C790.995 68.3987 790.987 68.4263 790.978 68.4539C790.97 68.4815 790.962 68.5091 790.953 68.5367C790.945 68.5643 790.937 68.592 790.928 68.6196C790.92 68.6472 790.912 68.6748 790.903 68.7024C790.895 68.73 790.887 68.7576 790.878 68.7852C790.87 68.8128 790.862 68.8404 790.853 68.868C790.845 68.8956 790.837 68.9232 790.828 68.9508C790.82 68.9784 790.812 69.006 790.803 69.0336C790.795 69.0612 790.787 69.0888 790.778 69.1164C790.77 69.144 790.762 69.1716 790.753 69.1992C790.745 69.2268 790.737 69.2545 790.728 69.2821C790.72 69.3097 790.712 69.3373 790.703 69.3649C790.695 69.3925 790.687 69.4201 790.678 69.4477C790.67 69.4753 790.662 69.5029 790.653 69.5305C790.645 69.5581 790.637 69.5857 790.628 69.6133C790.62 69.6409 790.612 69.6685 790.603 69.6961C790.595 69.7237 790.587 69.7513 790.578 69.7789C790.57 69.8065 790.562 69.8341 790.553 69.8617C790.545 69.8893 790.537 69.917 790.528 69.9446C790.52 69.9722 790.512 69.9998 790.503 70.0274C790.495 70.055 790.487 70.0826 790.478 70.1102C790.47 70.1378 790.462 70.1654 790.453 70.193C790.445 70.2206 790.437 70.2482 790.428 70.2758C790.42 70.3034 790.412 70.331 790.403 70.3586C790.395 70.3862 790.387 70.4138 790.378 70.4414C790.37 70.469 790.362 70.4966 790.353 70.5242C790.345 70.5518 790.337 70.5795 790.328 70.6071C790.32 70.6347 790.312 70.6623 790.303 70.6899C790.295 70.7175 790.287 70.7451 790.278 70.7727C790.27 70.8003 790.262 70.8279 790.253 70.8555C790.245 70.8831 790.237 70.9107 790.228 70.9383C790.22 70.9659 790.212 70.9935 790.203 71.0211C790.195 71.0487 790.187 71.0763 790.178 71.1039C790.17 71.1315 790.162 71.1591 790.153 71.1867C790.145 71.2143 790.137 71.242 790.128 71.2696C790.12 71.2972 790.112 71.3248 790.103 71.3524C790.095 71.38 790.087 71.4076 790.078 71.4352C790.07 71.4628 790.062 71.4904 790.053 71.518C790.045 71.5456 790.037 71.5732 790.028 71.6008C790.02 71.6284 790.012 71.656 790.003 71.6836C789.995 71.7112 789.987 71.7388 789.978 71.7664C789.97 71.794 789.962 71.8216 789.953 71.8492C789.945 71.8768 789.937 71.9045 789.928 71.9321C789.92 71.9597 789.912 71.9873 789.903 72.0149C789.895 72.0425 789.887 72.0701 789.878 72.0977C789.87 72.1253 789.862 72.1529 789.853 72.1805C789.845 72.2081 789.837 72.2357 789.828 72.2633C789.82 72.2909 789.812 72.3185 789.803 72.3461C789.795 72.3737 789.787 72.4013 789.778 72.4289C789.77 72.4565 789.762 72.4841 789.753 72.5117C789.745 72.5393 789.737 72.567 789.728 72.5946C789.72 72.6222 789.712 72.6498 789.703 72.6774C789.695 72.705 789.687 72.7326 789.678 72.7602C789.67 72.7878 789.662 72.8154 789.653 72.843C789.645 72.8706 789.637 72.8982 789.628 72.9258C789.62 72.9534 789.612 72.981 789.603 73.0086C789.595 73.0362 789.587 73.0638 789.578 73.0914C789.57 73.119 789.562 73.1466 789.553 73.1742C789.545 73.2018 789.537 73.2295 789.528 73.2571C789.52 73.2847 789.512 73.3123 789.503 73.3399C789.495 73.3675 789.487 73.3951 789.478 73.4227C789.47 73.4503 789.462 73.4779 789.453 73.5055C789.445 73.5331 789.437 73.5607 789.428 73.5883C789.42 73.6159 789.412 73.6435 789.403 73.6711C789.395 73.6987 789.387 73.7263 789.378 73.7539C789.37 73.7815 789.362 73.8091 789.353 73.8367C789.345 73.8643 789.337 73.892 789.328 73.9196C789.32 73.9472 789.312 73.9748 789.303 74.0024C789.295 74.03 789.287 74.0576 789.278 74.0852C789.27 74.1128 789.262 74.1404 789.253 74.168C789.245 74.1956 789.237 74.2232 789.228 74.2508C789.22 74.2784 789.212 74.306 789.203 74.3336C789.195 74.3612 789.187 74.3888 789.178 74.4164C789.17 74.444 789.162 74.4716 789.153 74.4992C789.145 74.5268 789.137 74.5545 789.128 74.5821C789.12 74.6097 789.112 74.6373 789.103 74.6649C789.095 74.6925 789.087 74.7201 789.078 74.7477C789.07 74.7753 789.062 74.8029 789.053 74.8305C789.045 74.8581 789.037 74.8857 789.028 74.9133C789.02 74.9409 789.012 74.9685 789.003 74.9961C788.995 75.0237 788.987 75.0513 788.978 75.0789C788.97 75.1065 788.962 75.1341 788.953 75.1617C788.945 75.1893 788.937 75.217 788.928 75.2446C788.92 75.2722 788.912 75.2998 788.903 75.3274C788.895 75.355 788.887 75.3826 788.878 75.4102C788.87 75.4378 788.862 75.4654 788.853 75.493C788.845 75.5206 788.837 75.5482 788.828 75.5758C788.82 75.6034 788.812 75.631 788.803 75.6586C788.795 75.6862 788.787 75.7138 788.778 75.7414C788.77 75.769 788.762 75.7966 788.753 75.8242C788.745 75.8518 788.737 75.8795 788.728 75.9071C788.72 75.9347 788.712 75.9623 788.703 75.9899C788.695 76.0175 788.687 76.0451 788.678 76.0727C788.67 76.1003 788.662 76.1279 788.653 76.1555C788.645 76.1831 788.637 76.2107 788.628 76.2383C788.62 76.2659 788.612 76.2935 788.603 76.3211C788.595 76.3487 788.587 76.3763 788.578 76.4039C788.57 76.4315 788.562 76.4591 788.553 76.4867C788.545 76.5143 788.537 76.542 788.528 76.5696C788.52 76.5972 788.512 76.6248 788.503 76.6524C788.495 76.68 788.487 76.7076 788.478 76.7352C788.47 76.7628 788.462 76.7904 788.453 76.818C788.445 76.8456 788.437 76.8732 788.428 76.9008C788.42 76.9284 788.412 76.956 788.403 76.9836C788.395 77.0112 788.387 77.0388 788.378 77.0664C788.37 77.094 788.362 77.1216 788.353 77.1492C788.345 77.1768 788.337 77.2045 788.328 77.2321C788.32 77.2597 788.312 77.2873 788.303 77.3149C788.295 77.3425 788.287 77.3701 788.278 77.3977C788.27 77.4253 788.262 77.4529 788.253 77.4805C788.245 77.5081 788.237 77.5357 788.228 77.5633C788.22 77.5909 788.212 77.6185 788.203 77.6461C788.195 77.6737 788.187 77.7013 788.178 77.7289C788.17 77.7565 788.162 77.7841 788.153 77.8117C788.145 77.8393 788.137 77.867 788.128 77.8946C788.12 77.9222 788.112 77.9498 788.103 77.9774C788.095 78.005 788.087 78.0326 788.078 78.0602C788.07 78.0878 788.062 78.1154 788.053 78.143C788.045 78.1706 788.037 78.1982 788.028 78.2258C788.02 78.2534 788.012 78.281 788.003 78.3086C787.995 78.3362 787.987 78.3638 787.978 78.3914C787.97 78.419 787.962 78.4466 787.953 78.4742C787.945 78.5018 787.937 78.5295 787.928 78.5571C787.92 78.5847 787.912 78.6123 787.903 78.6399C787.895 78.6675 787.887 78.6951 787.878 78.7227C787.87 78.7503 787.862 78.7779 787.853 78.8055C787.845 78.8331 787.837 78.8607 787.828 78.8883C787.82 78.9159 787.812 78.9435 787.803 78.9711C787.795 78.9987 787.787 79.0263 787.778 79.0539C787.77 79.0815 787.762 79.1091 787.753 79.1367C787.745 79.1643 787.737 79.192 787.728 79.2196C787.72 79.2472 787.712 79.2748 787.703 79.3024C787.695 79.33 787.687 79.3576 787.678 79.3852C787.67 79.4128 787.662 79.4404 787.653 79.468C787.645 79.4956 787.637 79.5232 787.628 79.5508C787.62 79.5784 787.612 79.606 787.603 79.6336C787.595 79.6612 787.587 79.6888 787.578 79.7164C787.57 79.744 787.562 79.7716 787.553 79.7992C787.545 79.8268 787.537 79.8545 787.528 79.8821C787.52 79.9097 787.512 79.9373 787.503 79.9649C787.495 79.9925 787.487 80.0201 787.478 80.0477C787.47 80.0753 787.462 80.1029 787.453 80.1305C787.445 80.1581 787.437 80.1857 787.428 80.2133C787.42 80.2409 787.412 80.2685 787.403 80.2961C787.395 80.3237 787.387 80.3513 787.378 80.3789C787.37 80.4065 787.362 80.4341 787.353 80.4617C787.345 80.4893 787.337 80.517 787.328 80.5446C787.32 80.5722 787.312 80.5998 787.303 80.6274C787.295 80.655 787.287 80.6826 787.278 80.7102C787.27 80.7378 787.262 80.7654 787.253 80.793C787.245 80.8206 787.237 80.8482 787.228 80.8758C787.22 80.9034 787.212 80.931 787.203 80.9586C787.195 80.9862 787.187 81.0138 787.178 81.0414C787.17 81.069 787.162 81.0966 787.153 81.1242C787.145 81.1518 787.137 81.1795 787.128 81.2071C787.12 81.2347 787.112 81.2623 787.103 81.2899C787.095 81.3175 787.087 81.3451 787.078 81.3727C787.07 81.4003 787.062 81.4279 787.053 81.4555C787.045 81.4831 787.037 81.5107 787.028 81.5383C787.02 81.5659 787.012 81.5935 787.003 81.6211C786.995 81.6487 786.987 81.6763 786.978 81.7039C786.97 81.7315 786.962 81.7591 786.953 81.7867C786.945 81.8143 786.937 81.842 786.928 81.8696C786.92 81.8972 786.912 81.9248 786.903 81.9524C786.895 81.98 786.887 82.0076 786.878 82.0352C786.87 82.0628 786.862 82.0904 786.853 82.118C786.845 82.1456 786.837 82.1732 786.828 82.2008C786.82 82.2284 786.812 82.256 786.803 82.2836C786.795 82.3112 786.787 82.3388 786.778 82.3664C786.77 82.394 786.762 82.4216 786.753 82.4492C786.745 82.4768 786.737 82.5045 786.728 82.5321C786.72 82.5597 786.712 82.5873 786.703 82.6149C786.695 82.6425 786.687 82.6701 786.678 82.6977C786.67 82.7253 786.662 82.7529 786.653 82.7805C786.645 82.8081 786.637 82.8357 786.628 82.8633C786.62 82.8909 786.612 82.9185 786.603 82.9461C786.595 82.9737 786.587 83.0013 786.578 83.0289C786.57 83.0565 786.562 83.0841 786.553 83.1117C786.545 83.1393 786.537 83.167 786.528 83.1946C786.52 83.2222 786.512 83.2498 786.503 83.2774C786.495 83.305 786.487 83.3326 786.478 83.3602C786.47 83.3878 786.462 83.4154 786.453 83.443C786.445 83.4706 786.437 83.4982 786.428 83.5258C786.42 83.5534 786.412 83.581 786.403 83.6086C786.395 83.6362 786.387 83.6638 786.378 83.6914C786.37 83.719 786.362 83.7466 786.353 83.7742C786.345 83.8018 786.337 83.8295 786.328 83.8571C786.32 83.8847 786.312 83.9123 786.303 83.9399C786.295 83.9675 786.287 83.9951 786.278 84.0227C786.27 84.0503 786.262 84.0779 786.253 84.1055C786.245 84.1331 786.237 84.1607 786.228 84.1883C786.22 84.2159 786.212 84.2435 786.203 84.2711C786.195 84.2987 786.187 84.3263 786.178 84.3539C786.17 84.3815 786.162 84.4091 786.153 84.4367C786.145 84.4643 786.137 84.492 786.128 84.5196C786.12 84.5472 786.112 84.5748 786.103 84.6024C786.095 84.63 786.087 84.6576 786.078 84.6852C786.07 84.7128 786.062 84.7404 786.053 84.768C786.045 84.7956 786.037 84.8232 786.028 84.8508C786.02 84.8784 786.012 84.906 786.003 84.9336C785.995 84.9612 785.987 84.9888 785.978 85.0164C785.97 85.044 785.962 85.0716 785.953 85.0992C785.945 85.1268 785.937 85.1545 785.928 85.1821C785.92 85.2097 785.912 85.2373 785.903 85.2649C785.895 85.2925 785.887 85.3201 785.878 85.3477C785.87 85.3753 785.862 85.4029 785.853 85.4305C785.845 85.4581 785.837 85.4857 785.828 85.5133C785.82 85.5409 785.812 85.5685 785.803 85.5961C785.795 85.6237 785.787 85.6513 785.778 85.6789C785.77 85.7065 785.762 85.7341 785.753 85.7617C785.745 85.7893 785.737 85.817 785.728 85.8446C785.72 85.8722 785.712 85.8998 785.703 85.9274C785.695 85.955 785.687 85.9826 785.678 86.0102C785.67 86.0378 785.662 86.0654 785.653 86.093C785.645 86.1206 785.637 86.1482 785.628 86.1758C785.62 86.2034 785.612 86.231 785.603 86.2586C785.595 86.2862 785.587 86.3138 785.578 86.3414C785.57 86.369 785.562 86.3966 785.553 86.4242C785.545 86.4518 785.537 86.4795 785.528 86.5071C785.52 86.5347 785.512 86.5623 785.503 86.5899C785.495 86.6175 785.487 86.6451 785.478 86.6727C785.47 86.7003 785.462 86.7279 785.453 86.7555C785.445 86.7831 785.437 86.8107 785.428 86.8383C785.42 86.8659 785.412 86.8935 785.403 86.9211C785.395 86.9487 785.387 86.9763 785.378 87.0039C785.37 87.0315 785.362 87.0591 785.353 87.0867C785.345 87.1143 785.337 87.142 785.328 87.1696C785.32 87.1972 785.312 87.2248 785.303 87.2524C785.295 87.28 785.287 87.3076 785.278 87.3352C785.27 87.3628 785.262 87.3904 785.253 87.418C785.245 87.4456 785.237 87.4732 785.228 87.5008C785.22 87.5284 785.212 87.556 785.203 87.5836C785.195 87.6112 785.187 87.6388 785.178 87.6664C785.17 87.694 785.162 87.7216 785.153 87.7492C785.145 87.7768 785.137 87.8045 785.128 87.8321C785.12 87.8597 785.112 87.8873 785.103 87.9149C785.095 87.9425 785.087 87.9701 785.078 87.9977C785.07 88.0253 785.062 88.0529 785.053 88.0805C785.045 88.1081 785.037 88.1357 785.028 88.1633C785.02 88.1909 785.012 88.2185 785.003 88.2461C784.995 88.2737 784.987 88.3013 784.978 88.3289C784.97 88.3565 784.962 88.3841 784.953 88.4117C784.945 88.4394 784.937 88.467 784.928 88.4946C784.92 88.5222 784.912 88.5498 784.903 88.5774C784.895 88.605 784.887 88.6326 784.878 88.6602C784.87 88.6878 784.862 88.7154 784.853 88.743C784.845 88.7706 784.837 88.7982 784.828 88.8258C784.82 88.8534 784.812 88.881 784.803 88.9086C784.795 88.9362 784.787 88.9638 784.778 88.9914C784.77 89.019 784.762 89.0466 784.753 89.0742C784.745 89.1019 784.737 89.1295 784.728 89.1571C784.72 89.1847 784.712 89.2123 784.703 89.2399C784.695 89.2675 784.687 89.2951 784.678 89.3227C784.67 89.3503 784.662 89.3779 784.653 89.4055C784.645 89.4331 784.637 89.4607 784.628 89.4883C784.62 89.5159 784.612 89.5435 784.603 89.5711C784.595 89.5987 784.587 89.6263 784.578 89.6539C784.57 89.6815 784.562 89.7091 784.553 89.7367C784.545 89.7644 784.537 89.792 784.528 89.8196C784.52 89.8472 784.512 89.8748 784.503 89.9024C784.495 89.93 784.487 89.9576 784.478 89.9852C784.47 90.0128 784.462 90.0404 784.453 90.068C784.445 90.0956 784.437 90.1232 784.428 90.1508C784.42 90.1784 784.412 90.206 784.403 90.2336C784.395 90.2612 784.387 90.2888 784.378 90.3164C784.37 90.344 784.362 90.3716 784.353 90.3992C784.345 90.4269 784.337 90.4545 784.328 90.4821C784.32 90.5097 784.312 90.5373 784.303 90.5649C784.295 90.5925 784.287 90.6201 784.278 90.6477C784.27 90.6753 784.262 90.7029 784.253 90.7305C784.245 90.7581 784.237 90.7857 784.228 90.8133C784.22 90.8409 784.212 90.8685 784.203 90.8961C784.195 90.9237 784.187 90.9513 784.178 90.9789C784.17 91.0065 784.162 91.0341 784.153 91.0617C784.145 91.0894 784.137 91.117 784.128 91.1446C784.12 91.1722 784.112 91.1998 784.103 91.2274C784.095 91.255 784.087 91.2826 784.078 91.3102C784.07 91.3378 784.062 91.3654 784.053 91.393C784.045 91.4206 784.037 91.4482 784.028 91.4758C784.02 91.5034 784.012 91.531 784.003 91.5586C783.995 91.5862 783.987 91.6138 783.978 91.6414C783.97 91.669 783.962 91.6966 783.953 91.7242C783.945 91.7519 783.937 91.7795 783.928 91.8071C783.92 91.8347 783.912 91.8623 783.903 91.8899C783.895 91.9175 783.887 91.9451 783.878 91.9727C783.87 92.0003 783.862 92.0279 783.853 92.0555C783.845 92.0831 783.837 92.1107 783.828 92.1383C783.82 92.1659 783.812 92.1935 783.803 92.2211C783.795 92.2487 783.787 92.2763 783.778 92.3039C783.77 92.3315 783.762 92.3591 783.753 92.3867C783.745 92.4144 783.737 92.442 783.728 92.4696C783.72 92.4972 783.712 92.5248 783.703 92.5524C783.695 92.58 783.687 92.6076 783.678 92.6352C783.67 92.6628 783.662 92.6904 783.653 92.718C783.645 92.7456 783.637 92.7732 783.628 92.8008C783.62 92.8284 783.612 92.856 783.603 92.8836C783.595 92.9112 783.587 92.9388 783.578 92.9664C783.57 92.994 783.562 93.0216 783.553 93.0492C783.545 93.0769 783.537 93.1045 783.528 93.1321C783.52 93.1597 783.512 93.1873 783.503 93.2149C783.495 93.2425 783.487 93.2701 783.478 93.2977C783.47 93.3253 783.462 93.3529 783.453 93.3805C783.445 93.4081 783.437 93.4357 783.428 93.4633C783.42 93.4909 783.412 93.5185 783.403 93.5461C783.395 93.5737 783.387 93.6013 783.378 93.6289C783.37 93.6565 783.362 93.6841 783.353 93.7117C783.345 93.7394 783.337 93.767 783.328 93.7946C783.32 93.8222 783.312 93.8498 783.303 93.8774C783.295 93.905 783.287 93.9326 783.278 93.9602C783.27 93.9878 783.262 94.0154 783.253 94.043C783.245 94.0706 783.237 94.0982 783.228 94.1258C783.22 94.1534 783.212 94.181 783.203 94.2086C783.195 94.2362 783.187 94.2638 783.178 94.2914C783.17 94.319 783.162 94.3466 783.153 94.3742C783.145 94.4019 783.137 94.4295 783.128 94.4571C783.12 94.4847 783.112 94.5123 783.103 94.5399C783.095 94.5675 783.087 94.5951 783.078 94.6227C783.07 94.6503 783.062 94.6779 783.053 94.7055C783.045 94.7331 783.037 94.7607 783.028 94.7883C783.02 94.8159 783.012 94.8435 783.003 94.8711C782.995 94.8987 782.987 94.9263 782.978 94.9539C782.97 94.9815 782.962 95.0091 782.953 95.0367C782.945 95.0644 782.937 95.092 782.928 95.1196C782.92 95.1472 782.912 95.1748 782.903 95.2024C782.895 95.23 782.887 95.2576 782.878 95.2852C782.87 95.3128 782.862 95.3404 782.853 95.368C782.845 95.3956 782.837 95.4232 782.828 95.4508C782.82 95.4784 782.812 95.506 782.803 95.5336C782.795 95.5612 782.787 95.5888 782.778 95.6164C782.77 95.644 782.762 95.6716 782.753 95.6992C782.745 95.7269 782.737 95.7545 782.728 95.7821C782.72 95.8097 782.712 95.8373 782.703 95.8649C782.695 95.8925 782.687 95.9201 782.678 95.9477C782.67 95.9753 782.662 96.0029 782.653 96.0305C782.645 96.0581 782.637 96.0857 782.628 96.1133C782.62 96.1409 782.612 96.1685 782.603 96.1961C782.595 96.2237 782.587 96.2513 782.578 96.2789C782.57 96.3065 782.562 96.3341 782.553 96.3617C782.545 96.3894 782.537 96.417 782.528 96.4446C782.52 96.4722 782.512 96.4998 782.503 96.5274C782.495 96.555 782.487 96.5826 782.478 96.6102C782.47 96.6378 782.462 96.6654 782.453 96.693C782.445 96.7206 782.437 96.7482 782.428 96.7758C782.42 96.8034 782.412 96.831 782.403 96.8586C782.395 96.8862 782.387 96.9138 782.378 96.9414C782.37 96.969 782.362 96.9966 782.353 97.0242C782.345 97.0519 782.337 97.0795 782.328 97.1071C782.32 97.1347 782.312 97.1623 782.303 97.1899C782.295 97.2175 782.287 97.2451 782.278 97.2727C782.27 97.3003 782.262 97.3279 782.253 97.3555C782.245 97.3831 782.237 97.4107 782.228 97.4383C782.22 97.4659 782.212 97.4935 782.203 97.5211C782.195 97.5487 782.187 97.5763 782.178 97.6039C782.17 97.6315 782.162 97.6591 782.153 97.6867C782.145 97.7144 782.137 97.742 782.128 97.7696C782.12 97.7972 782.112 97.8248 782.103 97.8524C782.095 97.88 782.087 97.9076 782.078 97.9352C782.07 97.9628 782.062 97.9904 782.053 98.018C782.045 98.0456 782.037 98.0732 782.028 98.1008C782.02 98.1284 782.012 98.156 782.003 98.1836C781.995 98.2112 781.987 98.2388 781.978 98.2664C781.97 98.294 781.962 98.3216 781.953 98.3492C781.945 98.3769 781.937 98.4045 781.928 98.4321C781.92 98.4597 781.912 98.4873 781.903 98.5149C781.895 98.5425 781.887 98.5701 781.878 98.5977C781.87 98.6253 781.862 98.6529 781.853 98.6805C781.845 98.7081 781.837 98.7357 781.828 98.7633C781.82 98.7909 781.812 98.8185 781.803 98.8461C781.795 98.8737 781.787 98.9013 781.778 98.9289C781.77 98.9565 781.762 98.9841 781.753 99.0117C781.745 99.0394 781.737 99.067 781.728 99.0946C781.72 99.1222 781.712 99.1498 781.703 99.1774C781.695 99.205 781.687 99.2326 781.678 99.2602C781.67 99.2878 781.662 99.3154 781.653 99.343C781.645 99.3706 781.637 99.3982 781.628 99.4258C781.62 99.4534 781.612 99.481 781.603 99.5086C781.595 99.5362 781.587 99.5638 781.578 99.5914C781.57 99.619 781.562 99.6466 781.553 99.6742C781.545 99.7019 781.537 99.7295 781.528 99.7571C781.52 99.7847 781.512 99.8123 781.503 99.8399C781.495 99.8675 781.487 99.8951 781.478 99.9227C781.47 99.9503 781.462 99.9779 781.453 100.005C781.445 100.033 781.437 100.061 781.428 100.088C781.42 100.116 781.412 100.144 781.403 100.171C781.395 100.199 781.387 100.226 781.378 100.254C781.37 100.282 781.362 100.309 781.353 100.337C781.345 100.364 781.337 100.392 781.328 100.42C781.32 100.447 781.312 100.475 781.303 100.502C781.295 100.53 781.287 100.558 781.278 100.585C781.27 100.613 781.262 100.64 781.253 100.668C781.245 100.696 781.237 100.723 781.228 100.751C781.22 100.778 781.212 100.806 781.203 100.834C781.195 100.861 781.187 100.889 781.178 100.916C781.17 100.944 781.162 100.972 781.153 100.999C781.145 101.027 781.137 101.054 781.128 101.082C781.12 101.11 781.112 101.137 781.103 101.165C781.095 101.192 781.087 101.22 781.078 101.248C781.07 101.275 781.062 101.303 781.053 101.33C781.045 101.358 781.037 101.386 781.028 101.413C781.02 101.441 781.012 101.469 781.003 101.496C780.995 101.524 780.987 101.551 780.978 101.579C780.97 101.607 780.962 101.634 780.953 101.662C780.945 101.689 780.937 101.717 780.928 101.745C780.92 101.772 780.912 101.8 780.903 101.827C780.895 101.855 780.887 101.883 780.878 101.91C780.87 101.938 780.862 101.965 780.853 101.993C780.845 102.021 780.837 102.048 780.828 102.076C780.82 102.103 780.812 102.131 780.803 102.159C780.795 102.186 780.787 102.214 780.778 102.241C780.77 102.269 780.762 102.297 780.753 102.324C780.745 102.352 780.737 102.379 780.728 102.407C780.72 102.435 780.712 102.462 780.703 102.49C780.695 102.517 780.687 102.545 780.678 102.573C780.67 102.6 780.662 102.628 780.653 102.655L781.611 102.945C781.619 102.917 781.627 102.889 781.636 102.862C781.644 102.834 781.652 102.806 781.661 102.779C781.669 102.751 781.677 102.724 781.686 102.696C781.694 102.668 781.702 102.641 781.711 102.613C781.719 102.586 781.727 102.558 781.736 102.53C781.744 102.503 781.752 102.475 781.761 102.448C781.769 102.42 781.777 102.392 781.786 102.365C781.794 102.337 781.802 102.31 781.811 102.282C781.819 102.254 781.827 102.227 781.836 102.199C781.844 102.172 781.852 102.144 781.861 102.116C781.869 102.089 781.877 102.061 781.886 102.034C781.894 102.006 781.902 101.978 781.911 101.951C781.919 101.923 781.927 101.896 781.936 101.868C781.944 101.84 781.952 101.813 781.961 101.785C781.969 101.758 781.977 101.73 781.986 101.702C781.994 101.675 782.002 101.647 782.011 101.62C782.019 101.592 782.027 101.564 782.036 101.537C782.044 101.509 782.052 101.481 782.061 101.454C782.069 101.426 782.077 101.399 782.086 101.371C782.094 101.343 782.102 101.316 782.111 101.288C782.119 101.261 782.127 101.233 782.136 101.205C782.144 101.178 782.152 101.15 782.161 101.123C782.169 101.095 782.177 101.067 782.186 101.04C782.194 101.012 782.202 100.985 782.211 100.957C782.219 100.929 782.227 100.902 782.236 100.874C782.244 100.847 782.252 100.819 782.261 100.791C782.269 100.764 782.277 100.736 782.286 100.709C782.294 100.681 782.302 100.653 782.311 100.626C782.319 100.598 782.327 100.571 782.336 100.543C782.344 100.515 782.352 100.488 782.361 100.46C782.369 100.433 782.377 100.405 782.386 100.377C782.394 100.35 782.402 100.322 782.411 100.295C782.419 100.267 782.427 100.239 782.436 100.212C782.444 100.184 782.452 100.156 782.461 100.129C782.469 100.101 782.477 100.074 782.486 100.046C782.494 100.018 782.502 99.9909 782.511 99.9633C782.519 99.9356 782.527 99.908 782.536 99.8804C782.544 99.8528 782.552 99.8252 782.561 99.7976C782.569 99.77 782.577 99.7424 782.586 99.7148C782.594 99.6872 782.602 99.6596 782.611 99.632C782.619 99.6044 782.627 99.5768 782.636 99.5492C782.644 99.5216 782.652 99.494 782.661 99.4664C782.669 99.4388 782.677 99.4112 782.686 99.3836C782.694 99.356 782.702 99.3284 782.711 99.3008C782.719 99.2731 782.727 99.2455 782.736 99.2179C782.744 99.1903 782.752 99.1627 782.761 99.1351C782.769 99.1075 782.777 99.0799 782.786 99.0523C782.794 99.0247 782.802 98.9971 782.811 98.9695C782.819 98.9419 782.827 98.9143 782.836 98.8867C782.844 98.8591 782.852 98.8315 782.861 98.8039C782.869 98.7763 782.877 98.7487 782.886 98.7211C782.894 98.6935 782.902 98.6659 782.911 98.6383C782.919 98.6106 782.927 98.583 782.936 98.5554C782.944 98.5278 782.952 98.5002 782.961 98.4726C782.969 98.445 782.977 98.4174 782.986 98.3898C782.994 98.3622 783.002 98.3346 783.011 98.307C783.019 98.2794 783.027 98.2518 783.036 98.2242C783.044 98.1966 783.052 98.169 783.061 98.1414C783.069 98.1138 783.077 98.0862 783.086 98.0586C783.094 98.031 783.102 98.0034 783.111 97.9758C783.119 97.9481 783.127 97.9205 783.136 97.8929C783.144 97.8653 783.152 97.8377 783.161 97.8101C783.169 97.7825 783.177 97.7549 783.186 97.7273C783.194 97.6997 783.202 97.6721 783.211 97.6445C783.219 97.6169 783.227 97.5893 783.236 97.5617C783.244 97.5341 783.252 97.5065 783.261 97.4789C783.269 97.4513 783.277 97.4237 783.286 97.3961C783.294 97.3685 783.302 97.3409 783.311 97.3133C783.319 97.2856 783.327 97.258 783.336 97.2304C783.344 97.2028 783.352 97.1752 783.361 97.1476C783.369 97.12 783.377 97.0924 783.386 97.0648C783.394 97.0372 783.402 97.0096 783.411 96.982C783.419 96.9544 783.427 96.9268 783.436 96.8992C783.444 96.8716 783.452 96.844 783.461 96.8164C783.469 96.7888 783.477 96.7612 783.486 96.7336C783.494 96.706 783.502 96.6784 783.511 96.6508C783.519 96.6231 783.527 96.5955 783.536 96.5679C783.544 96.5403 783.552 96.5127 783.561 96.4851C783.569 96.4575 783.577 96.4299 783.586 96.4023C783.594 96.3747 783.602 96.3471 783.611 96.3195C783.619 96.2919 783.627 96.2643 783.636 96.2367C783.644 96.2091 783.652 96.1815 783.661 96.1539C783.669 96.1263 783.677 96.0987 783.686 96.0711C783.694 96.0435 783.702 96.0159 783.711 95.9883C783.719 95.9606 783.727 95.933 783.736 95.9054C783.744 95.8778 783.752 95.8502 783.761 95.8226C783.769 95.795 783.777 95.7674 783.786 95.7398C783.794 95.7122 783.802 95.6846 783.811 95.657C783.819 95.6294 783.827 95.6018 783.836 95.5742C783.844 95.5466 783.852 95.519 783.861 95.4914C783.869 95.4638 783.877 95.4362 783.886 95.4086C783.894 95.381 783.902 95.3534 783.911 95.3258C783.919 95.2981 783.927 95.2705 783.936 95.2429C783.944 95.2153 783.952 95.1877 783.961 95.1601C783.969 95.1325 783.977 95.1049 783.986 95.0773C783.994 95.0497 784.002 95.0221 784.011 94.9945C784.019 94.9669 784.027 94.9393 784.036 94.9117C784.044 94.8841 784.052 94.8565 784.061 94.8289C784.069 94.8013 784.077 94.7737 784.086 94.7461C784.094 94.7185 784.102 94.6909 784.111 94.6633C784.119 94.6356 784.127 94.608 784.136 94.5804C784.144 94.5528 784.152 94.5252 784.161 94.4976C784.169 94.47 784.177 94.4424 784.186 94.4148C784.194 94.3872 784.202 94.3596 784.211 94.332C784.219 94.3044 784.227 94.2768 784.236 94.2492C784.244 94.2216 784.252 94.194 784.261 94.1664C784.269 94.1388 784.277 94.1112 784.286 94.0836C784.294 94.056 784.302 94.0284 784.311 94.0008C784.319 93.9731 784.327 93.9455 784.336 93.9179C784.344 93.8903 784.352 93.8627 784.361 93.8351C784.369 93.8075 784.377 93.7799 784.386 93.7523C784.394 93.7247 784.402 93.6971 784.411 93.6695C784.419 93.6419 784.427 93.6143 784.436 93.5867C784.444 93.5591 784.452 93.5315 784.461 93.5039C784.469 93.4763 784.477 93.4487 784.486 93.4211C784.494 93.3935 784.502 93.3659 784.511 93.3383C784.519 93.3106 784.527 93.283 784.536 93.2554C784.544 93.2278 784.552 93.2002 784.561 93.1726C784.569 93.145 784.577 93.1174 784.586 93.0898C784.594 93.0622 784.602 93.0346 784.611 93.007C784.619 92.9794 784.627 92.9518 784.636 92.9242C784.644 92.8966 784.652 92.869 784.661 92.8414C784.669 92.8138 784.677 92.7862 784.686 92.7586C784.694 92.731 784.702 92.7034 784.711 92.6758C784.719 92.6481 784.727 92.6205 784.736 92.5929C784.744 92.5653 784.752 92.5377 784.761 92.5101C784.769 92.4825 784.777 92.4549 784.786 92.4273C784.794 92.3997 784.802 92.3721 784.811 92.3445C784.819 92.3169 784.827 92.2893 784.836 92.2617C784.844 92.2341 784.852 92.2065 784.861 92.1789C784.869 92.1513 784.877 92.1237 784.886 92.0961C784.894 92.0685 784.902 92.0409 784.911 92.0133C784.919 91.9856 784.927 91.958 784.936 91.9304C784.944 91.9028 784.952 91.8752 784.961 91.8476C784.969 91.82 784.977 91.7924 784.986 91.7648C784.994 91.7372 785.002 91.7096 785.011 91.682C785.019 91.6544 785.027 91.6268 785.036 91.5992C785.044 91.5716 785.052 91.544 785.061 91.5164C785.069 91.4888 785.077 91.4612 785.086 91.4336C785.094 91.406 785.102 91.3784 785.111 91.3508C785.119 91.3231 785.127 91.2955 785.136 91.2679C785.144 91.2403 785.152 91.2127 785.161 91.1851C785.169 91.1575 785.177 91.1299 785.186 91.1023C785.194 91.0747 785.202 91.0471 785.211 91.0195C785.219 90.9919 785.227 90.9643 785.236 90.9367C785.244 90.9091 785.252 90.8815 785.261 90.8539C785.269 90.8263 785.277 90.7987 785.286 90.7711C785.294 90.7435 785.302 90.7159 785.311 90.6883C785.319 90.6606 785.327 90.633 785.336 90.6054C785.344 90.5778 785.352 90.5502 785.361 90.5226C785.369 90.495 785.377 90.4674 785.386 90.4398C785.394 90.4122 785.402 90.3846 785.411 90.357C785.419 90.3294 785.427 90.3018 785.436 90.2742C785.444 90.2466 785.452 90.219 785.461 90.1914C785.469 90.1638 785.477 90.1362 785.486 90.1086C785.494 90.081 785.502 90.0534 785.511 90.0258C785.519 89.9981 785.527 89.9705 785.536 89.9429C785.544 89.9153 785.552 89.8877 785.561 89.8601C785.569 89.8325 785.577 89.8049 785.586 89.7773C785.594 89.7497 785.602 89.7221 785.611 89.6945C785.619 89.6669 785.627 89.6393 785.636 89.6117C785.644 89.5841 785.652 89.5565 785.661 89.5289C785.669 89.5013 785.677 89.4737 785.686 89.4461C785.694 89.4185 785.702 89.3909 785.711 89.3633C785.719 89.3356 785.727 89.308 785.736 89.2804C785.744 89.2528 785.752 89.2252 785.761 89.1976C785.769 89.17 785.777 89.1424 785.786 89.1148C785.794 89.0872 785.802 89.0596 785.811 89.032C785.819 89.0044 785.827 88.9768 785.836 88.9492C785.844 88.9216 785.852 88.894 785.861 88.8664C785.869 88.8388 785.877 88.8112 785.886 88.7836C785.894 88.756 785.902 88.7284 785.911 88.7008C785.919 88.6731 785.927 88.6455 785.936 88.6179C785.944 88.5903 785.952 88.5627 785.961 88.5351C785.969 88.5075 785.977 88.4799 785.986 88.4523C785.994 88.4247 786.002 88.3971 786.011 88.3695C786.019 88.3419 786.027 88.3143 786.036 88.2867C786.044 88.2591 786.052 88.2315 786.061 88.2039C786.069 88.1763 786.077 88.1487 786.086 88.1211C786.094 88.0935 786.102 88.0659 786.111 88.0383C786.119 88.0106 786.127 87.983 786.136 87.9554C786.144 87.9278 786.152 87.9002 786.161 87.8726C786.169 87.845 786.177 87.8174 786.186 87.7898C786.194 87.7622 786.202 87.7346 786.211 87.707C786.219 87.6794 786.227 87.6518 786.236 87.6242C786.244 87.5966 786.252 87.569 786.261 87.5414C786.269 87.5138 786.277 87.4862 786.286 87.4586C786.294 87.431 786.302 87.4034 786.311 87.3758C786.319 87.3481 786.327 87.3205 786.336 87.2929C786.344 87.2653 786.352 87.2377 786.361 87.2101C786.369 87.1825 786.377 87.1549 786.386 87.1273C786.394 87.0997 786.402 87.0721 786.411 87.0445C786.419 87.0169 786.427 86.9893 786.436 86.9617C786.444 86.9341 786.452 86.9065 786.461 86.8789C786.469 86.8513 786.477 86.8237 786.486 86.7961C786.494 86.7685 786.502 86.7409 786.511 86.7133C786.519 86.6856 786.527 86.658 786.536 86.6304C786.544 86.6028 786.552 86.5752 786.561 86.5476C786.569 86.52 786.577 86.4924 786.586 86.4648C786.594 86.4372 786.602 86.4096 786.611 86.382C786.619 86.3544 786.627 86.3268 786.636 86.2992C786.644 86.2716 786.652 86.244 786.661 86.2164C786.669 86.1888 786.677 86.1612 786.686 86.1336C786.694 86.106 786.702 86.0784 786.711 86.0508C786.719 86.0231 786.727 85.9955 786.736 85.9679C786.744 85.9403 786.752 85.9127 786.761 85.8851C786.769 85.8575 786.777 85.8299 786.786 85.8023C786.794 85.7747 786.802 85.7471 786.811 85.7195C786.819 85.6919 786.827 85.6643 786.836 85.6367C786.844 85.6091 786.852 85.5815 786.861 85.5539C786.869 85.5263 786.877 85.4987 786.886 85.4711C786.894 85.4435 786.902 85.4159 786.911 85.3883C786.919 85.3606 786.927 85.333 786.936 85.3054C786.944 85.2778 786.952 85.2502 786.961 85.2226C786.969 85.195 786.977 85.1674 786.986 85.1398C786.994 85.1122 787.002 85.0846 787.011 85.057C787.019 85.0294 787.027 85.0018 787.036 84.9742C787.044 84.9466 787.052 84.919 787.061 84.8914C787.069 84.8638 787.077 84.8362 787.086 84.8086C787.094 84.781 787.102 84.7534 787.111 84.7258C787.119 84.6981 787.127 84.6705 787.136 84.6429C787.144 84.6153 787.152 84.5877 787.161 84.5601C787.169 84.5325 787.177 84.5049 787.186 84.4773C787.194 84.4497 787.202 84.4221 787.211 84.3945C787.219 84.3669 787.227 84.3393 787.236 84.3117C787.244 84.2841 787.252 84.2565 787.261 84.2289C787.269 84.2013 787.277 84.1737 787.286 84.1461C787.294 84.1185 787.302 84.0909 787.311 84.0633C787.319 84.0356 787.327 84.008 787.336 83.9804C787.344 83.9528 787.352 83.9252 787.361 83.8976C787.369 83.87 787.377 83.8424 787.386 83.8148C787.394 83.7872 787.402 83.7596 787.411 83.732C787.419 83.7044 787.427 83.6768 787.436 83.6492C787.444 83.6216 787.452 83.594 787.461 83.5664C787.469 83.5388 787.477 83.5112 787.486 83.4836C787.494 83.456 787.502 83.4284 787.511 83.4008C787.519 83.3731 787.527 83.3455 787.536 83.3179C787.544 83.2903 787.552 83.2627 787.561 83.2351C787.569 83.2075 787.577 83.1799 787.586 83.1523C787.594 83.1247 787.602 83.0971 787.611 83.0695C787.619 83.0419 787.627 83.0143 787.636 82.9867C787.644 82.9591 787.652 82.9315 787.661 82.9039C787.669 82.8763 787.677 82.8487 787.686 82.8211C787.694 82.7935 787.702 82.7659 787.711 82.7383C787.719 82.7106 787.727 82.683 787.736 82.6554C787.744 82.6278 787.752 82.6002 787.761 82.5726C787.769 82.545 787.777 82.5174 787.786 82.4898C787.794 82.4622 787.802 82.4346 787.811 82.407C787.819 82.3794 787.827 82.3518 787.836 82.3242C787.844 82.2966 787.852 82.269 787.861 82.2414C787.869 82.2138 787.877 82.1862 787.886 82.1586C787.894 82.131 787.902 82.1034 787.911 82.0758C787.919 82.0481 787.927 82.0205 787.936 81.9929C787.944 81.9653 787.952 81.9377 787.961 81.9101C787.969 81.8825 787.977 81.8549 787.986 81.8273C787.994 81.7997 788.002 81.7721 788.011 81.7445C788.019 81.7169 788.027 81.6893 788.036 81.6617C788.044 81.6341 788.052 81.6065 788.061 81.5789C788.069 81.5513 788.077 81.5237 788.086 81.4961C788.094 81.4685 788.102 81.4409 788.111 81.4133C788.119 81.3856 788.127 81.358 788.136 81.3304C788.144 81.3028 788.152 81.2752 788.161 81.2476C788.169 81.22 788.177 81.1924 788.186 81.1648C788.194 81.1372 788.202 81.1096 788.211 81.082C788.219 81.0544 788.227 81.0268 788.236 80.9992C788.244 80.9716 788.252 80.944 788.261 80.9164C788.269 80.8888 788.277 80.8612 788.286 80.8336C788.294 80.806 788.302 80.7784 788.311 80.7508C788.319 80.7231 788.327 80.6955 788.336 80.6679C788.344 80.6403 788.352 80.6127 788.361 80.5851C788.369 80.5575 788.377 80.5299 788.386 80.5023C788.394 80.4747 788.402 80.4471 788.411 80.4195C788.419 80.3919 788.427 80.3643 788.436 80.3367C788.444 80.3091 788.452 80.2815 788.461 80.2539C788.469 80.2263 788.477 80.1987 788.486 80.1711C788.494 80.1435 788.502 80.1159 788.511 80.0882C788.519 80.0606 788.527 80.033 788.536 80.0054C788.544 79.9778 788.552 79.9502 788.561 79.9226C788.569 79.895 788.577 79.8674 788.586 79.8398C788.594 79.8122 788.602 79.7846 788.611 79.757C788.619 79.7294 788.627 79.7018 788.636 79.6742C788.644 79.6466 788.652 79.619 788.661 79.5914C788.669 79.5638 788.677 79.5362 788.686 79.5086C788.694 79.481 788.702 79.4534 788.711 79.4257C788.719 79.3981 788.727 79.3705 788.736 79.3429C788.744 79.3153 788.752 79.2877 788.761 79.2601C788.769 79.2325 788.777 79.2049 788.786 79.1773C788.794 79.1497 788.802 79.1221 788.811 79.0945C788.819 79.0669 788.827 79.0393 788.836 79.0117C788.844 78.9841 788.852 78.9565 788.861 78.9289C788.869 78.9013 788.877 78.8737 788.886 78.8461C788.894 78.8185 788.902 78.7909 788.911 78.7632C788.919 78.7356 788.927 78.708 788.936 78.6804C788.944 78.6528 788.952 78.6252 788.961 78.5976C788.969 78.57 788.977 78.5424 788.986 78.5148C788.994 78.4872 789.002 78.4596 789.011 78.432C789.019 78.4044 789.027 78.3768 789.036 78.3492C789.044 78.3216 789.052 78.294 789.061 78.2664C789.069 78.2388 789.077 78.2112 789.086 78.1836C789.094 78.156 789.102 78.1284 789.111 78.1007C789.119 78.0731 789.127 78.0455 789.136 78.0179C789.144 77.9903 789.152 77.9627 789.161 77.9351C789.169 77.9075 789.177 77.8799 789.186 77.8523C789.194 77.8247 789.202 77.7971 789.211 77.7695C789.219 77.7419 789.227 77.7143 789.236 77.6867C789.244 77.6591 789.252 77.6315 789.261 77.6039C789.269 77.5763 789.277 77.5487 789.286 77.5211C789.294 77.4935 789.302 77.4659 789.311 77.4382C789.319 77.4106 789.327 77.383 789.336 77.3554C789.344 77.3278 789.352 77.3002 789.361 77.2726C789.369 77.245 789.377 77.2174 789.386 77.1898C789.394 77.1622 789.402 77.1346 789.411 77.107C789.419 77.0794 789.427 77.0518 789.436 77.0242C789.444 76.9966 789.452 76.969 789.461 76.9414C789.469 76.9138 789.477 76.8862 789.486 76.8586C789.494 76.831 789.502 76.8034 789.511 76.7757C789.519 76.7481 789.527 76.7205 789.536 76.6929C789.544 76.6653 789.552 76.6377 789.561 76.6101C789.569 76.5825 789.577 76.5549 789.586 76.5273C789.594 76.4997 789.602 76.4721 789.611 76.4445C789.619 76.4169 789.627 76.3893 789.636 76.3617C789.644 76.3341 789.652 76.3065 789.661 76.2789C789.669 76.2513 789.677 76.2237 789.686 76.1961C789.694 76.1685 789.702 76.1409 789.711 76.1132C789.719 76.0856 789.727 76.058 789.736 76.0304C789.744 76.0028 789.752 75.9752 789.761 75.9476C789.769 75.92 789.777 75.8924 789.786 75.8648C789.794 75.8372 789.802 75.8096 789.811 75.782C789.819 75.7544 789.827 75.7268 789.836 75.6992C789.844 75.6716 789.852 75.644 789.861 75.6164C789.869 75.5888 789.877 75.5612 789.886 75.5336C789.894 75.506 789.902 75.4784 789.911 75.4507C789.919 75.4231 789.927 75.3955 789.936 75.3679C789.944 75.3403 789.952 75.3127 789.961 75.2851C789.969 75.2575 789.977 75.2299 789.986 75.2023C789.994 75.1747 790.002 75.1471 790.011 75.1195C790.019 75.0919 790.027 75.0643 790.036 75.0367C790.044 75.0091 790.052 74.9815 790.061 74.9539C790.069 74.9263 790.077 74.8987 790.086 74.8711C790.094 74.8435 790.102 74.8159 790.111 74.7882C790.119 74.7606 790.127 74.733 790.136 74.7054C790.144 74.6778 790.152 74.6502 790.161 74.6226C790.169 74.595 790.177 74.5674 790.186 74.5398C790.194 74.5122 790.202 74.4846 790.211 74.457C790.219 74.4294 790.227 74.4018 790.236 74.3742C790.244 74.3466 790.252 74.319 790.261 74.2914C790.269 74.2638 790.277 74.2362 790.286 74.2086C790.294 74.181 790.302 74.1534 790.311 74.1257C790.319 74.0981 790.327 74.0705 790.336 74.0429C790.344 74.0153 790.352 73.9877 790.361 73.9601C790.369 73.9325 790.377 73.9049 790.386 73.8773C790.394 73.8497 790.402 73.8221 790.411 73.7945C790.419 73.7669 790.427 73.7393 790.436 73.7117C790.444 73.6841 790.452 73.6565 790.461 73.6289C790.469 73.6013 790.477 73.5737 790.486 73.5461C790.494 73.5185 790.502 73.4909 790.511 73.4632C790.519 73.4356 790.527 73.408 790.536 73.3804C790.544 73.3528 790.552 73.3252 790.561 73.2976C790.569 73.27 790.577 73.2424 790.586 73.2148C790.594 73.1872 790.602 73.1596 790.611 73.132C790.619 73.1044 790.627 73.0768 790.636 73.0492C790.644 73.0216 790.652 72.994 790.661 72.9664C790.669 72.9388 790.677 72.9112 790.686 72.8836C790.694 72.856 790.702 72.8284 790.711 72.8007C790.719 72.7731 790.727 72.7455 790.736 72.7179C790.744 72.6903 790.752 72.6627 790.761 72.6351C790.769 72.6075 790.777 72.5799 790.786 72.5523C790.794 72.5247 790.802 72.4971 790.811 72.4695C790.819 72.4419 790.827 72.4143 790.836 72.3867C790.844 72.3591 790.852 72.3315 790.861 72.3039C790.869 72.2763 790.877 72.2487 790.886 72.2211C790.894 72.1935 790.902 72.1659 790.911 72.1382C790.919 72.1106 790.927 72.083 790.936 72.0554C790.944 72.0278 790.952 72.0002 790.961 71.9726C790.969 71.945 790.977 71.9174 790.986 71.8898C790.994 71.8622 791.002 71.8346 791.011 71.807C791.019 71.7794 791.027 71.7518 791.036 71.7242C791.044 71.6966 791.052 71.669 791.061 71.6414C791.069 71.6138 791.077 71.5862 791.086 71.5586C791.094 71.531 791.102 71.5034 791.111 71.4757C791.119 71.4481 791.127 71.4205 791.136 71.3929C791.144 71.3653 791.152 71.3377 791.161 71.3101C791.169 71.2825 791.177 71.2549 791.186 71.2273C791.194 71.1997 791.202 71.1721 791.211 71.1445C791.219 71.1169 791.227 71.0893 791.236 71.0617C791.244 71.0341 791.252 71.0065 791.261 70.9789C791.269 70.9513 791.277 70.9237 791.286 70.8961C791.294 70.8685 791.302 70.8409 791.311 70.8132C791.319 70.7856 791.327 70.758 791.336 70.7304C791.344 70.7028 791.352 70.6752 791.361 70.6476C791.369 70.62 791.377 70.5924 791.386 70.5648C791.394 70.5372 791.402 70.5096 791.411 70.482C791.419 70.4544 791.427 70.4268 791.436 70.3992C791.444 70.3716 791.452 70.344 791.461 70.3164C791.469 70.2888 791.477 70.2612 791.486 70.2336C791.494 70.206 791.502 70.1784 791.511 70.1507C791.519 70.1231 791.527 70.0955 791.536 70.0679C791.544 70.0403 791.552 70.0127 791.561 69.9851C791.569 69.9575 791.577 69.9299 791.586 69.9023C791.594 69.8747 791.602 69.8471 791.611 69.8195C791.619 69.7919 791.627 69.7643 791.636 69.7367C791.644 69.7091 791.652 69.6815 791.661 69.6539C791.669 69.6263 791.677 69.5987 791.686 69.5711C791.694 69.5435 791.702 69.5159 791.711 69.4882C791.719 69.4606 791.727 69.433 791.736 69.4054C791.744 69.3778 791.752 69.3502 791.761 69.3226C791.769 69.295 791.777 69.2674 791.786 69.2398C791.794 69.2122 791.802 69.1846 791.811 69.157C791.819 69.1294 791.827 69.1018 791.836 69.0742C791.844 69.0466 791.852 69.019 791.861 68.9914C791.869 68.9638 791.877 68.9362 791.886 68.9086C791.894 68.881 791.902 68.8534 791.911 68.8257C791.919 68.7981 791.927 68.7705 791.936 68.7429C791.944 68.7153 791.952 68.6877 791.961 68.6601C791.969 68.6325 791.977 68.6049 791.986 68.5773C791.994 68.5497 792.002 68.5221 792.011 68.4945C792.019 68.4669 792.027 68.4393 792.036 68.4117C792.044 68.3841 792.052 68.3565 792.061 68.3289C792.069 68.3013 792.077 68.2737 792.086 68.2461C792.094 68.2185 792.102 68.1909 792.111 68.1632C792.119 68.1356 792.127 68.108 792.136 68.0804C792.144 68.0528 792.152 68.0252 792.161 67.9976C792.169 67.97 792.177 67.9424 792.186 67.9148C792.194 67.8872 792.202 67.8596 792.211 67.832C792.219 67.8044 792.227 67.7768 792.236 67.7492C792.244 67.7216 792.252 67.694 792.261 67.6664C792.269 67.6388 792.277 67.6112 792.286 67.5836C792.294 67.556 792.302 67.5284 792.311 67.5007C792.319 67.4731 792.327 67.4455 792.336 67.4179C792.344 67.3903 792.352 67.3627 792.361 67.3351C792.369 67.3075 792.377 67.2799 792.386 67.2523C792.394 67.2247 792.402 67.1971 792.411 67.1695C792.419 67.1419 792.427 67.1143 792.436 67.0867C792.444 67.0591 792.452 67.0315 792.461 67.0039C792.469 66.9763 792.477 66.9487 792.486 66.9211C792.494 66.8935 792.502 66.8659 792.511 66.8382C792.519 66.8106 792.527 66.783 792.536 66.7554C792.544 66.7278 792.552 66.7002 792.561 66.6726C792.569 66.645 792.577 66.6174 792.586 66.5898C792.594 66.5622 792.602 66.5346 792.611 66.507C792.619 66.4794 792.627 66.4518 792.636 66.4242C792.644 66.3966 792.652 66.369 792.661 66.3414C792.669 66.3138 792.677 66.2862 792.686 66.2586C792.694 66.231 792.702 66.2034 792.711 66.1757C792.719 66.1481 792.727 66.1205 792.736 66.0929C792.744 66.0653 792.752 66.0377 792.761 66.0101C792.769 65.9825 792.777 65.9549 792.786 65.9273C792.794 65.8997 792.802 65.8721 792.811 65.8445C792.819 65.8169 792.827 65.7893 792.836 65.7617C792.844 65.7341 792.852 65.7065 792.861 65.6789C792.869 65.6513 792.877 65.6237 792.886 65.5961C792.894 65.5685 792.902 65.5409 792.911 65.5132C792.919 65.4856 792.927 65.458 792.936 65.4304C792.944 65.4028 792.952 65.3752 792.961 65.3476C792.969 65.32 792.977 65.2924 792.986 65.2648C792.994 65.2372 793.002 65.2096 793.011 65.182C793.019 65.1544 793.027 65.1268 793.036 65.0992C793.044 65.0716 793.052 65.044 793.061 65.0164C793.069 64.9888 793.077 64.9612 793.086 64.9336C793.094 64.906 793.102 64.8784 793.111 64.8507C793.119 64.8231 793.127 64.7955 793.136 64.7679C793.144 64.7403 793.152 64.7127 793.161 64.6851C793.169 64.6575 793.177 64.6299 793.186 64.6023C793.194 64.5747 793.202 64.5471 793.211 64.5195C793.219 64.4919 793.227 64.4643 793.236 64.4367C793.244 64.4091 793.252 64.3815 793.261 64.3539C793.269 64.3263 793.277 64.2987 793.286 64.2711C793.294 64.2435 793.302 64.2159 793.311 64.1882C793.319 64.1606 793.327 64.133 793.336 64.1054C793.344 64.0778 793.352 64.0502 793.361 64.0226C793.369 63.995 793.377 63.9674 793.386 63.9398C793.394 63.9122 793.402 63.8846 793.411 63.857C793.419 63.8294 793.427 63.8018 793.436 63.7742C793.444 63.7466 793.452 63.719 793.461 63.6914C793.469 63.6638 793.477 63.6362 793.486 63.6086C793.494 63.581 793.502 63.5534 793.511 63.5257C793.519 63.4981 793.527 63.4705 793.536 63.4429C793.544 63.4153 793.552 63.3877 793.561 63.3601C793.569 63.3325 793.577 63.3049 793.586 63.2773C793.594 63.2497 793.602 63.2221 793.611 63.1945C793.619 63.1669 793.627 63.1393 793.636 63.1117C793.644 63.0841 793.652 63.0565 793.661 63.0289C793.669 63.0013 793.677 62.9737 793.686 62.9461C793.694 62.9185 793.702 62.8909 793.711 62.8632C793.719 62.8356 793.727 62.808 793.736 62.7804C793.744 62.7528 793.752 62.7252 793.761 62.6976C793.769 62.67 793.777 62.6424 793.786 62.6148C793.794 62.5872 793.802 62.5596 793.811 62.532C793.819 62.5044 793.827 62.4768 793.836 62.4492C793.844 62.4216 793.852 62.394 793.861 62.3664C793.869 62.3388 793.877 62.3112 793.886 62.2836C793.894 62.256 793.902 62.2284 793.911 62.2007C793.919 62.1731 793.927 62.1455 793.936 62.1179C793.944 62.0903 793.952 62.0627 793.961 62.0351C793.969 62.0075 793.977 61.9799 793.986 61.9523C793.994 61.9247 794.002 61.8971 794.011 61.8695C794.019 61.8419 794.027 61.8143 794.036 61.7867C794.044 61.7591 794.052 61.7315 794.061 61.7039C794.069 61.6763 794.077 61.6487 794.086 61.6211C794.094 61.5935 794.102 61.5659 794.111 61.5382C794.119 61.5106 794.127 61.483 794.136 61.4554C794.144 61.4278 794.152 61.4002 794.161 61.3726C794.169 61.345 794.177 61.3174 794.186 61.2898C794.194 61.2622 794.202 61.2346 794.211 61.207C794.219 61.1794 794.227 61.1518 794.236 61.1242C794.244 61.0966 794.252 61.069 794.261 61.0414C794.269 61.0138 794.277 60.9862 794.286 60.9586C794.294 60.931 794.302 60.9034 794.311 60.8757C794.319 60.8481 794.327 60.8205 794.336 60.7929C794.344 60.7653 794.352 60.7377 794.361 60.7101C794.369 60.6825 794.377 60.6549 794.386 60.6273C794.394 60.5997 794.402 60.5721 794.411 60.5445L793.453 60.2555ZM780.654 102.654C776.39 116.646 771.926 130.038 767.262 142.829L768.202 143.171C772.872 130.362 777.341 116.954 781.61 102.946L780.654 102.654ZM767.732 142.5H739.132V143.5H767.732V142.5ZM739.607 142.844C732.544 121.388 725.947 98.7324 719.816 74.8756L718.848 75.1244C724.984 99.0009 731.587 121.678 738.657 143.156L739.607 142.844ZM719.817 74.8781C713.819 51.0188 708.487 27.4933 703.822 4.3014L702.842 4.4986C707.51 27.7067 712.845 51.2478 718.847 75.1219L719.817 74.8781ZM703.332 4.9H737.132V3.9H703.332V4.9ZM736.639 4.48355C737.973 12.3533 739.44 20.5562 741.041 29.0921L742.023 28.9078C740.424 20.3771 738.958 12.18 737.625 4.31644L736.639 4.48355ZM741.041 29.0935C742.641 37.4956 744.308 45.9642 746.042 54.4995L747.022 54.3005C745.289 45.7691 743.623 37.3044 742.023 28.9064L741.041 29.0935ZM746.042 54.4995C747.776 63.0348 749.51 71.3036 751.243 79.3059L752.221 79.0941C750.488 71.0964 748.755 62.8318 747.022 54.3005L746.042 54.4995ZM751.245 79.3136C753.113 87.3189 754.981 94.7252 756.85 101.532L757.814 101.268C755.949 94.4748 754.084 87.0811 752.219 79.0864L751.245 79.3136ZM757.801 101.572C760.205 95.0301 762.541 88.0885 764.81 80.7477L763.854 80.4523C761.59 87.7782 759.259 94.7032 756.863 101.228L757.801 101.572ZM764.81 80.7477C767.077 73.4117 769.278 66.0757 771.412 58.7397L770.452 58.4603C768.319 65.791 766.12 73.1217 763.854 80.4523L764.81 80.7477ZM771.412 58.7397C773.547 51.4014 775.482 44.3294 777.217 37.5235L776.248 37.2765C774.516 44.0706 772.584 51.1319 770.452 58.4603L771.412 58.7397ZM777.214 37.5324C779.081 30.7324 780.747 24.6658 782.214 19.3326L781.25 19.0674C779.783 24.4008 778.117 30.4676 776.25 37.2676L777.214 37.5324ZM781.732 19.7H808.332V18.7H781.732V19.7ZM1017.77 143L1017.29 143.146L1017.4 143.5H1017.77V143ZM1012.77 128.2L1012.3 128.362L1012.3 128.373L1012.77 128.2ZM1007.57 113L1008.05 112.838L1007.93 112.5H1007.57V113ZM953.573 113V112.5H953.215L953.1 112.838L953.573 113ZM948.173 128.2L947.703 128.027L947.7 128.038L948.173 128.2ZM943.373 143V143.5H943.743L943.851 143.146L943.373 143ZM910.973 143L910.5 142.836L910.269 143.5H910.973V143ZM925.773 101.6L926.242 101.773L926.242 101.773L925.773 101.6ZM939.373 65.8L938.909 65.6124L938.907 65.6172L939.373 65.8ZM952.573 34L952.114 33.8009L952.113 33.8038L952.573 34ZM966.173 4.4V3.9H965.86L965.723 4.1814L966.173 4.4ZM995.973 4.4L996.425 4.18649L996.289 3.9H995.973V4.4ZM1009.37 34L1008.91 34.1991L1008.92 34.2014L1009.37 34ZM1022.57 65.8L1022.11 65.9828L1022.11 65.9876L1022.57 65.8ZM1036.37 101.6L1035.9 101.773L1035.9 101.773L1036.37 101.6ZM1051.17 143V143.5H1051.88L1051.64 142.836L1051.17 143ZM980.373 35.8L980.837 35.6143L980.33 34.347L979.898 35.6419L980.373 35.8ZM977.373 44L976.906 43.8205L976.906 43.8205L977.373 44ZM972.773 56L972.306 55.8214L972.306 55.8214L972.773 56ZM966.973 71L966.507 70.8182L966.503 70.8282L966.973 71ZM960.773 88.2L960.302 88.0325L960.064 88.7H960.773V88.2ZM1000.17 88.2V88.7H1000.88L1000.64 88.0325L1000.17 88.2ZM993.973 71L993.503 71.1718L993.503 71.1718L993.973 71ZM988.173 56L987.705 56.1786L987.71 56.1904L988.173 56ZM983.573 44L984.039 43.8205L984.039 43.8205L983.573 44ZM1018.25 142.854C1016.78 138.044 1015.11 133.102 1013.24 128.027L1012.3 128.373C1014.17 133.431 1015.83 138.356 1017.29 143.146L1018.25 142.854ZM1013.25 128.038C1013.13 127.688 1013.04 127.438 1012.92 127.088C1012.88 126.976 1012.88 126.962 1012.84 126.851C1012.84 126.841 1012.83 126.831 1012.83 126.821C1012.83 126.811 1012.82 126.801 1012.82 126.791C1012.82 126.781 1012.81 126.771 1012.81 126.762C1012.81 126.752 1012.8 126.742 1012.8 126.732C1012.8 126.722 1012.79 126.712 1012.79 126.702C1012.79 126.692 1012.78 126.682 1012.78 126.673C1012.78 126.663 1012.77 126.653 1012.77 126.643C1012.77 126.633 1012.76 126.623 1012.76 126.613C1012.72 126.501 1012.72 126.488 1012.68 126.376C1012.64 126.263 1012.63 126.251 1012.6 126.138C1012.48 125.795 1012.39 125.532 1012.27 125.188C1012.15 124.845 1012.06 124.582 1011.95 124.238C1011.83 123.895 1011.74 123.632 1011.62 123.288C1011.5 122.945 1011.41 122.682 1011.3 122.338C1011.18 121.995 1011.09 121.732 1010.97 121.388C1010.85 121.045 1010.76 120.782 1010.65 120.438C1010.63 120.379 1010.63 120.379 1010.61 120.319C1010.58 120.26 1010.58 120.26 1010.56 120.201C1010.54 120.141 1010.54 120.142 1010.52 120.082C1010.5 120.022 1010.5 120.023 1010.48 119.963C1010.46 119.904 1010.46 119.904 1010.44 119.844C1010.42 119.785 1010.42 119.785 1010.4 119.726C1010.38 119.666 1010.38 119.667 1010.36 119.607C1010.34 119.547 1010.34 119.548 1010.32 119.488C1010.3 119.429 1010.3 119.429 1010.28 119.369C1010.26 119.31 1010.26 119.31 1010.24 119.251C1010.22 119.191 1010.22 119.192 1010.2 119.132C1010.18 119.072 1010.18 119.073 1010.16 119.013C1010.14 118.954 1010.14 118.954 1010.12 118.894C1010.1 118.835 1010.1 118.835 1010.08 118.776C1010.06 118.716 1010.06 118.717 1010.04 118.657C1010.02 118.597 1010.02 118.598 1010 118.538C1009.98 118.479 1009.98 118.479 1009.96 118.419C1009.93 118.36 1009.93 118.36 1009.91 118.301C1009.89 118.241 1009.89 118.242 1009.87 118.182C1009.85 118.122 1009.85 118.123 1009.83 118.063C1009.81 118.004 1009.81 118.004 1009.79 117.944C1009.77 117.885 1009.77 117.885 1009.75 117.826C1009.73 117.766 1009.73 117.767 1009.71 117.707C1009.69 117.647 1009.69 117.648 1009.67 117.588C1009.65 117.529 1009.65 117.529 1009.63 117.469C1009.61 117.41 1009.61 117.41 1009.59 117.351C1009.57 117.291 1009.57 117.292 1009.55 117.232C1009.53 117.172 1009.53 117.173 1009.51 117.113C1009.49 117.054 1009.49 117.054 1009.47 116.994C1009.45 116.935 1009.45 116.935 1009.43 116.876C1009.41 116.816 1009.41 116.817 1009.39 116.757C1009.37 116.697 1009.37 116.698 1009.35 116.638C1009.33 116.579 1009.33 116.579 1009.31 116.519C1009.28 116.46 1009.28 116.46 1009.26 116.401C1009.24 116.341 1009.24 116.342 1009.22 116.282C1009.2 116.222 1009.2 116.223 1009.18 116.163C1009.16 116.104 1009.16 116.104 1009.14 116.044C1009.12 115.985 1009.12 115.985 1009.1 115.926C1009.08 115.866 1009.08 115.867 1009.06 115.807C1009.04 115.747 1009.04 115.748 1009.02 115.688C1009 115.629 1009 115.629 1008.98 115.569C1008.96 115.51 1008.96 115.51 1008.94 115.451C1008.92 115.391 1008.92 115.392 1008.9 115.332C1008.88 115.272 1008.88 115.273 1008.86 115.213C1008.84 115.154 1008.84 115.154 1008.82 115.094C1008.8 115.035 1008.8 115.035 1008.78 114.976C1008.76 114.916 1008.76 114.917 1008.74 114.857C1008.72 114.797 1008.72 114.798 1008.7 114.738C1008.68 114.679 1008.68 114.679 1008.66 114.619C1008.63 114.56 1008.63 114.56 1008.61 114.501C1008.59 114.441 1008.59 114.442 1008.57 114.382C1008.55 114.322 1008.55 114.323 1008.53 114.263C1008.51 114.204 1008.51 114.204 1008.49 114.144C1008.47 114.085 1008.47 114.085 1008.45 114.026C1008.43 113.966 1008.43 113.967 1008.41 113.907C1008.39 113.847 1008.39 113.848 1008.37 113.788C1008.35 113.729 1008.35 113.729 1008.33 113.669C1008.31 113.61 1008.31 113.61 1008.29 113.551C1008.27 113.491 1008.27 113.492 1008.25 113.432C1008.23 113.372 1008.23 113.373 1008.21 113.313C1008.19 113.254 1008.19 113.254 1008.17 113.194C1008.15 113.135 1008.15 113.135 1008.13 113.076C1008.11 113.016 1008.11 113.017 1008.09 112.957C1008.07 112.897 1008.07 112.898 1008.05 112.838L1007.1 113.162C1007.22 113.505 1007.31 113.768 1007.42 114.112C1007.54 114.455 1007.63 114.718 1007.75 115.062C1007.87 115.405 1007.96 115.668 1008.07 116.012C1008.19 116.355 1008.28 116.618 1008.4 116.962C1008.52 117.305 1008.61 117.568 1008.72 117.912C1008.84 118.255 1008.93 118.518 1009.05 118.862C1009.17 119.205 1009.26 119.468 1009.37 119.812C1009.49 120.155 1009.58 120.418 1009.7 120.762C1009.72 120.821 1009.72 120.821 1009.74 120.881C1009.76 120.94 1009.76 120.94 1009.78 120.999C1009.8 121.059 1009.8 121.058 1009.82 121.118C1009.84 121.178 1009.84 121.177 1009.86 121.237C1009.88 121.296 1009.88 121.296 1009.9 121.356C1009.92 121.415 1009.92 121.415 1009.94 121.474C1009.96 121.534 1009.96 121.533 1009.98 121.593C1010 121.653 1010 121.652 1010.02 121.712C1010.04 121.771 1010.04 121.771 1010.07 121.831C1010.09 121.89 1010.09 121.89 1010.11 121.949C1010.13 122.009 1010.13 122.008 1010.15 122.068C1010.17 122.128 1010.17 122.127 1010.19 122.187C1010.21 122.246 1010.21 122.246 1010.23 122.306C1010.25 122.365 1010.25 122.365 1010.27 122.424C1010.29 122.484 1010.29 122.483 1010.31 122.543C1010.33 122.603 1010.33 122.602 1010.35 122.662C1010.37 122.721 1010.37 122.721 1010.39 122.781C1010.41 122.84 1010.41 122.84 1010.43 122.899C1010.45 122.959 1010.45 122.958 1010.47 123.018C1010.49 123.078 1010.49 123.077 1010.51 123.137C1010.53 123.196 1010.53 123.196 1010.55 123.256C1010.57 123.315 1010.57 123.315 1010.59 123.374C1010.61 123.434 1010.61 123.433 1010.63 123.493C1010.65 123.553 1010.65 123.552 1010.67 123.612C1010.69 123.671 1010.69 123.671 1010.72 123.731C1010.74 123.79 1010.74 123.79 1010.76 123.849C1010.78 123.909 1010.78 123.908 1010.8 123.968C1010.82 124.028 1010.82 124.027 1010.84 124.087C1010.86 124.146 1010.86 124.146 1010.88 124.206C1010.9 124.265 1010.9 124.265 1010.92 124.324C1010.94 124.384 1010.94 124.383 1010.96 124.443C1010.98 124.503 1010.98 124.502 1011 124.562C1011.02 124.621 1011.02 124.621 1011.04 124.681C1011.06 124.74 1011.06 124.74 1011.08 124.799C1011.1 124.859 1011.1 124.858 1011.12 124.918C1011.14 124.978 1011.14 124.977 1011.16 125.037C1011.18 125.096 1011.18 125.096 1011.2 125.156C1011.22 125.215 1011.22 125.215 1011.24 125.274C1011.26 125.334 1011.26 125.333 1011.28 125.393C1011.3 125.453 1011.3 125.452 1011.32 125.512C1011.34 125.571 1011.34 125.571 1011.37 125.631C1011.39 125.69 1011.39 125.69 1011.41 125.749C1011.43 125.809 1011.43 125.808 1011.45 125.868C1011.47 125.928 1011.47 125.927 1011.49 125.987C1011.51 126.046 1011.51 126.046 1011.53 126.106C1011.55 126.165 1011.55 126.165 1011.57 126.224C1011.59 126.284 1011.59 126.283 1011.61 126.343C1011.63 126.403 1011.63 126.402 1011.65 126.462C1011.67 126.521 1011.67 126.521 1011.69 126.581C1011.71 126.64 1011.71 126.64 1011.73 126.699C1011.75 126.759 1011.75 126.758 1011.77 126.818C1011.79 126.878 1011.79 126.877 1011.81 126.937C1011.83 126.996 1011.83 126.996 1011.85 127.056C1011.87 127.11 1011.87 127.12 1011.89 127.174C1011.9 127.181 1011.93 127.287 1011.93 127.293C1011.94 127.299 1011.97 127.406 1011.97 127.412C1011.98 127.418 1012.01 127.524 1012.02 127.531C1012.02 127.537 1012.05 127.643 1012.06 127.649C1012.06 127.658 1012.09 127.759 1012.1 127.768C1012.1 127.784 1012.13 127.871 1012.14 127.887C1012.14 127.903 1012.17 127.99 1012.18 128.006C1012.18 128.022 1012.21 128.108 1012.22 128.124C1012.22 128.14 1012.25 128.227 1012.26 128.243C1012.26 128.259 1012.29 128.346 1012.3 128.362L1013.25 128.038ZM1007.57 112.5H953.573V113.5H1007.57V112.5ZM953.1 112.838C951.368 117.901 949.569 122.964 947.703 128.027L948.642 128.373C950.51 123.303 952.311 118.232 954.046 113.162L953.1 112.838ZM947.7 128.038C945.965 133.11 944.363 138.048 942.894 142.854L943.851 143.146C945.316 138.352 946.914 133.424 948.646 128.362L947.7 128.038ZM943.373 142.5H910.973V143.5H943.373V142.5ZM911.445 143.164C916.644 128.233 921.576 114.436 926.242 101.773L925.303 101.427C920.636 114.097 915.701 127.9 910.5 142.836L911.445 143.164ZM926.242 101.773C930.907 89.1091 935.439 77.1791 939.838 65.9828L938.907 65.6172C934.506 76.8209 929.971 88.7575 925.303 101.427L926.242 101.773ZM939.836 65.9876C944.368 54.7902 948.767 44.1931 953.033 34.1962L952.113 33.8038C947.845 43.8069 943.444 54.4098 938.909 65.6124L939.836 65.9876ZM953.031 34.1991C957.429 24.0721 961.959 14.2119 966.622 4.61859L965.723 4.1814C961.053 13.788 956.517 23.6612 952.114 33.8009L953.031 34.1991ZM966.173 4.9H995.973V3.9H966.173V4.9ZM995.521 4.6135C1000.05 14.2086 1004.52 24.0704 1008.91 34.1991L1009.83 33.8009C1005.43 23.6629 1000.96 13.7914 996.425 4.18649L995.521 4.6135ZM1008.92 34.2014C1013.31 44.1947 1017.71 54.7884 1022.11 65.9828L1023.04 65.6172C1018.64 54.4116 1014.23 43.8053 1009.83 33.7986L1008.92 34.2014ZM1022.11 65.9876C1026.64 77.1822 1031.24 89.1106 1035.9 101.773L1036.84 101.427C1032.17 88.7561 1027.57 76.8178 1023.04 65.6124L1022.11 65.9876ZM1035.9 101.773C1040.57 114.436 1045.5 128.233 1050.7 143.164L1051.64 142.836C1046.44 127.9 1041.51 114.097 1036.84 101.427L1035.9 101.773ZM1051.17 142.5H1017.77V143.5H1051.17V142.5ZM979.898 35.6419C979.235 37.6313 978.238 40.3565 976.906 43.8205L977.839 44.1795C979.174 40.7102 980.177 37.9687 980.847 35.9581L979.898 35.6419ZM976.906 43.8205C975.573 47.2876 974.039 51.2879 972.306 55.8214L973.24 56.1786C974.973 51.6455 976.506 47.6458 977.839 44.1795L976.906 43.8205ZM972.306 55.8214C970.573 60.3535 968.64 65.3524 966.507 70.8182L967.438 71.1818C969.572 65.7142 971.506 60.7132 973.24 56.1786L972.306 55.8214ZM966.503 70.8282C964.503 76.2964 962.435 82.0312 960.302 88.0325L961.244 88.3675C963.377 82.3688 965.443 76.6369 967.442 71.1718L966.503 70.8282ZM960.773 88.7H1000.17V87.7H960.773V88.7ZM1000.64 88.0325C998.51 82.0312 996.443 76.2964 994.442 70.8282L993.503 71.1718C995.503 76.6369 997.569 82.3688 999.702 88.3675L1000.64 88.0325ZM994.442 70.8282C992.44 65.3564 990.505 60.3501 988.635 55.8096L987.71 56.1904C989.574 60.7165 991.505 65.7102 993.503 71.1718L994.442 70.8282ZM988.64 55.8214C986.906 51.2879 985.373 47.2876 984.039 43.8205L983.106 44.1795C984.439 47.6458 985.972 51.6455 987.706 56.1786L988.64 55.8214ZM984.039 43.8205C982.706 40.353 981.638 37.6173 980.837 35.6143L979.908 35.9857C980.707 37.9827 981.773 40.7136 983.106 44.1795L984.039 43.8205ZM1127.99 61.4L1127.56 61.6546L1127.99 62.382L1128.42 61.6546L1127.99 61.4ZM1143.99 33L1144.43 33.2359L1144.43 33.2359L1143.99 33ZM1157.99 4.4V3.9H1157.67L1157.53 4.19693L1157.99 4.4ZM1192.39 4.4L1192.84 4.62678L1193.21 3.9H1192.39V4.4ZM1168.79 47.8L1169.22 48.0512L1169.22 48.0512L1168.79 47.8ZM1142.99 90L1142.57 89.73L1142.49 89.8534V90H1142.99ZM1142.99 143V143.5H1143.49V143H1142.99ZM1111.79 143H1111.29V143.5H1111.79V143ZM1111.79 90.4H1112.29V90.2534L1112.21 90.13L1111.79 90.4ZM1085.79 48L1085.36 48.2494L1085.36 48.2524L1085.79 48ZM1062.19 4.4V3.9H1061.38L1061.75 4.62678L1062.19 4.4ZM1098.39 4.4L1098.85 4.19693L1098.72 3.9H1098.39V4.4ZM1112.19 33L1111.75 33.2311L1111.75 33.2311L1112.19 33ZM1128.42 61.6546C1134.03 52.1819 1139.36 42.709 1144.43 33.2359L1143.55 32.7641C1138.49 42.2243 1133.16 51.6847 1127.56 61.1454L1128.42 61.6546ZM1144.43 33.2359C1149.5 23.7587 1154.18 14.2145 1158.45 4.60307L1157.53 4.19693C1153.27 13.7855 1148.61 23.3079 1143.55 32.7641L1144.43 33.2359ZM1157.99 4.9H1192.39V3.9H1157.99V4.9ZM1191.95 4.17321C1184.35 19.0986 1176.49 33.5571 1168.36 47.5488L1169.22 48.0512C1177.36 34.0429 1185.23 19.5681 1192.84 4.62678L1191.95 4.17321ZM1168.36 47.5488C1160.23 61.5422 1151.63 75.6026 1142.57 89.73L1143.41 90.27C1152.48 76.1307 1161.09 62.0577 1169.22 48.0512L1168.36 47.5488ZM1142.49 90V143H1143.49V90H1142.49ZM1142.99 142.5H1111.79V143.5H1142.99V142.5ZM1112.29 143V90.4H1111.29V143H1112.29ZM1112.21 90.13C1103.15 76.0023 1094.49 61.8748 1086.22 47.7476L1085.36 48.2524C1093.63 62.3918 1102.3 76.531 1111.37 90.67L1112.21 90.13ZM1086.22 47.7506C1078.1 33.6249 1070.23 19.0991 1062.64 4.17321L1061.75 4.62678C1069.35 19.5675 1077.22 34.1084 1085.36 48.2494L1086.22 47.7506ZM1062.19 4.9H1098.39V3.9H1062.19V4.9ZM1097.93 4.60307C1102.21 14.2127 1106.81 23.7554 1111.75 33.2311L1112.63 32.7689C1107.71 23.3113 1103.11 13.7873 1098.85 4.19693L1097.93 4.60307ZM1111.75 33.2311C1116.69 42.7059 1121.96 52.1804 1127.56 61.6546L1128.42 61.1454C1122.83 51.6862 1117.56 42.2274 1112.63 32.7689L1111.75 33.2311Z" fill="#DDDDDD"/>
</svg>
