<svg width="1369" height="168" viewBox="0 0 1369 168" fill="none" xmlns="http://www.w3.org/2000/svg">
<path d="M86.0984 32.783C69.4577 32.783 57.3971 37.4393 49.9164 46.752C42.5884 55.912 38.9244 68.507 38.9244 84.537C38.9244 92.323 39.8404 99.422 41.6724 105.834C43.5044 112.093 46.2524 117.513 49.9164 122.093C53.5804 126.673 58.1604 130.261 63.6564 132.856C69.1524 135.299 75.5644 136.52 82.8924 136.52C86.8617 136.52 90.2204 136.444 92.9684 136.291C95.8691 136.138 98.3881 135.833 100.525 135.375V80.186H136.249V158.733C131.975 160.412 125.105 162.168 115.639 164C106.174 165.985 94.4951 166.977 80.6024 166.977C68.6944 166.977 57.8551 165.145 48.0844 161.481C38.4664 157.817 30.2224 152.474 23.3524 145.451C16.4824 138.428 11.1391 129.803 7.3224 119.574C3.6584 109.345 1.8264 97.6663 1.8264 84.537C1.8264 71.255 3.8874 59.4997 8.00941 49.271C12.1314 39.0423 17.7801 30.4167 24.9554 23.394C32.1307 16.2187 40.5274 10.799 50.1454 7.13499C59.9161 3.47099 70.2974 1.63899 81.2894 1.63899C88.7701 1.63899 95.4874 2.17332 101.441 3.24199C107.548 4.15799 112.739 5.30299 117.013 6.67699C121.441 7.89833 125.028 9.196 127.776 10.57C130.677 11.944 132.738 13.0127 133.959 13.776L123.654 42.401C118.769 39.8057 113.12 37.592 106.708 35.76C100.449 33.7753 93.5791 32.783 86.0984 32.783ZM201.548 164V5.303H308.72V35.302H237.272V66.446H300.705V95.758H237.272V134.001H313.987V164H201.548ZM490.19 5.303V35.76H442.329V164H406.605V35.76H358.744V5.303H490.19ZM738.539 164C736.86 158.504 734.951 152.855 732.814 147.054C730.829 141.253 728.845 135.451 726.86 129.65H665.03C663.045 135.451 660.984 141.253 658.847 147.054C656.862 152.855 655.03 158.504 653.351 164H616.253C622.207 146.901 627.856 131.1 633.199 116.597C638.542 102.094 643.733 88.43 648.771 75.606C653.962 62.782 659 50.645 663.885 39.195C668.923 27.5923 674.114 16.295 679.457 5.303H713.578C718.769 16.295 723.883 27.5923 728.921 39.195C733.959 50.645 738.997 62.782 744.035 75.606C749.226 88.43 754.493 102.094 759.836 116.597C765.179 131.1 770.828 146.901 776.782 164H738.539ZM695.716 41.256C694.953 43.546 693.808 46.6757 692.281 50.645C690.754 54.6143 688.999 59.1943 687.014 64.385C685.029 69.5757 682.816 75.3007 680.373 81.56C678.083 87.8193 675.717 94.384 673.274 101.254H718.387C715.944 94.384 713.578 87.8193 711.288 81.56C708.998 75.3007 706.784 69.5757 704.647 64.385C702.662 59.1943 700.907 54.6143 699.38 50.645C697.853 46.6757 696.632 43.546 695.716 41.256ZM926.7 22.249C928.532 28.5083 930.517 35.6073 932.654 43.546C934.944 51.332 937.31 59.4233 939.753 67.82C942.348 76.2167 944.944 84.6133 947.539 93.01C950.134 101.407 952.653 109.193 955.096 116.368C957.081 108.582 959.065 100.109 961.05 90.949C963.187 81.789 965.172 72.3237 967.004 62.553C968.836 52.7823 970.592 43.088 972.271 33.47C974.103 23.6993 975.782 14.3103 977.309 5.303H1014.41C1009.06 31.867 1002.88 58.8127 995.858 86.14C988.988 113.467 981.507 139.421 973.416 164H940.669C935.326 149.344 930.135 134.001 925.097 117.971C920.059 101.788 915.097 85.6057 910.212 69.423C905.327 85.6057 900.441 101.788 895.556 117.971C890.671 134.001 885.556 149.344 880.213 164H847.466C839.375 139.421 831.818 113.467 824.795 86.14C817.925 58.8127 811.818 31.867 806.475 5.303H845.176C846.703 14.3103 848.382 23.6993 850.214 33.47C852.046 43.088 853.954 52.7823 855.939 62.553C857.924 72.3237 859.908 81.789 861.893 90.949C864.03 100.109 866.168 108.582 868.305 116.368C871.053 108.887 873.725 100.949 876.32 92.552C878.915 84.1553 881.434 75.7587 883.877 67.362C886.32 58.9653 888.533 50.874 890.518 43.088C892.655 35.302 894.564 28.3557 896.243 22.249H926.7ZM1166.51 164C1164.83 158.504 1162.92 152.855 1160.78 147.054C1158.8 141.253 1156.82 135.451 1154.83 129.65H1093C1091.02 135.451 1088.95 141.253 1086.82 147.054C1084.83 152.855 1083 158.504 1081.32 164H1044.22C1050.18 146.901 1055.83 131.1 1061.17 116.597C1066.51 102.094 1071.7 88.43 1076.74 75.606C1081.93 62.782 1086.97 50.645 1091.86 39.195C1096.89 27.5923 1102.08 16.295 1107.43 5.303H1141.55C1146.74 16.295 1151.85 27.5923 1156.89 39.195C1161.93 50.645 1166.97 62.782 1172.01 75.606C1177.2 88.43 1182.46 102.094 1187.81 116.597C1193.15 131.1 1198.8 146.901 1204.75 164H1166.51ZM1123.69 41.256C1122.92 43.546 1121.78 46.6757 1120.25 50.645C1118.72 54.6143 1116.97 59.1943 1114.98 64.385C1113 69.5757 1110.79 75.3007 1108.34 81.56C1106.05 87.8193 1103.69 94.384 1101.24 101.254H1146.36C1143.91 94.384 1141.55 87.8193 1139.26 81.56C1136.97 75.3007 1134.75 69.5757 1132.62 64.385C1130.63 59.1943 1128.88 54.6143 1127.35 50.645C1125.82 46.6757 1124.6 43.546 1123.69 41.256ZM1292.71 70.568C1299.12 59.7287 1305.23 48.8893 1311.03 38.05C1316.83 27.2107 1322.17 16.295 1327.06 5.303H1366.45C1357.75 22.4017 1348.74 38.966 1339.43 54.996C1330.11 71.026 1320.27 87.1323 1309.89 103.315V164H1274.16V103.773C1263.78 87.5903 1253.86 71.4077 1244.39 55.225C1235.08 39.0423 1226.07 22.4017 1217.37 5.303H1258.82C1263.7 16.295 1268.97 27.2107 1274.62 38.05C1280.27 48.8893 1286.3 59.7287 1292.71 70.568Z" fill="white"/>
<path d="M49.9164 46.752L49.1368 46.1257L49.1355 46.1273L49.9164 46.752ZM41.6724 105.834L40.7109 106.109L40.7127 106.115L41.6724 105.834ZM49.9164 122.093L50.6973 121.468L50.6973 121.468L49.9164 122.093ZM63.6564 132.856L63.2294 133.76L63.2398 133.765L63.2503 133.77L63.6564 132.856ZM92.9684 136.291L92.9158 135.292L92.9129 135.293L92.9684 136.291ZM100.525 135.375L100.735 136.353L101.525 136.183V135.375H100.525ZM100.525 80.186V79.186H99.5254V80.186H100.525ZM136.249 80.186H137.249V79.186H136.249V80.186ZM136.249 158.733L136.615 159.664L137.249 159.415V158.733H136.249ZM115.639 164L115.449 163.018L115.442 163.02L115.434 163.021L115.639 164ZM48.0844 161.481L47.7284 162.416L47.7333 162.417L48.0844 161.481ZM23.3524 145.451L22.6376 146.15L22.6376 146.15L23.3524 145.451ZM7.3224 119.574L6.3809 119.911L6.3855 119.924L7.3224 119.574ZM8.00941 49.271L7.08189 48.8972L7.08189 48.8972L8.00941 49.271ZM24.9554 23.394L25.6549 24.1087L25.6625 24.1011L24.9554 23.394ZM50.1454 7.13499L49.7943 6.19864L49.7894 6.2005L50.1454 7.13499ZM101.441 3.24199L101.265 4.22627L101.279 4.2288L101.293 4.23093L101.441 3.24199ZM117.013 6.67699L116.707 7.62902L116.727 7.63542L116.747 7.64098L117.013 6.67699ZM127.776 10.57L127.329 11.4644L127.339 11.4692L127.348 11.4737L127.776 10.57ZM133.959 13.776L134.9 14.1147L135.174 13.3556L134.489 12.928L133.959 13.776ZM123.654 42.401L123.185 43.2841L124.204 43.8255L124.595 42.7397L123.654 42.401ZM106.708 35.76L106.406 36.7132L106.42 36.7176L106.434 36.7215L106.708 35.76ZM86.0984 31.783C69.2803 31.783 56.874 36.4937 49.1368 46.1257L50.696 47.3782C57.9202 38.3849 69.6352 33.783 86.0984 33.783V31.783ZM49.1355 46.1273C41.6215 55.5198 37.9244 68.3625 37.9244 84.537H39.9244C39.9244 68.6515 43.5553 56.3042 50.6973 47.3767L49.1355 46.1273ZM37.9244 84.537C37.9244 92.4008 38.8495 99.5939 40.7109 106.109L42.6339 105.559C40.8313 99.2501 39.9244 92.2452 39.9244 84.537H37.9244ZM40.7127 106.115C42.5772 112.485 45.3814 118.025 49.1355 122.718L50.6973 121.468C47.1234 117.001 44.4316 111.701 42.6321 105.553L40.7127 106.115ZM49.1355 122.718C52.8982 127.421 57.6008 131.102 63.2294 133.76L64.0834 131.952C58.72 129.419 54.2627 125.925 50.6973 121.468L49.1355 122.718ZM63.2503 133.77C68.8989 136.28 75.4544 137.52 82.8924 137.52V135.52C75.6745 135.52 69.4059 134.317 64.0625 131.942L63.2503 133.77ZM82.8924 137.52C86.8729 137.52 90.2513 137.443 93.0239 137.289L92.9129 135.293C90.1895 135.444 86.8505 135.52 82.8924 135.52V137.52ZM93.021 137.29C95.9584 137.135 98.5323 136.825 100.735 136.353L100.316 134.397C98.2439 134.841 95.7798 135.142 92.9158 135.292L93.021 137.29ZM101.525 135.375V80.186H99.5254V135.375H101.525ZM100.525 81.186H136.249V79.186H100.525V81.186ZM135.249 80.186V158.733H137.249V80.186H135.249ZM135.884 157.802C131.699 159.446 124.905 161.188 115.449 163.018L115.829 164.982C125.304 163.148 132.25 161.379 136.615 159.664L135.884 157.802ZM115.434 163.021C106.059 164.987 94.4533 165.977 80.6024 165.977V167.977C94.5369 167.977 106.29 166.982 115.845 164.979L115.434 163.021ZM80.6024 165.977C68.7976 165.977 58.0793 164.161 48.4355 160.545L47.7333 162.417C57.6309 166.129 68.5912 167.977 80.6024 167.977V165.977ZM48.4404 160.547C38.951 156.932 30.8312 151.666 24.0672 144.752L22.6376 146.15C29.6136 153.281 37.9818 158.702 47.7284 162.415L48.4404 160.547ZM24.0672 144.752C17.3052 137.839 12.0326 129.337 8.25931 119.224L6.3855 119.924C10.2455 130.268 15.6596 139.017 22.6376 146.15L24.0672 144.752ZM8.26383 119.237C4.64571 109.136 2.8264 97.5746 2.8264 84.537H0.826404C0.826404 97.758 2.67109 109.554 6.38098 119.911L8.26383 119.237ZM2.8264 84.537C2.8264 71.3575 4.8715 59.733 8.93692 49.6448L7.08189 48.8972C2.90331 59.2663 0.826404 71.1525 0.826404 84.537H2.8264ZM8.93692 49.6448C13.0124 39.5316 18.5876 31.0255 25.6549 24.1087L24.2559 22.6793C16.9725 29.8078 11.2504 38.5531 7.08189 48.8972L8.93692 49.6448ZM25.6625 24.1011C32.7367 17.0269 41.0132 11.684 50.5014 8.06947L49.7894 6.2005C40.0416 9.91396 31.5248 15.4104 24.2483 22.6869L25.6625 24.1011ZM50.4965 8.07132C60.149 4.45163 70.4108 2.63899 81.2894 2.63899V0.638988C70.184 0.638988 59.6831 2.49034 49.7943 6.19866L50.4965 8.07132ZM81.2894 2.63899C88.7241 2.63899 95.3808 3.17017 101.265 4.22627L101.618 2.25772C95.594 1.17648 88.816 0.638988 81.2894 0.638988V2.63899ZM101.293 4.23093C107.365 5.14166 112.499 6.2764 116.707 7.62902L117.319 5.72496C112.978 4.32958 107.732 3.17433 101.59 2.25306L101.293 4.23093ZM116.747 7.64098C121.14 8.85264 124.66 10.1299 127.329 11.4644L128.224 9.67557C125.397 8.26211 121.742 6.94401 117.279 5.713L116.747 7.64098ZM127.348 11.4737C130.246 12.8462 132.261 13.8939 133.429 14.624L134.489 12.928C133.215 12.1314 131.108 11.0418 128.204 9.66626L127.348 11.4737ZM133.019 13.4373L122.714 42.0623L124.595 42.7397L134.9 14.1147L133.019 13.4373ZM124.124 41.5179C119.165 38.8838 113.449 36.6459 106.983 34.7985L106.434 36.7215C112.792 38.5381 118.373 40.7275 123.185 43.2841L124.124 41.5179ZM107.011 34.8068C100.641 32.7871 93.6676 31.783 86.0984 31.783V33.783C93.4906 33.783 100.257 34.7635 106.406 36.7132L107.011 34.8068ZM201.548 164H200.548V165H201.548V164ZM201.548 5.303V4.303H200.548V5.303H201.548ZM308.72 5.303H309.72V4.303H308.72V5.303ZM308.72 35.302V36.302H309.72V35.302H308.72ZM237.272 35.302V34.302H236.272V35.302H237.272ZM237.272 66.446H236.272V67.446H237.272V66.446ZM300.705 66.446H301.705V65.446H300.705V66.446ZM300.705 95.758V96.758H301.705V95.758H300.705ZM237.272 95.758V94.758H236.272V95.758H237.272ZM237.272 134.001H236.272V135.001H237.272V134.001ZM313.987 134.001H314.987V133.001H313.987V134.001ZM313.987 164V165H314.987V164H313.987ZM202.548 164V5.303H200.548V164H202.548ZM201.548 6.303H308.72V4.303H201.548V6.303ZM307.72 5.303V35.302H309.72V5.303H307.72ZM308.72 34.302H237.272V36.302H308.72V34.302ZM236.272 35.302V66.446H238.272V35.302H236.272ZM237.272 67.446H300.705V65.446H237.272V67.446ZM299.705 66.446V95.758H301.705V66.446H299.705ZM300.705 94.758H237.272V96.758H300.705V94.758ZM236.272 95.758V134.001H238.272V95.758H236.272ZM237.272 135.001H313.987V133.001H237.272V135.001ZM312.987 134.001V164H314.987V134.001H312.987ZM313.987 163H201.548V165H313.987V163ZM490.19 5.303H491.19V4.303H490.19V5.303ZM490.19 35.76V36.76H491.19V35.76H490.19ZM442.329 35.76V34.76H441.329V35.76H442.329ZM442.329 164V165H443.329V164H442.329ZM406.605 164H405.605V165H406.605V164ZM406.605 35.76H407.605V34.76H406.605V35.76ZM358.744 35.76H357.744V36.76H358.744V35.76ZM358.744 5.303V4.303H357.744V5.303H358.744ZM489.19 5.303V35.76H491.19V5.303H489.19ZM490.19 34.76H442.329V36.76H490.19V34.76ZM441.329 35.76V164H443.329V35.76H441.329ZM442.329 163H406.605V165H442.329V163ZM407.605 164V35.76H405.605V164H407.605ZM406.605 34.76H358.744V36.76H406.605V34.76ZM359.744 35.76V5.303H357.744V35.76H359.744ZM358.744 6.303H490.19V4.303H358.744V6.303ZM738.539 164L737.583 164.292L737.799 165H738.539V164ZM732.814 147.054L731.868 147.378L731.872 147.389L731.876 147.4L732.814 147.054ZM726.86 129.65L727.806 129.326L727.575 128.65H726.86V129.65ZM665.03 129.65V128.65H664.315L664.084 129.326L665.03 129.65ZM658.847 147.054L657.909 146.708L657.905 146.719L657.901 146.73L658.847 147.054ZM653.351 164V165H654.091L654.307 164.292L653.351 164ZM616.253 164L615.309 163.671L614.846 165H616.253V164ZM633.199 116.597L634.137 116.943L634.137 116.943L633.199 116.597ZM648.771 75.606L647.844 75.2308L647.84 75.2403L648.771 75.606ZM663.885 39.195L662.968 38.7967L662.965 38.8026L663.885 39.195ZM679.457 5.303V4.303H678.831L678.558 4.8658L679.457 5.303ZM713.578 5.303L714.482 4.87599L714.212 4.303H713.578V5.303ZM728.921 39.195L728.004 39.5933L728.006 39.5977L728.921 39.195ZM744.035 75.606L743.104 75.9717L743.108 75.9812L744.035 75.606ZM759.836 116.597L758.898 116.943L758.898 116.943L759.836 116.597ZM776.782 164V165H778.189L777.726 163.671L776.782 164ZM695.716 41.256L696.645 40.8846L695.631 38.3499L694.767 40.9398L695.716 41.256ZM692.281 50.645L691.348 50.286L691.348 50.286L692.281 50.645ZM687.014 64.385L686.08 64.0279L686.08 64.0279L687.014 64.385ZM680.373 81.56L679.442 81.1965L679.438 81.2064L679.434 81.2164L680.373 81.56ZM673.274 101.254L672.332 100.919L671.857 102.254H673.274V101.254ZM718.387 101.254V102.254H719.804L719.329 100.919L718.387 101.254ZM711.288 81.56L710.349 81.9036L710.349 81.9036L711.288 81.56ZM704.647 64.385L703.713 64.7421L703.718 64.754L703.722 64.7657L704.647 64.385ZM699.38 50.645L700.313 50.286L700.313 50.286L699.38 50.645ZM739.495 163.708C737.81 158.192 735.896 152.526 733.752 146.708L731.876 147.4C734.007 153.185 735.909 158.816 737.583 164.292L739.495 163.708ZM733.76 146.73C733.728 146.636 733.699 146.552 733.667 146.458C733.635 146.364 733.606 146.28 733.574 146.186C733.542 146.093 733.513 146.008 733.481 145.914C733.449 145.821 733.42 145.736 733.388 145.643C733.356 145.549 733.327 145.465 733.295 145.371C733.263 145.277 733.234 145.193 733.202 145.099C733.17 145.005 733.141 144.921 733.109 144.827C733.077 144.733 733.048 144.649 733.016 144.555C732.984 144.461 732.955 144.377 732.923 144.283C732.891 144.189 732.862 144.105 732.83 144.011C732.798 143.917 732.769 143.833 732.737 143.739C732.705 143.645 732.676 143.561 732.644 143.467C732.612 143.373 732.583 143.289 732.551 143.195C732.519 143.101 732.49 143.017 732.458 142.923C732.426 142.829 732.397 142.745 732.365 142.651C732.333 142.557 732.304 142.473 732.272 142.379C732.24 142.285 732.211 142.201 732.179 142.107C732.147 142.013 732.118 141.929 732.086 141.835C732.054 141.742 732.025 141.657 731.993 141.563C731.961 141.47 731.932 141.385 731.9 141.292C731.867 141.198 731.839 141.114 731.807 141.02C731.774 140.926 731.746 140.842 731.714 140.748C731.681 140.654 731.653 140.57 731.621 140.476C731.588 140.382 731.56 140.298 731.527 140.204C731.495 140.11 731.467 140.026 731.434 139.932C731.402 139.838 731.374 139.754 731.341 139.66C731.309 139.566 731.281 139.482 731.248 139.388C731.216 139.294 731.187 139.21 731.155 139.116C731.123 139.022 731.094 138.938 731.062 138.844C731.03 138.75 731.001 138.666 730.969 138.572C730.937 138.478 730.908 138.394 730.876 138.3C730.844 138.206 730.815 138.122 730.783 138.028C730.664 137.681 730.53 137.288 730.411 136.941C730.292 136.593 730.158 136.201 730.039 135.853C729.92 135.505 729.786 135.113 729.667 134.765C729.548 134.417 729.414 134.025 729.295 133.677C729.176 133.33 729.042 132.937 728.923 132.59C728.804 132.242 728.669 131.85 728.55 131.502C728.419 131.118 728.31 130.798 728.178 130.414C728.047 130.03 727.938 129.71 727.806 129.326L725.914 129.974C725.941 130.052 725.98 130.167 726.007 130.246C726.034 130.324 726.073 130.439 726.1 130.518C726.127 130.596 726.166 130.711 726.193 130.789C726.22 130.868 726.259 130.983 726.286 131.061C726.313 131.14 726.352 131.255 726.379 131.333C726.406 131.412 726.445 131.527 726.472 131.605C726.499 131.684 726.538 131.799 726.565 131.877C726.579 131.918 726.644 132.108 726.658 132.149C726.672 132.19 726.737 132.38 726.751 132.421C726.783 132.515 726.812 132.599 726.844 132.693C726.876 132.787 726.905 132.871 726.937 132.965C726.969 133.059 726.998 133.143 727.03 133.237C727.062 133.331 727.091 133.415 727.123 133.509C727.155 133.603 727.184 133.687 727.216 133.781C727.248 133.875 727.277 133.959 727.309 134.053C727.342 134.147 727.37 134.231 727.402 134.325C727.435 134.419 727.463 134.503 727.495 134.597C727.528 134.691 727.556 134.775 727.588 134.869C727.621 134.962 727.649 135.047 727.682 135.14C727.714 135.234 727.742 135.319 727.775 135.412C727.807 135.506 727.835 135.59 727.868 135.684C727.9 135.778 727.928 135.862 727.961 135.956C727.993 136.05 728.022 136.134 728.054 136.228C728.086 136.322 728.115 136.406 728.147 136.5C728.179 136.594 728.208 136.678 728.24 136.772C728.272 136.866 728.301 136.95 728.333 137.044C728.365 137.138 728.394 137.222 728.426 137.316C728.458 137.41 728.487 137.494 728.519 137.588C728.551 137.682 728.58 137.766 728.612 137.86C728.644 137.954 728.673 138.038 728.705 138.132C728.737 138.226 728.766 138.31 728.798 138.404C728.83 138.498 728.859 138.582 728.891 138.676C729.01 139.023 729.144 139.416 729.263 139.763C729.382 140.111 729.516 140.503 729.635 140.851C729.754 141.199 729.888 141.591 730.007 141.939C730.126 142.287 730.26 142.679 730.379 143.027C730.498 143.374 730.633 143.767 730.752 144.114C730.871 144.462 731.005 144.854 731.124 145.202C731.243 145.55 731.377 145.942 731.496 146.29C731.615 146.638 731.749 147.03 731.868 147.378L733.76 146.73ZM726.86 128.65H665.03V130.65H726.86V128.65ZM664.084 129.326C662.102 135.12 660.043 140.914 657.909 146.708L659.785 147.4C661.925 141.591 663.989 135.782 665.976 129.974L664.084 129.326ZM657.901 146.73C655.913 152.541 654.077 158.201 652.395 163.708L654.307 164.292C655.983 158.807 657.812 153.169 659.793 147.378L657.901 146.73ZM653.351 163H616.253V165H653.351V163ZM617.197 164.329C623.15 147.235 628.796 131.44 634.137 116.943L632.261 116.251C626.915 130.761 621.264 146.568 615.309 163.671L617.197 164.329ZM634.137 116.943C639.479 102.445 644.667 88.7883 649.702 75.9717L647.84 75.2403C642.799 88.0717 637.606 101.742 632.261 116.251L634.137 116.943ZM649.698 75.9812C654.887 63.1623 659.922 51.0311 664.805 39.5874L662.965 38.8026C658.077 50.2589 653.037 62.4017 647.844 75.2308L649.698 75.9812ZM664.802 39.5933C669.835 28.0033 675.02 16.7189 680.356 5.74019L678.558 4.8658C673.208 15.8711 668.011 27.1814 662.968 38.7967L664.802 39.5933ZM679.457 6.303H713.578V4.303H679.457V6.303ZM712.674 5.73C717.86 16.7121 722.97 27.9999 728.004 39.5933L729.838 38.7967C724.796 27.1848 719.678 15.8779 714.482 4.87599L712.674 5.73ZM728.006 39.5977C733.038 51.0343 738.071 63.1589 743.104 75.9717L744.966 75.2403C739.923 62.4051 734.88 50.2557 729.836 38.7923L728.006 39.5977ZM743.108 75.9812C748.294 88.7944 753.558 102.448 758.898 116.943L760.774 116.251C755.428 101.739 750.157 88.0656 744.962 75.2308L743.108 75.9812ZM758.898 116.943C764.239 131.44 769.885 147.235 775.838 164.329L777.726 163.671C771.771 146.568 766.12 130.761 760.774 116.251L758.898 116.943ZM776.782 163H738.539V165H776.782V163ZM694.767 40.9398C694.011 43.2086 692.872 46.3219 691.348 50.286L693.214 51.004C694.743 47.0294 695.894 43.8834 696.665 41.5722L694.767 40.9398ZM691.348 50.286C689.821 54.2561 688.065 58.8368 686.08 64.0279L687.948 64.7421C689.933 59.5519 691.688 54.9725 693.214 51.004L691.348 50.286ZM686.08 64.0279C684.096 69.216 681.884 74.9388 679.442 81.1965L681.305 81.9235C683.748 75.6625 685.962 69.9353 687.948 64.7421L686.08 64.0279ZM679.434 81.2164C677.143 87.4789 674.775 94.0464 672.332 100.919L674.216 101.589C676.658 94.7216 679.023 88.1598 681.312 81.9036L679.434 81.2164ZM673.274 102.254H718.387V100.254H673.274V102.254ZM719.329 100.919C716.886 94.0464 714.518 87.4789 712.227 81.2164L710.349 81.9036C712.638 88.1598 715.003 94.7216 717.445 101.589L719.329 100.919ZM712.227 81.2164C709.933 74.9468 707.715 69.2092 705.572 64.0042L703.722 64.7657C705.854 69.9421 708.063 75.6545 710.349 81.9036L712.227 81.2164ZM705.581 64.0279C703.596 58.8368 701.84 54.2561 700.313 50.286L698.447 51.004C699.973 54.9725 701.729 59.5519 703.713 64.7421L705.581 64.0279ZM700.313 50.286C698.786 46.315 697.563 43.1806 696.645 40.8846L694.788 41.6274C695.701 43.9114 696.921 47.0363 698.447 51.004L700.313 50.286ZM926.7 22.249L927.66 21.9681L927.449 21.249H926.7V22.249ZM932.654 43.546L931.689 43.806L931.692 43.8171L931.695 43.8282L932.654 43.546ZM939.753 67.82L938.793 68.0993L938.795 68.1073L938.798 68.1153L939.753 67.82ZM947.539 93.01L946.584 93.3053L946.584 93.3053L947.539 93.01ZM955.096 116.368L954.149 116.69L955.234 119.876L956.065 116.615L955.096 116.368ZM961.05 90.949L960.076 90.7218L960.075 90.7295L960.073 90.7372L961.05 90.949ZM967.004 62.553L966.021 62.3687L966.021 62.3687L967.004 62.553ZM972.271 33.47L971.288 33.2857L971.286 33.298L972.271 33.47ZM977.309 5.303V4.303H976.464L976.323 5.13589L977.309 5.303ZM1014.41 5.303L1015.39 5.5002L1015.63 4.303H1014.41V5.303ZM995.858 86.14L994.89 85.8911L994.888 85.8962L995.858 86.14ZM973.416 164V165H974.14L974.366 164.313L973.416 164ZM940.669 164L939.73 164.343L939.969 165H940.669V164ZM925.097 117.971L924.142 118.268L924.143 118.271L925.097 117.971ZM910.212 69.423L911.169 69.134L910.212 65.9628L909.255 69.134L910.212 69.423ZM895.556 117.971L896.513 118.263L896.513 118.26L895.556 117.971ZM880.213 164V165H880.913L881.153 164.343L880.213 164ZM847.466 164L846.516 164.313L846.743 165H847.466V164ZM824.795 86.14L823.825 86.3838L823.827 86.3889L824.795 86.14ZM806.475 5.303V4.303H805.254L805.495 5.5002L806.475 5.303ZM845.176 5.303L846.162 5.13589L846.021 4.303H845.176V5.303ZM850.214 33.47L849.231 33.6543L849.232 33.6571L850.214 33.47ZM855.939 62.553L856.919 62.3539L856.919 62.3539L855.939 62.553ZM861.893 90.949L860.916 91.1608L860.918 91.1685L860.919 91.1762L861.893 90.949ZM868.305 116.368L867.341 116.633L868.167 119.643L869.244 116.713L868.305 116.368ZM890.518 43.088L889.554 42.8233L889.551 42.8321L889.549 42.841L890.518 43.088ZM896.243 22.249V21.249H895.481L895.279 21.9838L896.243 22.249ZM925.74 22.5299C927.57 28.7808 929.553 35.8726 931.689 43.806L933.62 43.286C931.481 35.3421 929.494 28.2359 927.66 21.9681L925.74 22.5299ZM931.695 43.8282C933.984 51.6131 936.351 59.7035 938.793 68.0993L940.713 67.5407C938.27 59.1431 935.904 51.0508 933.614 43.2638L931.695 43.8282ZM938.798 68.1153C941.393 76.512 943.988 84.9086 946.584 93.3053L948.495 92.7147C945.899 84.318 943.304 75.9214 940.709 67.5247L938.798 68.1153ZM946.584 93.3053C949.181 101.71 951.703 109.505 954.149 116.69L956.043 116.046C953.604 108.881 951.088 101.104 948.495 92.7147L946.584 93.3053ZM956.065 116.615C958.053 108.816 960.041 100.331 962.027 91.1608L960.073 90.7372C958.09 99.8873 956.108 108.348 954.127 116.121L956.065 116.615ZM962.024 91.1762C964.165 82.0012 966.152 72.5215 967.987 62.7373L966.021 62.3687C964.192 72.1258 962.21 81.5768 960.076 90.7218L962.024 91.1762ZM967.987 62.7373C969.82 52.9626 971.576 43.2642 973.256 33.642L971.286 33.298C969.607 42.9118 967.853 52.6021 966.021 62.3687L967.987 62.7373ZM973.254 33.6543C975.087 23.8784 976.767 14.4836 978.295 5.4701L976.323 5.13589C974.798 14.137 973.119 23.5203 971.288 33.2857L973.254 33.6543ZM977.309 6.303H1014.41V4.303H977.309V6.303ZM1013.43 5.1058C1008.09 31.6518 1001.91 58.5802 994.89 85.8911L996.827 86.3889C1003.85 59.0451 1010.04 32.0822 1015.39 5.5002L1013.43 5.1058ZM994.888 85.8962C988.024 113.202 980.55 139.133 972.466 163.687L974.366 164.313C982.465 139.709 989.953 113.732 996.828 86.3838L994.888 85.8962ZM973.416 163H940.669V165H973.416V163ZM941.609 163.657C936.271 149.017 931.085 133.688 926.051 117.671L924.143 118.271C929.185 134.314 934.381 149.671 939.73 164.343L941.609 163.657ZM926.052 117.674C921.015 101.494 916.054 85.3139 911.169 69.134L909.255 69.712C914.141 85.8974 919.103 102.083 924.142 118.268L926.052 117.674ZM909.255 69.134C909.245 69.1656 909.236 69.1972 909.226 69.2288C909.217 69.2604 909.207 69.292 909.198 69.3236C909.188 69.3552 909.178 69.3868 909.169 69.4185C909.159 69.4501 909.15 69.4817 909.14 69.5133C909.131 69.5449 909.121 69.5765 909.112 69.6081C909.102 69.6397 909.093 69.6713 909.083 69.7029C909.074 69.7345 909.064 69.7661 909.054 69.7977C909.045 69.8293 909.035 69.8609 909.026 69.8926C909.016 69.9242 909.007 69.9558 908.997 69.9874C908.988 70.019 908.978 70.0506 908.969 70.0822C908.959 70.1138 908.949 70.1454 908.94 70.177C908.93 70.2086 908.921 70.2402 908.911 70.2718C908.902 70.3034 908.892 70.335 908.883 70.3667C908.873 70.3983 908.864 70.4299 908.854 70.4615C908.845 70.4931 908.835 70.5247 908.825 70.5563C908.816 70.5879 908.806 70.6195 908.797 70.6511C908.787 70.6827 908.778 70.7143 908.768 70.7459C908.759 70.7775 908.749 70.8092 908.74 70.8408C908.73 70.8724 908.72 70.904 908.711 70.9356C908.701 70.9672 908.692 70.9988 908.682 71.0304C908.673 71.062 908.663 71.0936 908.654 71.1252C908.644 71.1568 908.635 71.1884 908.625 71.22C908.616 71.2516 908.606 71.2833 908.596 71.3149C908.587 71.3465 908.577 71.3781 908.568 71.4097C908.558 71.4413 908.549 71.4729 908.539 71.5045C908.53 71.5361 908.52 71.5677 908.511 71.5993C908.501 71.6309 908.491 71.6625 908.482 71.6941C908.472 71.7257 908.463 71.7574 908.453 71.789C908.444 71.8206 908.434 71.8522 908.425 71.8838C908.415 71.9154 908.406 71.947 908.396 71.9786C908.387 72.0102 908.377 72.0418 908.367 72.0734C908.358 72.105 908.348 72.1366 908.339 72.1682C908.329 72.1998 908.32 72.2315 908.31 72.2631C908.301 72.2947 908.291 72.3263 908.282 72.3579C908.272 72.3895 908.262 72.4211 908.253 72.4527C908.243 72.4843 908.234 72.5159 908.224 72.5475C908.215 72.5791 908.205 72.6107 908.196 72.6423C908.186 72.6739 908.177 72.7056 908.167 72.7372C908.158 72.7688 908.148 72.8004 908.138 72.832C908.129 72.8636 908.119 72.8952 908.11 72.9268C908.1 72.9584 908.091 72.99 908.081 73.0216C908.072 73.0532 908.062 73.0848 908.053 73.1164C908.043 73.1481 908.033 73.1797 908.024 73.2113C908.014 73.2429 908.005 73.2745 907.995 73.3061C907.986 73.3377 907.976 73.3693 907.967 73.4009C907.957 73.4325 907.948 73.4641 907.938 73.4957C907.929 73.5273 907.919 73.5589 907.909 73.5905C907.9 73.6222 907.89 73.6538 907.881 73.6854C907.871 73.717 907.862 73.7486 907.852 73.7802C907.843 73.8118 907.833 73.8434 907.824 73.875C907.814 73.9066 907.804 73.9382 907.795 73.9698C907.785 74.0014 907.776 74.033 907.766 74.0646C907.757 74.0963 907.747 74.1279 907.738 74.1595C907.728 74.1911 907.719 74.2227 907.709 74.2543C907.7 74.2859 907.69 74.3175 907.68 74.3491C907.671 74.3807 907.661 74.4123 907.652 74.4439C907.642 74.4755 907.633 74.5071 907.623 74.5387C907.614 74.5704 907.604 74.602 907.595 74.6336C907.585 74.6652 907.575 74.6968 907.566 74.7284C907.556 74.76 907.547 74.7916 907.537 74.8232C907.528 74.8548 907.518 74.8864 907.509 74.918C907.499 74.9496 907.49 74.9812 907.48 75.0129C907.471 75.0445 907.461 75.0761 907.451 75.1077C907.442 75.1393 907.432 75.1709 907.423 75.2025C907.413 75.2341 907.404 75.2657 907.394 75.2973C907.385 75.3289 907.375 75.3605 907.366 75.3921C907.356 75.4237 907.346 75.4553 907.337 75.487C907.327 75.5186 907.318 75.5502 907.308 75.5818C907.299 75.6134 907.289 75.645 907.28 75.6766C907.27 75.7082 907.261 75.7398 907.251 75.7714C907.242 75.803 907.232 75.8346 907.222 75.8662C907.213 75.8978 907.203 75.9294 907.194 75.9611C907.184 75.9927 907.175 76.0243 907.165 76.0559C907.156 76.0875 907.146 76.1191 907.137 76.1507C907.127 76.1823 907.117 76.2139 907.108 76.2455C907.098 76.2771 907.089 76.3087 907.079 76.3403C907.07 76.3719 907.06 76.4035 907.051 76.4352C907.041 76.4668 907.032 76.4984 907.022 76.53C907.013 76.5616 907.003 76.5932 906.993 76.6248C906.984 76.6564 906.974 76.688 906.965 76.7196C906.955 76.7512 906.946 76.7828 906.936 76.8144C906.927 76.846 906.917 76.8777 906.908 76.9093C906.898 76.9409 906.888 76.9725 906.879 77.0041C906.869 77.0357 906.86 77.0673 906.85 77.0989C906.841 77.1305 906.831 77.1621 906.822 77.1937C906.812 77.2253 906.803 77.2569 906.793 77.2885C906.784 77.3201 906.774 77.3518 906.764 77.3834C906.755 77.415 906.745 77.4466 906.736 77.4782C906.726 77.5098 906.717 77.5414 906.707 77.573C906.698 77.6046 906.688 77.6362 906.679 77.6678C906.669 77.6994 906.659 77.731 906.65 77.7626C906.64 77.7942 906.631 77.8259 906.621 77.8575C906.612 77.8891 906.602 77.9207 906.593 77.9523C906.583 77.9839 906.574 78.0155 906.564 78.0471C906.555 78.0787 906.545 78.1103 906.535 78.1419C906.526 78.1735 906.516 78.2051 906.507 78.2367C906.497 78.2683 906.488 78.3 906.478 78.3316C906.469 78.3632 906.459 78.3948 906.45 78.4264C906.44 78.458 906.43 78.4896 906.421 78.5212C906.411 78.5528 906.402 78.5844 906.392 78.616C906.383 78.6476 906.373 78.6792 906.364 78.7108C906.354 78.7425 906.345 78.7741 906.335 78.8057C906.326 78.8373 906.316 78.8689 906.306 78.9005C906.297 78.9321 906.287 78.9637 906.278 78.9953C906.268 79.0269 906.259 79.0585 906.249 79.0901C906.24 79.1217 906.23 79.1533 906.221 79.1849C906.211 79.2166 906.201 79.2482 906.192 79.2798C906.182 79.3114 906.173 79.343 906.163 79.3746C906.154 79.4062 906.144 79.4378 906.135 79.4694C906.125 79.501 906.116 79.5326 906.106 79.5642C906.097 79.5958 906.087 79.6274 906.077 79.659C906.068 79.6907 906.058 79.7223 906.049 79.7539C906.039 79.7855 906.03 79.8171 906.02 79.8487C906.011 79.8803 906.001 79.9119 905.992 79.9435C905.982 79.9751 905.972 80.0067 905.963 80.0383C905.953 80.0699 905.944 80.1015 905.934 80.1331C905.925 80.1648 905.915 80.1964 905.906 80.228C905.896 80.2596 905.887 80.2912 905.877 80.3228C905.868 80.3544 905.858 80.386 905.848 80.4176C905.839 80.4492 905.829 80.4808 905.82 80.5124C905.81 80.544 905.801 80.5756 905.791 80.6072C905.782 80.6389 905.772 80.6705 905.763 80.7021C905.753 80.7337 905.743 80.7653 905.734 80.7969C905.724 80.8285 905.715 80.8601 905.705 80.8917C905.696 80.9233 905.686 80.9549 905.677 80.9865C905.667 81.0181 905.658 81.0497 905.648 81.0814C905.639 81.113 905.629 81.1446 905.619 81.1762C905.61 81.2078 905.6 81.2394 905.591 81.271C905.581 81.3026 905.572 81.3342 905.562 81.3658C905.553 81.3974 905.543 81.429 905.534 81.4606C905.524 81.4922 905.514 81.5238 905.505 81.5555C905.495 81.5871 905.486 81.6187 905.476 81.6503C905.467 81.6819 905.457 81.7135 905.448 81.7451C905.438 81.7767 905.429 81.8083 905.419 81.8399C905.41 81.8715 905.4 81.9031 905.39 81.9347C905.381 81.9663 905.371 81.9979 905.362 82.0296C905.352 82.0612 905.343 82.0928 905.333 82.1244C905.324 82.156 905.314 82.1876 905.305 82.2192C905.295 82.2508 905.285 82.2824 905.276 82.314C905.266 82.3456 905.257 82.3772 905.247 82.4088C905.238 82.4404 905.228 82.472 905.219 82.5037C905.209 82.5353 905.2 82.5669 905.19 82.5985C905.181 82.6301 905.171 82.6617 905.161 82.6933C905.152 82.7249 905.142 82.7565 905.133 82.7881C905.123 82.8197 905.114 82.8513 905.104 82.8829C905.095 82.9145 905.085 82.9462 905.076 82.9778C905.066 83.0094 905.056 83.041 905.047 83.0726C905.037 83.1042 905.028 83.1358 905.018 83.1674C905.009 83.199 904.999 83.2306 904.99 83.2622C904.98 83.2938 904.971 83.3254 904.961 83.357C904.952 83.3886 904.942 83.4203 904.932 83.4519C904.923 83.4835 904.913 83.5151 904.904 83.5467C904.894 83.5783 904.885 83.6099 904.875 83.6415C904.866 83.6731 904.856 83.7047 904.847 83.7363C904.837 83.7679 904.827 83.7995 904.818 83.8311C904.808 83.8627 904.799 83.8944 904.789 83.926C904.78 83.9576 904.77 83.9892 904.761 84.0208C904.751 84.0524 904.742 84.084 904.732 84.1156C904.723 84.1472 904.713 84.1788 904.703 84.2104C904.694 84.242 904.684 84.2736 904.675 84.3052C904.665 84.3368 904.656 84.3685 904.646 84.4001C904.637 84.4317 904.627 84.4633 904.618 84.4949C904.608 84.5265 904.598 84.5581 904.589 84.5897C904.579 84.6213 904.57 84.6529 904.56 84.6845C904.551 84.7161 904.541 84.7477 904.532 84.7793C904.522 84.811 904.513 84.8426 904.503 84.8742C904.494 84.9058 904.484 84.9374 904.474 84.969C904.465 85.0006 904.455 85.0322 904.446 85.0638C904.436 85.0954 904.427 85.127 904.417 85.1586C904.408 85.1902 904.398 85.2218 904.389 85.2534C904.379 85.2851 904.369 85.3167 904.36 85.3483C904.35 85.3799 904.341 85.4115 904.331 85.4431C904.322 85.4747 904.312 85.5063 904.303 85.5379C904.293 85.5695 904.284 85.6011 904.274 85.6327C904.265 85.6643 904.255 85.6959 904.245 85.7275C904.236 85.7592 904.226 85.7908 904.217 85.8224C904.207 85.854 904.198 85.8856 904.188 85.9172C904.179 85.9488 904.169 85.9804 904.16 86.012C904.15 86.0436 904.14 86.0752 904.131 86.1068C904.121 86.1384 904.112 86.17 904.102 86.2016C904.093 86.2333 904.083 86.2649 904.074 86.2965C904.064 86.3281 904.055 86.3597 904.045 86.3913C904.036 86.4229 904.026 86.4545 904.016 86.4861C904.007 86.5177 903.997 86.5493 903.988 86.5809C903.978 86.6125 903.969 86.6441 903.959 86.6758C903.95 86.7074 903.94 86.739 903.931 86.7706C903.921 86.8022 903.911 86.8338 903.902 86.8654C903.892 86.897 903.883 86.9286 903.873 86.9602C903.864 86.9918 903.854 87.0234 903.845 87.055C903.835 87.0866 903.826 87.1182 903.816 87.1499C903.807 87.1815 903.797 87.2131 903.787 87.2447C903.778 87.2763 903.768 87.3079 903.759 87.3395C903.749 87.3711 903.74 87.4027 903.73 87.4343C903.721 87.4659 903.711 87.4975 903.702 87.5291C903.692 87.5607 903.682 87.5923 903.673 87.624C903.663 87.6556 903.654 87.6872 903.644 87.7188C903.635 87.7504 903.625 87.782 903.616 87.8136C903.606 87.8452 903.597 87.8768 903.587 87.9084C903.578 87.94 903.568 87.9716 903.558 88.0032C903.549 88.0348 903.539 88.0664 903.53 88.0981C903.52 88.1297 903.511 88.1613 903.501 88.1929C903.492 88.2245 903.482 88.2561 903.473 88.2877C903.463 88.3193 903.453 88.3509 903.444 88.3825C903.434 88.4141 903.425 88.4457 903.415 88.4773C903.406 88.5089 903.396 88.5405 903.387 88.5722C903.377 88.6038 903.368 88.6354 903.358 88.667C903.349 88.6986 903.339 88.7302 903.329 88.7618C903.32 88.7934 903.31 88.825 903.301 88.8566C903.291 88.8882 903.282 88.9198 903.272 88.9514C903.263 88.983 903.253 89.0147 903.244 89.0463C903.234 89.0779 903.224 89.1095 903.215 89.1411C903.205 89.1727 903.196 89.2043 903.186 89.2359C903.177 89.2675 903.167 89.2991 903.158 89.3307C903.148 89.3623 903.139 89.3939 903.129 89.4255C903.12 89.4571 903.11 89.4888 903.1 89.5204C903.091 89.552 903.081 89.5836 903.072 89.6152C903.062 89.6468 903.053 89.6784 903.043 89.71C903.034 89.7416 903.024 89.7732 903.015 89.8048C903.005 89.8364 902.995 89.868 902.986 89.8996C902.976 89.9312 902.967 89.9629 902.957 89.9945C902.948 90.0261 902.938 90.0577 902.929 90.0893C902.919 90.1209 902.91 90.1525 902.9 90.1841C902.891 90.2157 902.881 90.2473 902.871 90.2789C902.862 90.3105 902.852 90.3421 902.843 90.3737C902.833 90.4053 902.824 90.437 902.814 90.4686C902.805 90.5002 902.795 90.5318 902.786 90.5634C902.776 90.595 902.766 90.6266 902.757 90.6582C902.747 90.6898 902.738 90.7214 902.728 90.753C902.719 90.7846 902.709 90.8162 902.7 90.8478C902.69 90.8795 902.681 90.9111 902.671 90.9427C902.662 90.9743 902.652 91.0059 902.642 91.0375C902.633 91.0691 902.623 91.1007 902.614 91.1323C902.604 91.1639 902.595 91.1955 902.585 91.2271C902.576 91.2587 902.566 91.2903 902.557 91.3219C902.547 91.3536 902.537 91.3852 902.528 91.4168C902.518 91.4484 902.509 91.48 902.499 91.5116C902.49 91.5432 902.48 91.5748 902.471 91.6064C902.461 91.638 902.452 91.6696 902.442 91.7012C902.433 91.7328 902.423 91.7644 902.413 91.796C902.404 91.8277 902.394 91.8593 902.385 91.8909C902.375 91.9225 902.366 91.9541 902.356 91.9857C902.347 92.0173 902.337 92.0489 902.328 92.0805C902.318 92.1121 902.308 92.1437 902.299 92.1753C902.289 92.2069 902.28 92.2385 902.27 92.2701C902.261 92.3018 902.251 92.3334 902.242 92.365C902.232 92.3966 902.223 92.4282 902.213 92.4598C902.204 92.4914 902.194 92.523 902.184 92.5546C902.175 92.5862 902.165 92.6178 902.156 92.6494C902.146 92.681 902.137 92.7126 902.127 92.7443C902.118 92.7759 902.108 92.8075 902.099 92.8391C902.089 92.8707 902.079 92.9023 902.07 92.9339C902.06 92.9655 902.051 92.9971 902.041 93.0287C902.032 93.0603 902.022 93.0919 902.013 93.1235C902.003 93.1551 901.994 93.1867 901.984 93.2184C901.975 93.25 901.965 93.2816 901.955 93.3132C901.946 93.3448 901.936 93.3764 901.927 93.408C901.917 93.4396 901.908 93.4712 901.898 93.5028C901.889 93.5344 901.879 93.566 901.87 93.5976C901.86 93.6292 901.85 93.6608 901.841 93.6925C901.831 93.7241 901.822 93.7557 901.812 93.7873C901.803 93.8189 901.793 93.8505 901.784 93.8821C901.774 93.9137 901.765 93.9453 901.755 93.9769C901.746 94.0085 901.736 94.0401 901.726 94.0717C901.717 94.1033 901.707 94.1349 901.698 94.1666C901.688 94.1982 901.679 94.2298 901.669 94.2614C901.66 94.293 901.65 94.3246 901.641 94.3562C901.631 94.3878 901.621 94.4194 901.612 94.451C901.602 94.4826 901.593 94.5142 901.583 94.5458C901.574 94.5774 901.564 94.6091 901.555 94.6407C901.545 94.6723 901.536 94.7039 901.526 94.7355C901.517 94.7671 901.507 94.7987 901.497 94.8303C901.488 94.8619 901.478 94.8935 901.469 94.9251C901.459 94.9567 901.45 94.9883 901.44 95.0199C901.431 95.0515 901.421 95.0832 901.412 95.1148C901.402 95.1464 901.392 95.178 901.383 95.2096C901.373 95.2412 901.364 95.2728 901.354 95.3044C901.345 95.336 901.335 95.3676 901.326 95.3992C901.316 95.4308 901.307 95.4624 901.297 95.494C901.288 95.5256 901.278 95.5573 901.268 95.5889C901.259 95.6205 901.249 95.6521 901.24 95.6837C901.23 95.7153 901.221 95.7469 901.211 95.7785C901.202 95.8101 901.192 95.8417 901.183 95.8733C901.173 95.9049 901.163 95.9365 901.154 95.9681C901.144 95.9997 901.135 96.0314 901.125 96.063C901.116 96.0946 901.106 96.1262 901.097 96.1578C901.087 96.1894 901.078 96.221 901.068 96.2526C901.059 96.2842 901.049 96.3158 901.039 96.3474C901.03 96.379 901.02 96.4106 901.011 96.4422C901.001 96.4738 900.992 96.5055 900.982 96.5371C900.973 96.5687 900.963 96.6003 900.954 96.6319C900.944 96.6635 900.934 96.6951 900.925 96.7267C900.915 96.7583 900.906 96.7899 900.896 96.8215C900.887 96.8531 900.877 96.8847 900.868 96.9163C900.858 96.948 900.849 96.9796 900.839 97.0112C900.83 97.0428 900.82 97.0744 900.81 97.106C900.801 97.1376 900.791 97.1692 900.782 97.2008C900.772 97.2324 900.763 97.264 900.753 97.2956C900.744 97.3272 900.734 97.3588 900.725 97.3904C900.715 97.4221 900.705 97.4537 900.696 97.4853C900.686 97.5169 900.677 97.5485 900.667 97.5801C900.658 97.6117 900.648 97.6433 900.639 97.6749C900.629 97.7065 900.62 97.7381 900.61 97.7697C900.601 97.8013 900.591 97.8329 900.581 97.8645C900.572 97.8962 900.562 97.9278 900.553 97.9594C900.543 97.991 900.534 98.0226 900.524 98.0542C900.515 98.0858 900.505 98.1174 900.496 98.149C900.486 98.1806 900.476 98.2122 900.467 98.2438C900.457 98.2754 900.448 98.307 900.438 98.3386C900.429 98.3703 900.419 98.4019 900.41 98.4335C900.4 98.4651 900.391 98.4967 900.381 98.5283C900.372 98.5599 900.362 98.5915 900.352 98.6231C900.343 98.6547 900.333 98.6863 900.324 98.7179C900.314 98.7495 900.305 98.7811 900.295 98.8128C900.286 98.8444 900.276 98.876 900.267 98.9076C900.257 98.9392 900.247 98.9708 900.238 99.0024C900.228 99.034 900.219 99.0656 900.209 99.0972C900.2 99.1288 900.19 99.1604 900.181 99.192C900.171 99.2236 900.162 99.2552 900.152 99.2869C900.143 99.3185 900.133 99.3501 900.123 99.3817C900.114 99.4133 900.104 99.4449 900.095 99.4765C900.085 99.5081 900.076 99.5397 900.066 99.5713C900.057 99.6029 900.047 99.6345 900.038 99.6661C900.028 99.6977 900.018 99.7293 900.009 99.761C899.999 99.7926 899.99 99.8242 899.98 99.8558C899.971 99.8874 899.961 99.919 899.952 99.9506C899.942 99.9822 899.933 100.014 899.923 100.045C899.914 100.077 899.904 100.109 899.894 100.14C899.885 100.172 899.875 100.203 899.866 100.235C899.856 100.267 899.847 100.298 899.837 100.33C899.828 100.361 899.818 100.393 899.809 100.425C899.799 100.456 899.789 100.488 899.78 100.52C899.77 100.551 899.761 100.583 899.751 100.614C899.742 100.646 899.732 100.678 899.723 100.709C899.713 100.741 899.704 100.772 899.694 100.804C899.685 100.836 899.675 100.867 899.665 100.899C899.656 100.93 899.646 100.962 899.637 100.994C899.627 101.025 899.618 101.057 899.608 101.088C899.599 101.12 899.589 101.152 899.58 101.183C899.57 101.215 899.56 101.246 899.551 101.278C899.541 101.31 899.532 101.341 899.522 101.373C899.513 101.405 899.503 101.436 899.494 101.468C899.484 101.499 899.475 101.531 899.465 101.563C899.456 101.594 899.446 101.626 899.436 101.657C899.427 101.689 899.417 101.721 899.408 101.752C899.398 101.784 899.389 101.815 899.379 101.847C899.37 101.879 899.36 101.91 899.351 101.942C899.341 101.973 899.331 102.005 899.322 102.037C899.312 102.068 899.303 102.1 899.293 102.131C899.284 102.163 899.274 102.195 899.265 102.226C899.255 102.258 899.246 102.289 899.236 102.321C899.227 102.353 899.217 102.384 899.207 102.416C899.198 102.448 899.188 102.479 899.179 102.511C899.169 102.542 899.16 102.574 899.15 102.606C899.141 102.637 899.131 102.669 899.122 102.7C899.112 102.732 899.102 102.764 899.093 102.795C899.083 102.827 899.074 102.858 899.064 102.89C899.055 102.922 899.045 102.953 899.036 102.985C899.026 103.016 899.017 103.048 899.007 103.08C898.998 103.111 898.988 103.143 898.978 103.174C898.969 103.206 898.959 103.238 898.95 103.269C898.94 103.301 898.931 103.333 898.921 103.364C898.912 103.396 898.902 103.427 898.893 103.459C898.883 103.491 898.873 103.522 898.864 103.554C898.854 103.585 898.845 103.617 898.835 103.649C898.826 103.68 898.816 103.712 898.807 103.743C898.797 103.775 898.788 103.807 898.778 103.838C898.769 103.87 898.759 103.901 898.749 103.933C898.74 103.965 898.73 103.996 898.721 104.028C898.711 104.059 898.702 104.091 898.692 104.123C898.683 104.154 898.673 104.186 898.664 104.218C898.654 104.249 898.644 104.281 898.635 104.312C898.625 104.344 898.616 104.376 898.606 104.407C898.597 104.439 898.587 104.47 898.578 104.502C898.568 104.534 898.559 104.565 898.549 104.597C898.54 104.628 898.53 104.66 898.52 104.692C898.511 104.723 898.501 104.755 898.492 104.786C898.482 104.818 898.473 104.85 898.463 104.881C898.454 104.913 898.444 104.944 898.435 104.976C898.425 105.008 898.415 105.039 898.406 105.071C898.396 105.102 898.387 105.134 898.377 105.166C898.368 105.197 898.358 105.229 898.349 105.261C898.339 105.292 898.33 105.324 898.32 105.355C898.311 105.387 898.301 105.419 898.291 105.45C898.282 105.482 898.272 105.513 898.263 105.545C898.253 105.577 898.244 105.608 898.234 105.64C898.225 105.671 898.215 105.703 898.206 105.735C898.196 105.766 898.186 105.798 898.177 105.829C898.167 105.861 898.158 105.893 898.148 105.924C898.139 105.956 898.129 105.987 898.12 106.019C898.11 106.051 898.101 106.082 898.091 106.114C898.082 106.146 898.072 106.177 898.062 106.209C898.053 106.24 898.043 106.272 898.034 106.304C898.024 106.335 898.015 106.367 898.005 106.398C897.996 106.43 897.986 106.462 897.977 106.493C897.967 106.525 897.957 106.556 897.948 106.588C897.938 106.62 897.929 106.651 897.919 106.683C897.91 106.714 897.9 106.746 897.891 106.778C897.881 106.809 897.872 106.841 897.862 106.872C897.853 106.904 897.843 106.936 897.833 106.967C897.824 106.999 897.814 107.031 897.805 107.062C897.795 107.094 897.786 107.125 897.776 107.157C897.767 107.189 897.757 107.22 897.748 107.252C897.738 107.283 897.728 107.315 897.719 107.347C897.709 107.378 897.7 107.41 897.69 107.441C897.681 107.473 897.671 107.505 897.662 107.536C897.652 107.568 897.643 107.599 897.633 107.631C897.624 107.663 897.614 107.694 897.604 107.726C897.595 107.757 897.585 107.789 897.576 107.821C897.566 107.852 897.557 107.884 897.547 107.916C897.538 107.947 897.528 107.979 897.519 108.01C897.509 108.042 897.499 108.074 897.49 108.105C897.48 108.137 897.471 108.168 897.461 108.2C897.452 108.232 897.442 108.263 897.433 108.295C897.423 108.326 897.414 108.358 897.404 108.39C897.395 108.421 897.385 108.453 897.375 108.484C897.366 108.516 897.356 108.548 897.347 108.579C897.337 108.611 897.328 108.642 897.318 108.674C897.309 108.706 897.299 108.737 897.29 108.769C897.28 108.8 897.27 108.832 897.261 108.864C897.251 108.895 897.242 108.927 897.232 108.959C897.223 108.99 897.213 109.022 897.204 109.053C897.194 109.085 897.185 109.117 897.175 109.148C897.166 109.18 897.156 109.211 897.146 109.243C897.137 109.275 897.127 109.306 897.118 109.338C897.108 109.369 897.099 109.401 897.089 109.433C897.08 109.464 897.07 109.496 897.061 109.527C897.051 109.559 897.041 109.591 897.032 109.622C897.022 109.654 897.013 109.685 897.003 109.717C896.994 109.749 896.984 109.78 896.975 109.812C896.965 109.844 896.956 109.875 896.946 109.907C896.937 109.938 896.927 109.97 896.917 110.002C896.908 110.033 896.898 110.065 896.889 110.096C896.879 110.128 896.87 110.16 896.86 110.191C896.851 110.223 896.841 110.254 896.832 110.286C896.822 110.318 896.812 110.349 896.803 110.381C896.793 110.412 896.784 110.444 896.774 110.476C896.765 110.507 896.755 110.539 896.746 110.57C896.736 110.602 896.727 110.634 896.717 110.665C896.708 110.697 896.698 110.729 896.688 110.76C896.679 110.792 896.669 110.823 896.66 110.855C896.65 110.887 896.641 110.918 896.631 110.95C896.622 110.981 896.612 111.013 896.603 111.045C896.593 111.076 896.583 111.108 896.574 111.139C896.564 111.171 896.555 111.203 896.545 111.234C896.536 111.266 896.526 111.297 896.517 111.329C896.507 111.361 896.498 111.392 896.488 111.424C896.479 111.455 896.469 111.487 896.459 111.519C896.45 111.55 896.44 111.582 896.431 111.613C896.421 111.645 896.412 111.677 896.402 111.708C896.393 111.74 896.383 111.772 896.374 111.803C896.364 111.835 896.354 111.866 896.345 111.898C896.335 111.93 896.326 111.961 896.316 111.993C896.307 112.024 896.297 112.056 896.288 112.088C896.278 112.119 896.269 112.151 896.259 112.182C896.25 112.214 896.24 112.246 896.23 112.277C896.221 112.309 896.211 112.34 896.202 112.372C896.192 112.404 896.183 112.435 896.173 112.467C896.164 112.498 896.154 112.53 896.145 112.562C896.135 112.593 896.125 112.625 896.116 112.657C896.106 112.688 896.097 112.72 896.087 112.751C896.078 112.783 896.068 112.815 896.059 112.846C896.049 112.878 896.04 112.909 896.03 112.941C896.021 112.973 896.011 113.004 896.001 113.036C895.992 113.067 895.982 113.099 895.973 113.131C895.963 113.162 895.954 113.194 895.944 113.225C895.935 113.257 895.925 113.289 895.916 113.32C895.906 113.352 895.896 113.383 895.887 113.415C895.877 113.447 895.868 113.478 895.858 113.51C895.849 113.542 895.839 113.573 895.83 113.605C895.82 113.636 895.811 113.668 895.801 113.7C895.792 113.731 895.782 113.763 895.772 113.794C895.763 113.826 895.753 113.858 895.744 113.889C895.734 113.921 895.725 113.952 895.715 113.984C895.706 114.016 895.696 114.047 895.687 114.079C895.677 114.11 895.667 114.142 895.658 114.174C895.648 114.205 895.639 114.237 895.629 114.268C895.62 114.3 895.61 114.332 895.601 114.363C895.591 114.395 895.582 114.426 895.572 114.458C895.563 114.49 895.553 114.521 895.543 114.553C895.534 114.585 895.524 114.616 895.515 114.648C895.505 114.679 895.496 114.711 895.486 114.743C895.477 114.774 895.467 114.806 895.458 114.837C895.448 114.869 895.438 114.901 895.429 114.932C895.419 114.964 895.41 114.995 895.4 115.027C895.391 115.059 895.381 115.09 895.372 115.122C895.362 115.153 895.353 115.185 895.343 115.217C895.334 115.248 895.324 115.28 895.314 115.311C895.305 115.343 895.295 115.375 895.286 115.406C895.276 115.438 895.267 115.47 895.257 115.501C895.248 115.533 895.238 115.564 895.229 115.596C895.219 115.628 895.209 115.659 895.2 115.691C895.19 115.722 895.181 115.754 895.171 115.786C895.162 115.817 895.152 115.849 895.143 115.88C895.133 115.912 895.124 115.944 895.114 115.975C895.105 116.007 895.095 116.038 895.085 116.07C895.076 116.102 895.066 116.133 895.057 116.165C895.047 116.196 895.038 116.228 895.028 116.26C895.019 116.291 895.009 116.323 895 116.355C894.99 116.386 894.98 116.418 894.971 116.449C894.961 116.481 894.952 116.513 894.942 116.544C894.933 116.576 894.923 116.607 894.914 116.639C894.904 116.671 894.895 116.702 894.885 116.734C894.876 116.765 894.866 116.797 894.856 116.829C894.847 116.86 894.837 116.892 894.828 116.923C894.818 116.955 894.809 116.987 894.799 117.018C894.79 117.05 894.78 117.081 894.771 117.113C894.761 117.145 894.751 117.176 894.742 117.208C894.732 117.239 894.723 117.271 894.713 117.303C894.704 117.334 894.694 117.366 894.685 117.398C894.675 117.429 894.666 117.461 894.656 117.492C894.647 117.524 894.637 117.556 894.627 117.587C894.618 117.619 894.608 117.65 894.599 117.682L896.513 118.26C896.523 118.228 896.533 118.197 896.542 118.165C896.552 118.134 896.561 118.102 896.571 118.07C896.58 118.039 896.59 118.007 896.599 117.976C896.609 117.944 896.618 117.912 896.628 117.881C896.638 117.849 896.647 117.818 896.657 117.786C896.666 117.754 896.676 117.723 896.685 117.691C896.695 117.659 896.704 117.628 896.714 117.596C896.723 117.565 896.733 117.533 896.742 117.501C896.752 117.47 896.762 117.438 896.771 117.407C896.781 117.375 896.79 117.343 896.8 117.312C896.809 117.28 896.819 117.249 896.828 117.217C896.838 117.185 896.847 117.154 896.857 117.122C896.867 117.091 896.876 117.059 896.886 117.027C896.895 116.996 896.905 116.964 896.914 116.933C896.924 116.901 896.933 116.869 896.943 116.838C896.952 116.806 896.962 116.774 896.971 116.743C896.981 116.711 896.991 116.68 897 116.648C897.01 116.616 897.019 116.585 897.029 116.553C897.038 116.522 897.048 116.49 897.057 116.458C897.067 116.427 897.076 116.395 897.086 116.364C897.096 116.332 897.105 116.3 897.115 116.269C897.124 116.237 897.134 116.206 897.143 116.174C897.153 116.142 897.162 116.111 897.172 116.079C897.181 116.048 897.191 116.016 897.2 115.984C897.21 115.953 897.22 115.921 897.229 115.889C897.239 115.858 897.248 115.826 897.258 115.795C897.267 115.763 897.277 115.731 897.286 115.7C897.296 115.668 897.305 115.637 897.315 115.605C897.325 115.573 897.334 115.542 897.344 115.51C897.353 115.479 897.363 115.447 897.372 115.415C897.382 115.384 897.391 115.352 897.401 115.321C897.41 115.289 897.42 115.257 897.429 115.226C897.439 115.194 897.449 115.163 897.458 115.131C897.468 115.099 897.477 115.068 897.487 115.036C897.496 115.005 897.506 114.973 897.515 114.941C897.525 114.91 897.534 114.878 897.544 114.846C897.554 114.815 897.563 114.783 897.573 114.752C897.582 114.72 897.592 114.688 897.601 114.657C897.611 114.625 897.62 114.594 897.63 114.562C897.639 114.53 897.649 114.499 897.658 114.467C897.668 114.436 897.678 114.404 897.687 114.372C897.697 114.341 897.706 114.309 897.716 114.278C897.725 114.246 897.735 114.214 897.744 114.183C897.754 114.151 897.763 114.12 897.773 114.088C897.783 114.056 897.792 114.025 897.802 113.993C897.811 113.961 897.821 113.93 897.83 113.898C897.84 113.867 897.849 113.835 897.859 113.803C897.868 113.772 897.878 113.74 897.887 113.709C897.897 113.677 897.907 113.645 897.916 113.614C897.926 113.582 897.935 113.551 897.945 113.519C897.954 113.487 897.964 113.456 897.973 113.424C897.983 113.393 897.992 113.361 898.002 113.329C898.012 113.298 898.021 113.266 898.031 113.235C898.04 113.203 898.05 113.171 898.059 113.14C898.069 113.108 898.078 113.076 898.088 113.045C898.097 113.013 898.107 112.982 898.116 112.95C898.126 112.918 898.136 112.887 898.145 112.855C898.155 112.824 898.164 112.792 898.174 112.76C898.183 112.729 898.193 112.697 898.202 112.666C898.212 112.634 898.221 112.602 898.231 112.571C898.241 112.539 898.25 112.508 898.26 112.476C898.269 112.444 898.279 112.413 898.288 112.381C898.298 112.35 898.307 112.318 898.317 112.286C898.326 112.255 898.336 112.223 898.345 112.192C898.355 112.16 898.365 112.128 898.374 112.097C898.384 112.065 898.393 112.033 898.403 112.002C898.412 111.97 898.422 111.939 898.431 111.907C898.441 111.875 898.45 111.844 898.46 111.812C898.47 111.781 898.479 111.749 898.489 111.717C898.498 111.686 898.508 111.654 898.517 111.623C898.527 111.591 898.536 111.559 898.546 111.528C898.555 111.496 898.565 111.465 898.574 111.433C898.584 111.401 898.594 111.37 898.603 111.338C898.613 111.307 898.622 111.275 898.632 111.243C898.641 111.212 898.651 111.18 898.66 111.148C898.67 111.117 898.679 111.085 898.689 111.054C898.699 111.022 898.708 110.99 898.718 110.959C898.727 110.927 898.737 110.896 898.746 110.864C898.756 110.832 898.765 110.801 898.775 110.769C898.784 110.738 898.794 110.706 898.803 110.674C898.813 110.643 898.823 110.611 898.832 110.58C898.842 110.548 898.851 110.516 898.861 110.485C898.87 110.453 898.88 110.422 898.889 110.39C898.899 110.358 898.908 110.327 898.918 110.295C898.928 110.263 898.937 110.232 898.947 110.2C898.956 110.169 898.966 110.137 898.975 110.105C898.985 110.074 898.994 110.042 899.004 110.011C899.013 109.979 899.023 109.947 899.032 109.916C899.042 109.884 899.052 109.853 899.061 109.821C899.071 109.789 899.08 109.758 899.09 109.726C899.099 109.695 899.109 109.663 899.118 109.631C899.128 109.6 899.137 109.568 899.147 109.537C899.157 109.505 899.166 109.473 899.176 109.442C899.185 109.41 899.195 109.379 899.204 109.347C899.214 109.315 899.223 109.284 899.233 109.252C899.242 109.22 899.252 109.189 899.261 109.157C899.271 109.126 899.281 109.094 899.29 109.062C899.3 109.031 899.309 108.999 899.319 108.968C899.328 108.936 899.338 108.904 899.347 108.873C899.357 108.841 899.366 108.81 899.376 108.778C899.386 108.746 899.395 108.715 899.405 108.683C899.414 108.652 899.424 108.62 899.433 108.588C899.443 108.557 899.452 108.525 899.462 108.494C899.471 108.462 899.481 108.43 899.49 108.399C899.5 108.367 899.51 108.335 899.519 108.304C899.529 108.272 899.538 108.241 899.548 108.209C899.557 108.177 899.567 108.146 899.576 108.114C899.586 108.083 899.595 108.051 899.605 108.019C899.615 107.988 899.624 107.956 899.634 107.925C899.643 107.893 899.653 107.861 899.662 107.83C899.672 107.798 899.681 107.767 899.691 107.735C899.7 107.703 899.71 107.672 899.719 107.64C899.729 107.609 899.739 107.577 899.748 107.545C899.758 107.514 899.767 107.482 899.777 107.45C899.786 107.419 899.796 107.387 899.805 107.356C899.815 107.324 899.824 107.292 899.834 107.261C899.844 107.229 899.853 107.198 899.863 107.166C899.872 107.134 899.882 107.103 899.891 107.071C899.901 107.04 899.91 107.008 899.92 106.976C899.929 106.945 899.939 106.913 899.948 106.882C899.958 106.85 899.968 106.818 899.977 106.787C899.987 106.755 899.996 106.724 900.006 106.692C900.015 106.66 900.025 106.629 900.034 106.597C900.044 106.565 900.053 106.534 900.063 106.502C900.073 106.471 900.082 106.439 900.092 106.407C900.101 106.376 900.111 106.344 900.12 106.313C900.13 106.281 900.139 106.249 900.149 106.218C900.158 106.186 900.168 106.155 900.177 106.123C900.187 106.091 900.197 106.06 900.206 106.028C900.216 105.997 900.225 105.965 900.235 105.933C900.244 105.902 900.254 105.87 900.263 105.839C900.273 105.807 900.282 105.775 900.292 105.744C900.302 105.712 900.311 105.681 900.321 105.649C900.33 105.617 900.34 105.586 900.349 105.554C900.359 105.522 900.368 105.491 900.378 105.459C900.387 105.428 900.397 105.396 900.406 105.364C900.416 105.333 900.426 105.301 900.435 105.27C900.445 105.238 900.454 105.206 900.464 105.175C900.473 105.143 900.483 105.112 900.492 105.08C900.502 105.048 900.511 105.017 900.521 104.985C900.531 104.954 900.54 104.922 900.55 104.89C900.559 104.859 900.569 104.827 900.578 104.796C900.588 104.764 900.597 104.732 900.607 104.701C900.616 104.669 900.626 104.637 900.635 104.606C900.645 104.574 900.655 104.543 900.664 104.511C900.674 104.479 900.683 104.448 900.693 104.416C900.702 104.385 900.712 104.353 900.721 104.321C900.731 104.29 900.74 104.258 900.75 104.227C900.76 104.195 900.769 104.163 900.779 104.132C900.788 104.1 900.798 104.069 900.807 104.037C900.817 104.005 900.826 103.974 900.836 103.942C900.845 103.911 900.855 103.879 900.864 103.847C900.874 103.816 900.884 103.784 900.893 103.752C900.903 103.721 900.912 103.689 900.922 103.658C900.931 103.626 900.941 103.594 900.95 103.563C900.96 103.531 900.969 103.5 900.979 103.468C900.989 103.436 900.998 103.405 901.008 103.373C901.017 103.342 901.027 103.31 901.036 103.278C901.046 103.247 901.055 103.215 901.065 103.184C901.074 103.152 901.084 103.12 901.093 103.089C901.103 103.057 901.113 103.026 901.122 102.994C901.132 102.962 901.141 102.931 901.151 102.899C901.16 102.868 901.17 102.836 901.179 102.804C901.189 102.773 901.198 102.741 901.208 102.709C901.218 102.678 901.227 102.646 901.237 102.615C901.246 102.583 901.256 102.551 901.265 102.52C901.275 102.488 901.284 102.457 901.294 102.425C901.303 102.393 901.313 102.362 901.322 102.33C901.332 102.299 901.342 102.267 901.351 102.235C901.361 102.204 901.37 102.172 901.38 102.141C901.389 102.109 901.399 102.077 901.408 102.046C901.418 102.014 901.427 101.983 901.437 101.951C901.447 101.919 901.456 101.888 901.466 101.856C901.475 101.824 901.485 101.793 901.494 101.761C901.504 101.73 901.513 101.698 901.523 101.666C901.532 101.635 901.542 101.603 901.551 101.572C901.561 101.54 901.571 101.508 901.58 101.477C901.59 101.445 901.599 101.414 901.609 101.382C901.618 101.35 901.628 101.319 901.637 101.287C901.647 101.256 901.656 101.224 901.666 101.192C901.676 101.161 901.685 101.129 901.695 101.098C901.704 101.066 901.714 101.034 901.723 101.003C901.733 100.971 901.742 100.939 901.752 100.908C901.761 100.876 901.771 100.845 901.78 100.813C901.79 100.781 901.8 100.75 901.809 100.718C901.819 100.687 901.828 100.655 901.838 100.623C901.847 100.592 901.857 100.56 901.866 100.529C901.876 100.497 901.885 100.465 901.895 100.434C901.905 100.402 901.914 100.371 901.924 100.339C901.933 100.307 901.943 100.276 901.952 100.244C901.962 100.213 901.971 100.181 901.981 100.149C901.99 100.118 902 100.086 902.009 100.055C902.019 100.023 902.029 99.9913 902.038 99.9597C902.048 99.9281 902.057 99.8965 902.067 99.8649C902.076 99.8333 902.086 99.8016 902.095 99.77C902.105 99.7384 902.114 99.7068 902.124 99.6752C902.134 99.6436 902.143 99.612 902.153 99.5804C902.162 99.5488 902.172 99.5172 902.181 99.4856C902.191 99.454 902.2 99.4224 902.21 99.3908C902.219 99.3592 902.229 99.3275 902.238 99.2959C902.248 99.2643 902.258 99.2327 902.267 99.2011C902.277 99.1695 902.286 99.1379 902.296 99.1063C902.305 99.0747 902.315 99.0431 902.324 99.0115C902.334 98.9799 902.343 98.9483 902.353 98.9167C902.363 98.8851 902.372 98.8534 902.382 98.8218C902.391 98.7902 902.401 98.7586 902.41 98.727C902.42 98.6954 902.429 98.6638 902.439 98.6322C902.448 98.6006 902.458 98.569 902.467 98.5374C902.477 98.5058 902.487 98.4742 902.496 98.4426C902.506 98.411 902.515 98.3793 902.525 98.3477C902.534 98.3161 902.544 98.2845 902.553 98.2529C902.563 98.2213 902.572 98.1897 902.582 98.1581C902.592 98.1265 902.601 98.0949 902.611 98.0633C902.62 98.0317 902.63 98.0001 902.639 97.9685C902.649 97.9368 902.658 97.9052 902.668 97.8736C902.677 97.842 902.687 97.8104 902.696 97.7788C902.706 97.7472 902.716 97.7156 902.725 97.684C902.735 97.6524 902.744 97.6208 902.754 97.5892C902.763 97.5576 902.773 97.526 902.782 97.4944C902.792 97.4627 902.801 97.4311 902.811 97.3995C902.821 97.3679 902.83 97.3363 902.84 97.3047C902.849 97.2731 902.859 97.2415 902.868 97.2099C902.878 97.1783 902.887 97.1467 902.897 97.1151C902.906 97.0835 902.916 97.0519 902.925 97.0203C902.935 96.9886 902.945 96.957 902.954 96.9254C902.964 96.8938 902.973 96.8622 902.983 96.8306C902.992 96.799 903.002 96.7674 903.011 96.7358C903.021 96.7042 903.03 96.6726 903.04 96.641C903.05 96.6094 903.059 96.5778 903.069 96.5462C903.078 96.5145 903.088 96.4829 903.097 96.4513C903.107 96.4197 903.116 96.3881 903.126 96.3565C903.135 96.3249 903.145 96.2933 903.154 96.2617C903.164 96.2301 903.174 96.1985 903.183 96.1669C903.193 96.1353 903.202 96.1037 903.212 96.072C903.221 96.0404 903.231 96.0088 903.24 95.9772C903.25 95.9456 903.259 95.914 903.269 95.8824C903.279 95.8508 903.288 95.8192 903.298 95.7876C903.307 95.756 903.317 95.7244 903.326 95.6928C903.336 95.6612 903.345 95.6296 903.355 95.5979C903.364 95.5663 903.374 95.5347 903.383 95.5031C903.393 95.4715 903.403 95.4399 903.412 95.4083C903.422 95.3767 903.431 95.3451 903.441 95.3135C903.45 95.2819 903.46 95.2503 903.469 95.2187C903.479 95.1871 903.488 95.1555 903.498 95.1238C903.508 95.0922 903.517 95.0606 903.527 95.029C903.536 94.9974 903.546 94.9658 903.555 94.9342C903.565 94.9026 903.574 94.871 903.584 94.8394C903.593 94.8078 903.603 94.7762 903.612 94.7446C903.622 94.713 903.632 94.6814 903.641 94.6497C903.651 94.6181 903.66 94.5865 903.67 94.5549C903.679 94.5233 903.689 94.4917 903.698 94.4601C903.708 94.4285 903.717 94.3969 903.727 94.3653C903.737 94.3337 903.746 94.3021 903.756 94.2705C903.765 94.2389 903.775 94.2072 903.784 94.1756C903.794 94.144 903.803 94.1124 903.813 94.0808C903.822 94.0492 903.832 94.0176 903.841 93.986C903.851 93.9544 903.861 93.9228 903.87 93.8912C903.88 93.8596 903.889 93.828 903.899 93.7964C903.908 93.7648 903.918 93.7331 903.927 93.7015C903.937 93.6699 903.946 93.6383 903.956 93.6067C903.966 93.5751 903.975 93.5435 903.985 93.5119C903.994 93.4803 904.004 93.4487 904.013 93.4171C904.023 93.3855 904.032 93.3539 904.042 93.3223C904.051 93.2907 904.061 93.259 904.07 93.2274C904.08 93.1958 904.09 93.1642 904.099 93.1326C904.109 93.101 904.118 93.0694 904.128 93.0378C904.137 93.0062 904.147 92.9746 904.156 92.943C904.166 92.9114 904.175 92.8798 904.185 92.8482C904.195 92.8166 904.204 92.7849 904.214 92.7533C904.223 92.7217 904.233 92.6901 904.242 92.6585C904.252 92.6269 904.261 92.5953 904.271 92.5637C904.28 92.5321 904.29 92.5005 904.299 92.4689C904.309 92.4373 904.319 92.4057 904.328 92.3741C904.338 92.3424 904.347 92.3108 904.357 92.2792C904.366 92.2476 904.376 92.216 904.385 92.1844C904.395 92.1528 904.404 92.1212 904.414 92.0896C904.424 92.058 904.433 92.0264 904.443 91.9948C904.452 91.9632 904.462 91.9316 904.471 91.9C904.481 91.8683 904.49 91.8367 904.5 91.8051C904.509 91.7735 904.519 91.7419 904.528 91.7103C904.538 91.6787 904.548 91.6471 904.557 91.6155C904.567 91.5839 904.576 91.5523 904.586 91.5207C904.595 91.4891 904.605 91.4575 904.614 91.4259C904.624 91.3942 904.633 91.3626 904.643 91.331C904.653 91.2994 904.662 91.2678 904.672 91.2362C904.681 91.2046 904.691 91.173 904.7 91.1414C904.71 91.1098 904.719 91.0782 904.729 91.0466C904.738 91.015 904.748 90.9834 904.757 90.9518C904.767 90.9201 904.777 90.8885 904.786 90.8569C904.796 90.8253 904.805 90.7937 904.815 90.7621C904.824 90.7305 904.834 90.6989 904.843 90.6673C904.853 90.6357 904.862 90.6041 904.872 90.5725C904.882 90.5409 904.891 90.5093 904.901 90.4777C904.91 90.446 904.92 90.4144 904.929 90.3828C904.939 90.3512 904.948 90.3196 904.958 90.288C904.967 90.2564 904.977 90.2248 904.986 90.1932C904.996 90.1616 905.006 90.13 905.015 90.0984C905.025 90.0668 905.034 90.0352 905.044 90.0035C905.053 89.9719 905.063 89.9403 905.072 89.9087C905.082 89.8771 905.091 89.8455 905.101 89.8139C905.111 89.7823 905.12 89.7507 905.13 89.7191C905.139 89.6875 905.149 89.6559 905.158 89.6243C905.168 89.5927 905.177 89.5611 905.187 89.5294C905.196 89.4978 905.206 89.4662 905.215 89.4346C905.225 89.403 905.235 89.3714 905.244 89.3398C905.254 89.3082 905.263 89.2766 905.273 89.245C905.282 89.2134 905.292 89.1818 905.301 89.1502C905.311 89.1186 905.32 89.087 905.33 89.0553C905.34 89.0237 905.349 88.9921 905.359 88.9605C905.368 88.9289 905.378 88.8973 905.387 88.8657C905.397 88.8341 905.406 88.8025 905.416 88.7709C905.425 88.7393 905.435 88.7077 905.444 88.6761C905.454 88.6445 905.464 88.6129 905.473 88.5812C905.483 88.5496 905.492 88.518 905.502 88.4864C905.511 88.4548 905.521 88.4232 905.53 88.3916C905.54 88.36 905.549 88.3284 905.559 88.2968C905.569 88.2652 905.578 88.2336 905.588 88.202C905.597 88.1704 905.607 88.1387 905.616 88.1071C905.626 88.0755 905.635 88.0439 905.645 88.0123C905.654 87.9807 905.664 87.9491 905.673 87.9175C905.683 87.8859 905.693 87.8543 905.702 87.8227C905.712 87.7911 905.721 87.7595 905.731 87.7279C905.74 87.6963 905.75 87.6646 905.759 87.633C905.769 87.6014 905.778 87.5698 905.788 87.5382C905.798 87.5066 905.807 87.475 905.817 87.4434C905.826 87.4118 905.836 87.3802 905.845 87.3486C905.855 87.317 905.864 87.2854 905.874 87.2538C905.883 87.2222 905.893 87.1905 905.902 87.1589C905.912 87.1273 905.922 87.0957 905.931 87.0641C905.941 87.0325 905.95 87.0009 905.96 86.9693C905.969 86.9377 905.979 86.9061 905.988 86.8745C905.998 86.8429 906.007 86.8113 906.017 86.7797C906.027 86.7481 906.036 86.7164 906.046 86.6848C906.055 86.6532 906.065 86.6216 906.074 86.59C906.084 86.5584 906.093 86.5268 906.103 86.4952C906.112 86.4636 906.122 86.432 906.131 86.4004C906.141 86.3688 906.151 86.3372 906.16 86.3056C906.17 86.2739 906.179 86.2423 906.189 86.2107C906.198 86.1791 906.208 86.1475 906.217 86.1159C906.227 86.0843 906.236 86.0527 906.246 86.0211C906.256 85.9895 906.265 85.9579 906.275 85.9263C906.284 85.8947 906.294 85.8631 906.303 85.8315C906.313 85.7998 906.322 85.7682 906.332 85.7366C906.341 85.705 906.351 85.6734 906.36 85.6418C906.37 85.6102 906.38 85.5786 906.389 85.547C906.399 85.5154 906.408 85.4838 906.418 85.4522C906.427 85.4206 906.437 85.389 906.446 85.3574C906.456 85.3257 906.465 85.2941 906.475 85.2625C906.485 85.2309 906.494 85.1993 906.504 85.1677C906.513 85.1361 906.523 85.1045 906.532 85.0729C906.542 85.0413 906.551 85.0097 906.561 84.9781C906.57 84.9465 906.58 84.9149 906.589 84.8833C906.599 84.8516 906.609 84.82 906.618 84.7884C906.628 84.7568 906.637 84.7252 906.647 84.6936C906.656 84.662 906.666 84.6304 906.675 84.5988C906.685 84.5672 906.694 84.5356 906.704 84.504C906.714 84.4724 906.723 84.4408 906.733 84.4091C906.742 84.3775 906.752 84.3459 906.761 84.3143C906.771 84.2827 906.78 84.2511 906.79 84.2195C906.799 84.1879 906.809 84.1563 906.818 84.1247C906.828 84.0931 906.838 84.0615 906.847 84.0299C906.857 83.9983 906.866 83.9667 906.876 83.935C906.885 83.9034 906.895 83.8718 906.904 83.8402C906.914 83.8086 906.923 83.777 906.933 83.7454C906.943 83.7138 906.952 83.6822 906.962 83.6506C906.971 83.619 906.981 83.5874 906.99 83.5558C907 83.5242 907.009 83.4926 907.019 83.4609C907.028 83.4293 907.038 83.3977 907.047 83.3661C907.057 83.3345 907.067 83.3029 907.076 83.2713C907.086 83.2397 907.095 83.2081 907.105 83.1765C907.114 83.1449 907.124 83.1133 907.133 83.0817C907.143 83.0501 907.152 83.0185 907.162 82.9868C907.172 82.9552 907.181 82.9236 907.191 82.892C907.2 82.8604 907.21 82.8288 907.219 82.7972C907.229 82.7656 907.238 82.734 907.248 82.7024C907.257 82.6708 907.267 82.6392 907.276 82.6076C907.286 82.576 907.296 82.5444 907.305 82.5127C907.315 82.4811 907.324 82.4495 907.334 82.4179C907.343 82.3863 907.353 82.3547 907.362 82.3231C907.372 82.2915 907.381 82.2599 907.391 82.2283C907.401 82.1967 907.41 82.1651 907.42 82.1335C907.429 82.1019 907.439 82.0702 907.448 82.0386C907.458 82.007 907.467 81.9754 907.477 81.9438C907.486 81.9122 907.496 81.8806 907.505 81.849C907.515 81.8174 907.525 81.7858 907.534 81.7542C907.544 81.7226 907.553 81.691 907.563 81.6594C907.572 81.6278 907.582 81.5961 907.591 81.5645C907.601 81.5329 907.61 81.5013 907.62 81.4697C907.63 81.4381 907.639 81.4065 907.649 81.3749C907.658 81.3433 907.668 81.3117 907.677 81.2801C907.687 81.2485 907.696 81.2169 907.706 81.1853C907.715 81.1537 907.725 81.122 907.734 81.0904C907.744 81.0588 907.754 81.0272 907.763 80.9956C907.773 80.964 907.782 80.9324 907.792 80.9008C907.801 80.8692 907.811 80.8376 907.82 80.806C907.83 80.7744 907.839 80.7428 907.849 80.7112C907.859 80.6796 907.868 80.6479 907.878 80.6163C907.887 80.5847 907.897 80.5531 907.906 80.5215C907.916 80.4899 907.925 80.4583 907.935 80.4267C907.944 80.3951 907.954 80.3635 907.963 80.3319C907.973 80.3003 907.983 80.2687 907.992 80.2371C908.002 80.2054 908.011 80.1738 908.021 80.1422C908.03 80.1106 908.04 80.079 908.049 80.0474C908.059 80.0158 908.068 79.9842 908.078 79.9526C908.088 79.921 908.097 79.8894 908.107 79.8578C908.116 79.8262 908.126 79.7946 908.135 79.763C908.145 79.7313 908.154 79.6997 908.164 79.6681C908.173 79.6365 908.183 79.6049 908.192 79.5733C908.202 79.5417 908.212 79.5101 908.221 79.4785C908.231 79.4469 908.24 79.4153 908.25 79.3837C908.259 79.3521 908.269 79.3205 908.278 79.2889C908.288 79.2572 908.297 79.2256 908.307 79.194C908.317 79.1624 908.326 79.1308 908.336 79.0992C908.345 79.0676 908.355 79.036 908.364 79.0044C908.374 78.9728 908.383 78.9412 908.393 78.9096C908.402 78.878 908.412 78.8464 908.421 78.8148C908.431 78.7831 908.441 78.7515 908.45 78.7199C908.46 78.6883 908.469 78.6567 908.479 78.6251C908.488 78.5935 908.498 78.5619 908.507 78.5303C908.517 78.4987 908.526 78.4671 908.536 78.4355C908.546 78.4039 908.555 78.3723 908.565 78.3406C908.574 78.309 908.584 78.2774 908.593 78.2458C908.603 78.2142 908.612 78.1826 908.622 78.151C908.631 78.1194 908.641 78.0878 908.65 78.0562C908.66 78.0246 908.67 77.993 908.679 77.9614C908.689 77.9298 908.698 77.8982 908.708 77.8665C908.717 77.8349 908.727 77.8033 908.736 77.7717C908.746 77.7401 908.755 77.7085 908.765 77.6769C908.775 77.6453 908.784 77.6137 908.794 77.5821C908.803 77.5505 908.813 77.5189 908.822 77.4873C908.832 77.4557 908.841 77.4241 908.851 77.3924C908.86 77.3608 908.87 77.3292 908.879 77.2976C908.889 77.266 908.899 77.2344 908.908 77.2028C908.918 77.1712 908.927 77.1396 908.937 77.108C908.946 77.0764 908.956 77.0448 908.965 77.0132C908.975 76.9816 908.984 76.95 908.994 76.9183C909.004 76.8867 909.013 76.8551 909.023 76.8235C909.032 76.7919 909.042 76.7603 909.051 76.7287C909.061 76.6971 909.07 76.6655 909.08 76.6339C909.089 76.6023 909.099 76.5707 909.108 76.5391C909.118 76.5075 909.128 76.4758 909.137 76.4442C909.147 76.4126 909.156 76.381 909.166 76.3494C909.175 76.3178 909.185 76.2862 909.194 76.2546C909.204 76.223 909.213 76.1914 909.223 76.1598C909.233 76.1282 909.242 76.0966 909.252 76.065C909.261 76.0334 909.271 76.0017 909.28 75.9701C909.29 75.9385 909.299 75.9069 909.309 75.8753C909.318 75.8437 909.328 75.8121 909.337 75.7805C909.347 75.7489 909.357 75.7173 909.366 75.6857C909.376 75.6541 909.385 75.6225 909.395 75.5909C909.404 75.5593 909.414 75.5276 909.423 75.496C909.433 75.4644 909.442 75.4328 909.452 75.4012C909.462 75.3696 909.471 75.338 909.481 75.3064C909.49 75.2748 909.5 75.2432 909.509 75.2116C909.519 75.18 909.528 75.1484 909.538 75.1168C909.547 75.0852 909.557 75.0535 909.566 75.0219C909.576 74.9903 909.586 74.9587 909.595 74.9271C909.605 74.8955 909.614 74.8639 909.624 74.8323C909.633 74.8007 909.643 74.7691 909.652 74.7375C909.662 74.7059 909.671 74.6743 909.681 74.6427C909.691 74.6111 909.7 74.5794 909.71 74.5478C909.719 74.5162 909.729 74.4846 909.738 74.453C909.748 74.4214 909.757 74.3898 909.767 74.3582C909.776 74.3266 909.786 74.295 909.795 74.2634C909.805 74.2318 909.815 74.2002 909.824 74.1686C909.834 74.1369 909.843 74.1053 909.853 74.0737C909.862 74.0421 909.872 74.0105 909.881 73.9789C909.891 73.9473 909.9 73.9157 909.91 73.8841C909.92 73.8525 909.929 73.8209 909.939 73.7893C909.948 73.7577 909.958 73.7261 909.967 73.6945C909.977 73.6628 909.986 73.6312 909.996 73.5996C910.005 73.568 910.015 73.5364 910.024 73.5048C910.034 73.4732 910.044 73.4416 910.053 73.41C910.063 73.3784 910.072 73.3468 910.082 73.3152C910.091 73.2836 910.101 73.252 910.11 73.2204C910.12 73.1887 910.129 73.1571 910.139 73.1255C910.149 73.0939 910.158 73.0623 910.168 73.0307C910.177 72.9991 910.187 72.9675 910.196 72.9359C910.206 72.9043 910.215 72.8727 910.225 72.8411C910.234 72.8095 910.244 72.7779 910.253 72.7463C910.263 72.7146 910.273 72.683 910.282 72.6514C910.292 72.6198 910.301 72.5882 910.311 72.5566C910.32 72.525 910.33 72.4934 910.339 72.4618C910.349 72.4302 910.358 72.3986 910.368 72.367C910.378 72.3354 910.387 72.3038 910.397 72.2721C910.406 72.2405 910.416 72.2089 910.425 72.1773C910.435 72.1457 910.444 72.1141 910.454 72.0825C910.463 72.0509 910.473 72.0193 910.482 71.9877C910.492 71.9561 910.502 71.9245 910.511 71.8929C910.521 71.8613 910.53 71.8297 910.54 71.798C910.549 71.7664 910.559 71.7348 910.568 71.7032C910.578 71.6716 910.587 71.64 910.597 71.6084C910.607 71.5768 910.616 71.5452 910.626 71.5136C910.635 71.482 910.645 71.4504 910.654 71.4188C910.664 71.3872 910.673 71.3556 910.683 71.3239C910.692 71.2923 910.702 71.2607 910.711 71.2291C910.721 71.1975 910.731 71.1659 910.74 71.1343C910.75 71.1027 910.759 71.0711 910.769 71.0395C910.778 71.0079 910.788 70.9763 910.797 70.9447C910.807 70.9131 910.816 70.8815 910.826 70.8498C910.836 70.8182 910.845 70.7866 910.855 70.755C910.864 70.7234 910.874 70.6918 910.883 70.6602C910.893 70.6286 910.902 70.597 910.912 70.5654C910.921 70.5338 910.931 70.5022 910.94 70.4706C910.95 70.439 910.96 70.4073 910.969 70.3757C910.979 70.3441 910.988 70.3125 910.998 70.2809C911.007 70.2493 911.017 70.2177 911.026 70.1861C911.036 70.1545 911.045 70.1229 911.055 70.0913C911.065 70.0597 911.074 70.0281 911.084 69.9965C911.093 69.9649 911.103 69.9332 911.112 69.9016C911.122 69.87 911.131 69.8384 911.141 69.8068C911.15 69.7752 911.16 69.7436 911.169 69.712L909.255 69.134ZM894.6 117.679C889.719 133.694 884.61 149.02 879.274 163.657L881.153 164.343C886.503 149.668 891.623 134.308 896.513 118.263L894.6 117.679ZM880.213 163H847.466V165H880.213V163ZM848.416 163.687C840.332 139.131 832.781 113.199 825.764 85.8911L823.827 86.3889C830.854 113.736 838.417 139.711 846.516 164.313L848.416 163.687ZM825.765 85.8962C818.899 58.5837 812.796 31.6536 807.456 5.1058L805.495 5.5002C810.841 32.0804 816.952 59.0416 823.825 86.3838L825.765 85.8962ZM806.475 6.303H845.176V4.303H806.475V6.303ZM844.19 5.4701C845.718 14.4836 847.398 23.8784 849.231 33.6543L851.197 33.2857C849.366 23.5203 847.688 14.137 846.162 5.13589L844.19 5.4701ZM849.232 33.6571C851.065 43.2792 852.974 52.9775 854.959 62.7521L856.919 62.3539C854.935 52.5872 853.028 42.8968 851.196 33.2829L849.232 33.6571ZM854.959 62.7521C856.945 72.5267 858.93 81.9963 860.916 91.1608L862.87 90.7372C860.887 81.5817 858.903 72.1206 856.919 62.3539L854.959 62.7521ZM860.919 91.1762C863.059 100.347 865.2 108.832 867.341 116.633L869.269 116.103C867.136 108.332 865.002 99.8712 862.867 90.7218L860.919 91.1762ZM869.244 116.713C871.998 109.214 874.676 101.259 877.276 92.8473L875.365 92.2567C872.774 100.638 870.108 108.56 867.366 116.023L869.244 116.713ZM877.276 92.8473C879.873 84.4454 882.393 76.0434 884.837 67.6413L882.917 67.0827C880.476 75.474 877.958 83.8653 875.365 92.2567L877.276 92.8473ZM884.837 67.6413C887.283 59.2349 889.5 51.1327 891.487 43.335L889.549 42.841C887.567 50.6153 885.357 58.6958 882.917 67.0827L884.837 67.6413ZM891.482 43.3527C893.62 35.5668 895.528 28.6206 897.207 22.5142L895.279 21.9838C893.6 28.0907 891.691 35.0372 889.554 42.8233L891.482 43.3527ZM896.243 23.249H926.7V21.249H896.243V23.249ZM1166.51 164L1165.55 164.292L1165.77 165H1166.51V164ZM1160.78 147.054L1159.84 147.378L1159.84 147.389L1159.85 147.4L1160.78 147.054ZM1154.83 129.65L1155.78 129.326L1155.55 128.65H1154.83V129.65ZM1093 129.65V128.65H1092.29L1092.05 129.326L1093 129.65ZM1086.82 147.054L1085.88 146.708L1085.88 146.719L1085.87 146.73L1086.82 147.054ZM1081.32 164V165H1082.06L1082.28 164.292L1081.32 164ZM1044.22 164L1043.28 163.671L1042.82 165H1044.22V164ZM1061.17 116.597L1062.11 116.943L1062.11 116.943L1061.17 116.597ZM1076.74 75.606L1075.81 75.2308L1075.81 75.2403L1076.74 75.606ZM1091.86 39.195L1090.94 38.7967L1090.94 38.8026L1091.86 39.195ZM1107.43 5.303V4.303H1106.8L1106.53 4.8658L1107.43 5.303ZM1141.55 5.303L1142.45 4.87599L1142.18 4.303H1141.55V5.303ZM1156.89 39.195L1155.97 39.5933L1155.98 39.5977L1156.89 39.195ZM1172.01 75.606L1171.07 75.9717L1171.08 75.9812L1172.01 75.606ZM1187.81 116.597L1186.87 116.943L1186.87 116.943L1187.81 116.597ZM1204.75 164V165H1206.16L1205.7 163.671L1204.75 164ZM1123.69 41.256L1124.62 40.8846L1123.6 38.3499L1122.74 40.9398L1123.69 41.256ZM1120.25 50.645L1119.32 50.286L1119.32 50.286L1120.25 50.645ZM1114.98 64.385L1114.05 64.0279L1114.05 64.0279L1114.98 64.385ZM1108.34 81.56L1107.41 81.1965L1107.41 81.2064L1107.4 81.2164L1108.34 81.56ZM1101.24 101.254L1100.3 100.919L1099.83 102.254H1101.24V101.254ZM1146.36 101.254V102.254H1147.77L1147.3 100.919L1146.36 101.254ZM1139.26 81.56L1138.32 81.9036L1138.32 81.9036L1139.26 81.56ZM1132.62 64.385L1131.68 64.7421L1131.69 64.754L1131.69 64.7657L1132.62 64.385ZM1127.35 50.645L1128.28 50.286L1128.28 50.286L1127.35 50.645ZM1167.47 163.708C1165.78 158.192 1163.87 152.526 1161.72 146.708L1159.85 147.4C1161.98 153.185 1163.88 158.816 1165.55 164.292L1167.47 163.708ZM1161.73 146.73C1161.7 146.636 1161.67 146.552 1161.64 146.458C1161.61 146.364 1161.58 146.28 1161.54 146.186C1161.51 146.093 1161.48 146.008 1161.45 145.914C1161.42 145.821 1161.39 145.736 1161.36 145.643C1161.33 145.549 1161.3 145.465 1161.27 145.371C1161.23 145.277 1161.2 145.193 1161.17 145.099C1161.14 145.005 1161.11 144.921 1161.08 144.827C1161.05 144.733 1161.02 144.649 1160.99 144.555C1160.95 144.461 1160.93 144.377 1160.89 144.283C1160.86 144.189 1160.83 144.105 1160.8 144.011C1160.77 143.917 1160.74 143.833 1160.71 143.739C1160.68 143.645 1160.65 143.561 1160.61 143.467C1160.58 143.373 1160.55 143.289 1160.52 143.195C1160.49 143.101 1160.46 143.017 1160.43 142.923C1160.4 142.829 1160.37 142.745 1160.34 142.651C1160.3 142.557 1160.27 142.473 1160.24 142.379C1160.21 142.285 1160.18 142.201 1160.15 142.107C1160.12 142.013 1160.09 141.929 1160.06 141.835C1160.02 141.742 1160 141.657 1159.96 141.563C1159.93 141.47 1159.9 141.385 1159.87 141.292C1159.84 141.198 1159.81 141.114 1159.78 141.02C1159.74 140.926 1159.72 140.842 1159.68 140.748C1159.65 140.654 1159.62 140.57 1159.59 140.476C1159.56 140.382 1159.53 140.298 1159.5 140.204C1159.47 140.11 1159.44 140.026 1159.4 139.932C1159.37 139.838 1159.34 139.754 1159.31 139.66C1159.28 139.566 1159.25 139.482 1159.22 139.388C1159.19 139.294 1159.16 139.21 1159.13 139.116C1159.09 139.022 1159.06 138.938 1159.03 138.844C1159 138.75 1158.97 138.666 1158.94 138.572C1158.91 138.478 1158.88 138.394 1158.85 138.3C1158.81 138.206 1158.79 138.122 1158.75 138.028C1158.63 137.681 1158.5 137.288 1158.38 136.941C1158.26 136.593 1158.13 136.201 1158.01 135.853C1157.89 135.505 1157.76 135.113 1157.64 134.765C1157.52 134.417 1157.38 134.025 1157.27 133.677C1157.15 133.33 1157.01 132.937 1156.89 132.59C1156.77 132.242 1156.64 131.85 1156.52 131.502C1156.39 131.118 1156.28 130.798 1156.15 130.414C1156.02 130.03 1155.91 129.71 1155.78 129.326L1153.88 129.974C1153.91 130.052 1153.95 130.167 1153.98 130.246C1154 130.324 1154.04 130.439 1154.07 130.518C1154.1 130.596 1154.14 130.711 1154.16 130.789C1154.19 130.868 1154.23 130.983 1154.26 131.061C1154.28 131.14 1154.32 131.255 1154.35 131.333C1154.38 131.412 1154.42 131.527 1154.44 131.605C1154.47 131.684 1154.51 131.799 1154.54 131.877C1154.55 131.918 1154.61 132.108 1154.63 132.149C1154.64 132.19 1154.71 132.38 1154.72 132.421C1154.75 132.515 1154.78 132.599 1154.81 132.693C1154.85 132.787 1154.88 132.871 1154.91 132.965C1154.94 133.059 1154.97 133.143 1155 133.237C1155.03 133.331 1155.06 133.415 1155.09 133.509C1155.13 133.603 1155.15 133.687 1155.19 133.781C1155.22 133.875 1155.25 133.959 1155.28 134.053C1155.31 134.147 1155.34 134.231 1155.37 134.325C1155.41 134.419 1155.43 134.503 1155.47 134.597C1155.5 134.691 1155.53 134.775 1155.56 134.869C1155.59 134.962 1155.62 135.047 1155.65 135.14C1155.68 135.234 1155.71 135.319 1155.75 135.412C1155.78 135.506 1155.81 135.59 1155.84 135.684C1155.87 135.778 1155.9 135.862 1155.93 135.956C1155.96 136.05 1155.99 136.134 1156.02 136.228C1156.06 136.322 1156.09 136.406 1156.12 136.5C1156.15 136.594 1156.18 136.678 1156.21 136.772C1156.24 136.866 1156.27 136.95 1156.3 137.044C1156.34 137.138 1156.36 137.222 1156.4 137.316C1156.43 137.41 1156.46 137.494 1156.49 137.588C1156.52 137.682 1156.55 137.766 1156.58 137.86C1156.61 137.954 1156.64 138.038 1156.68 138.132C1156.71 138.226 1156.74 138.31 1156.77 138.404C1156.8 138.498 1156.83 138.582 1156.86 138.676C1156.98 139.023 1157.11 139.416 1157.23 139.763C1157.35 140.111 1157.49 140.503 1157.61 140.851C1157.72 141.199 1157.86 141.591 1157.98 141.939C1158.1 142.287 1158.23 142.679 1158.35 143.027C1158.47 143.374 1158.6 143.767 1158.72 144.114C1158.84 144.462 1158.98 144.854 1159.09 145.202C1159.21 145.55 1159.35 145.942 1159.47 146.29C1159.59 146.638 1159.72 147.03 1159.84 147.378L1161.73 146.73ZM1154.83 128.65H1093V130.65H1154.83V128.65ZM1092.05 129.326C1090.07 135.12 1088.01 140.914 1085.88 146.708L1087.76 147.4C1089.9 141.591 1091.96 135.782 1093.95 129.974L1092.05 129.326ZM1085.87 146.73C1083.88 152.541 1082.05 158.201 1080.37 163.708L1082.28 164.292C1083.95 158.807 1085.78 153.169 1087.76 147.378L1085.87 146.73ZM1081.32 163H1044.22V165H1081.32V163ZM1045.17 164.329C1051.12 147.235 1056.77 131.44 1062.11 116.943L1060.23 116.251C1054.89 130.761 1049.23 146.568 1043.28 163.671L1045.17 164.329ZM1062.11 116.943C1067.45 102.445 1072.64 88.7883 1077.67 75.9717L1075.81 75.2403C1070.77 88.0717 1065.58 101.742 1060.23 116.251L1062.11 116.943ZM1077.67 75.9812C1082.86 63.1623 1087.89 51.0311 1092.78 39.5874L1090.94 38.8026C1086.05 50.2589 1081.01 62.4017 1075.81 75.2308L1077.67 75.9812ZM1092.77 39.5933C1097.81 28.0033 1102.99 16.7189 1108.33 5.74019L1106.53 4.8658C1101.18 15.8711 1095.98 27.1814 1090.94 38.7967L1092.77 39.5933ZM1107.43 6.303H1141.55V4.303H1107.43V6.303ZM1140.64 5.73C1145.83 16.7121 1150.94 27.9999 1155.97 39.5933L1157.81 38.7967C1152.77 27.1848 1147.65 15.8779 1142.45 4.87599L1140.64 5.73ZM1155.98 39.5977C1161.01 51.0343 1166.04 63.1589 1171.07 75.9717L1172.94 75.2403C1167.89 62.4051 1162.85 50.2557 1157.81 38.7923L1155.98 39.5977ZM1171.08 75.9812C1176.26 88.7944 1181.53 102.448 1186.87 116.943L1188.74 116.251C1183.4 101.739 1178.13 88.0656 1172.93 75.2308L1171.08 75.9812ZM1186.87 116.943C1192.21 131.44 1197.86 147.235 1203.81 164.329L1205.7 163.671C1199.74 146.568 1194.09 130.761 1188.74 116.251L1186.87 116.943ZM1204.75 163H1166.51V165H1204.75V163ZM1122.74 40.9398C1121.98 43.2086 1120.84 46.3219 1119.32 50.286L1121.18 51.004C1122.71 47.0294 1123.86 43.8834 1124.64 41.5722L1122.74 40.9398ZM1119.32 50.286C1117.79 54.2561 1116.04 58.8368 1114.05 64.0279L1115.92 64.7421C1117.9 59.5519 1119.66 54.9725 1121.18 51.004L1119.32 50.286ZM1114.05 64.0279C1112.07 69.216 1109.85 74.9388 1107.41 81.1965L1109.28 81.9235C1111.72 75.6625 1113.93 69.9353 1115.92 64.7421L1114.05 64.0279ZM1107.4 81.2164C1105.11 87.4789 1102.75 94.0464 1100.3 100.919L1102.19 101.589C1104.63 94.7216 1106.99 88.1598 1109.28 81.9036L1107.4 81.2164ZM1101.24 102.254H1146.36V100.254H1101.24V102.254ZM1147.3 100.919C1144.86 94.0464 1142.49 87.4789 1140.2 81.2164L1138.32 81.9036C1140.61 88.1598 1142.97 94.7216 1145.42 101.589L1147.3 100.919ZM1140.2 81.2164C1137.9 74.9468 1135.69 69.2092 1133.54 64.0042L1131.69 64.7657C1133.82 69.9421 1136.03 75.6545 1138.32 81.9036L1140.2 81.2164ZM1133.55 64.0279C1131.57 58.8368 1129.81 54.2561 1128.28 50.286L1126.42 51.004C1127.94 54.9725 1129.7 59.5519 1131.68 64.7421L1133.55 64.0279ZM1128.28 50.286C1126.76 46.315 1125.53 43.1806 1124.62 40.8846L1122.76 41.6274C1123.67 43.9114 1124.89 47.0363 1126.42 51.004L1128.28 50.286ZM1292.71 70.568L1291.85 71.0771L1292.71 72.5321L1293.57 71.0771L1292.71 70.568ZM1311.03 38.05L1311.91 38.5219L1311.91 38.5219L1311.03 38.05ZM1327.06 5.303V4.303H1326.41L1326.15 4.89686L1327.06 5.303ZM1366.45 5.303L1367.34 5.75656L1368.08 4.303H1366.45V5.303ZM1339.43 54.996L1340.29 55.4983L1340.29 55.4983L1339.43 54.996ZM1309.89 103.315L1309.04 102.775L1308.89 103.022V103.315H1309.89ZM1309.89 164V165H1310.89V164H1309.89ZM1274.16 164H1273.16V165H1274.16V164ZM1274.16 103.773H1275.16V103.48L1275 103.233L1274.16 103.773ZM1244.39 55.225L1243.52 55.7238L1243.53 55.7299L1244.39 55.225ZM1217.37 5.303V4.303H1215.74L1216.48 5.75656L1217.37 5.303ZM1258.82 5.303L1259.73 4.89686L1259.47 4.303H1258.82V5.303ZM1274.62 38.05L1273.73 38.5121L1273.73 38.5121L1274.62 38.05ZM1293.57 71.0771C1299.99 60.2258 1306.1 49.3741 1311.91 38.5219L1310.15 37.5781C1304.35 48.4046 1298.25 59.2315 1291.85 70.0589L1293.57 71.0771ZM1311.91 38.5219C1317.72 27.6615 1323.08 16.7239 1327.97 5.70913L1326.15 4.89686C1321.27 15.8661 1315.94 26.7598 1310.15 37.5781L1311.91 38.5219ZM1327.06 6.303H1366.45V4.303H1327.06V6.303ZM1365.56 4.84943C1356.86 21.9322 1347.86 38.4802 1338.56 54.4937L1340.29 55.4983C1349.61 39.4518 1358.63 22.8712 1367.34 5.75656L1365.56 4.84943ZM1338.56 54.4937C1329.26 70.5105 1319.42 86.6043 1309.04 102.775L1310.73 103.855C1321.12 87.6604 1330.97 71.5415 1340.29 55.4983L1338.56 54.4937ZM1308.89 103.315V164H1310.89V103.315H1308.89ZM1309.89 163H1274.16V165H1309.89V163ZM1275.16 164V103.773H1273.16V164H1275.16ZM1275 103.233C1264.63 87.0616 1254.71 70.8906 1245.25 54.7201L1243.53 55.7299C1253 71.9247 1262.93 88.119 1273.32 104.313L1275 103.233ZM1245.26 54.7262C1235.95 38.5588 1226.95 21.9332 1218.26 4.84943L1216.48 5.75656C1225.19 22.8701 1234.2 39.5258 1243.52 55.7238L1245.26 54.7262ZM1217.37 6.303H1258.82V4.303H1217.37V6.303ZM1257.9 5.70913C1262.8 16.7204 1268.07 27.6547 1273.73 38.5121L1275.51 37.5879C1269.87 26.7666 1264.61 15.8696 1259.73 4.89686L1257.9 5.70913ZM1273.73 38.5121C1279.39 49.3678 1285.43 60.2228 1291.85 71.0771L1293.57 70.0589C1287.17 59.2345 1281.15 48.4108 1275.51 37.5879L1273.73 38.5121Z" fill="#CCCCCC"/>
</svg>
