<svg width="80" height="80" viewBox="0 0 80 80" fill="none" xmlns="http://www.w3.org/2000/svg">
<path d="M73.3334 60.0159C73.3334 61.8492 71.8467 63.3326 70.0167 63.3326H43.3167C42.4371 63.3326 41.5935 62.9831 40.9715 62.3611C40.3495 61.7391 40 60.8955 40 60.0159C40 59.1362 40.3495 58.2926 40.9715 57.6706C41.5935 57.0486 42.4371 56.6992 43.3167 56.6992H70.0167C71.85 56.6992 73.3334 58.1825 73.3334 60.0159V60.0159Z" fill="white"/>
<path d="M73.3334 39.9998C73.3334 41.8331 71.8467 43.3164 70.0167 43.3164H9.98335C9.10372 43.3164 8.26011 42.967 7.63812 42.345C7.01612 41.723 6.66669 40.8794 6.66669 39.9998C6.66669 39.1201 7.01612 38.2765 7.63812 37.6545C8.26011 37.0325 9.10372 36.6831 9.98335 36.6831H70.0167C71.85 36.6831 73.3334 38.1698 73.3334 39.9998V39.9998Z" fill="white"/>
<path d="M70.0167 23.2998C70.8963 23.2998 71.7399 22.9504 72.3619 22.3284C72.9839 21.7064 73.3334 20.8628 73.3334 19.9832C73.3334 19.1035 72.9839 18.2599 72.3619 17.6379C71.7399 17.0159 70.8963 16.6665 70.0167 16.6665H29.9834C29.5478 16.6665 29.1165 16.7523 28.7141 16.919C28.3117 17.0856 27.9461 17.33 27.6381 17.6379C27.3301 17.9459 27.0858 18.3115 26.9192 18.7139C26.7525 19.1163 26.6667 19.5476 26.6667 19.9832C26.6667 20.4187 26.7525 20.85 26.9192 21.2524C27.0858 21.6548 27.3301 22.0204 27.6381 22.3284C27.9461 22.6364 28.3117 22.8807 28.7141 23.0474C29.1165 23.214 29.5478 23.2998 29.9834 23.2998H70.0167Z" fill="white"/>
</svg>
