<svg width="80" height="80" viewBox="0 0 80 80" fill="none" xmlns="http://www.w3.org/2000/svg">
<path d="M40 75C30.7174 75 21.815 71.3125 15.2513 64.7487C8.68749 58.185 5 49.2826 5 40C5 30.7174 8.68749 21.815 15.2513 15.2513C21.815 8.68749 30.7174 5 40 5C49.2826 5 58.185 8.68749 64.7487 15.2513C71.3125 21.815 75 30.7174 75 40C75 49.2826 71.3125 58.185 64.7487 64.7487C58.185 71.3125 49.2826 75 40 75ZM40 80C50.6087 80 60.7828 75.7857 68.2843 68.2843C75.7857 60.7828 80 50.6087 80 40C80 29.3913 75.7857 19.2172 68.2843 11.7157C60.7828 4.21427 50.6087 0 40 0C29.3913 0 19.2172 4.21427 11.7157 11.7157C4.21427 19.2172 0 29.3913 0 40C0 50.6087 4.21427 60.7828 11.7157 68.2843C19.2172 75.7857 29.3913 80 40 80V80Z" fill="#181818"/>
<path d="M31.355 25.2774C31.7639 25.0668 32.223 24.9731 32.6817 25.0066C33.1405 25.0402 33.581 25.1996 33.955 25.4674L51.455 37.9674C51.7791 38.1986 52.0432 38.5039 52.2255 38.8579C52.4078 39.2119 52.5028 39.6042 52.5028 40.0024C52.5028 40.4005 52.4078 40.7929 52.2255 41.1468C52.0432 41.5008 51.7791 41.8061 51.455 42.0374L33.955 54.5374C33.5812 54.8049 33.1408 54.9642 32.6823 54.9977C32.2238 55.0313 31.765 54.9377 31.3562 54.7274C30.9474 54.5171 30.6045 54.1981 30.3653 53.8055C30.126 53.413 29.9996 52.9621 30 52.5024V27.5024C29.9995 27.0428 30.1257 26.592 30.3648 26.1994C30.6038 25.8069 30.9464 25.4879 31.355 25.2774V25.2774Z" fill="#181818"/>
</svg>
